<svg width="216" height="334" viewBox="0 0 216 334" fill="none" xmlns="http://www.w3.org/2000/svg">
<rect x="103" y="142" width="3" height="192" fill="#FF6348"/>
<rect x="182" y="211" width="3" height="123" fill="#FF6348"/>
<rect x="24" y="211" width="3" height="123" fill="#FF6348"/>
<path fill-rule="evenodd" clip-rule="evenodd" d="M17.4674 164H33.4987C37.5141 165.463 41.0967 167.934 43.9105 171.183H17.4674C16.5268 171.183 15.6248 170.805 14.9597 170.131C14.2946 169.458 13.921 168.544 13.921 167.592C13.921 166.639 14.2946 165.726 14.9597 165.052C15.6248 164.379 16.5268 164 17.4674 164ZM7.46482 164C8.15934 163.991 8.8409 164.191 9.42323 164.574C10.0056 164.958 10.4625 165.508 10.7362 166.154C11.0098 166.801 11.0879 167.515 10.9606 168.206C10.8333 168.898 10.5062 169.536 10.0208 170.039C9.53546 170.542 8.91359 170.888 8.23394 171.033C7.55429 171.178 6.84743 171.116 6.20282 170.854C5.55822 170.592 5.00485 170.142 4.61278 169.561C4.22071 168.981 4.00755 168.295 4.0003 167.592C3.99426 167.122 4.08066 166.655 4.25447 166.219C4.42827 165.783 4.686 165.386 5.01266 165.052C5.33932 164.717 5.72837 164.452 6.15716 164.272C6.58596 164.091 7.04592 163.999 7.51028 164H7.46482Z" fill="#FF6348"/>
<path fill-rule="evenodd" clip-rule="evenodd" d="M17.4671 177.309H47.8385C48.8791 179.588 49.575 182.012 49.9027 184.501H17.4671C16.5564 184.455 15.6983 184.055 15.07 183.386C14.4417 182.717 14.0914 181.829 14.0914 180.905C14.0914 179.982 14.4417 179.093 15.07 178.424C15.6983 177.755 16.5564 177.356 17.4671 177.309ZM7.46453 177.355C8.161 177.346 8.8444 177.547 9.42776 177.932C10.0111 178.318 10.4681 178.87 10.7405 179.519C11.0128 180.168 11.0883 180.885 10.9573 181.578C10.8264 182.271 10.4948 182.908 10.0049 183.41C9.51492 183.911 8.88876 184.254 8.20607 184.394C7.52339 184.533 6.81504 184.464 6.17118 184.195C5.52732 183.926 4.97705 183.469 4.59042 182.883C4.20379 182.296 3.99826 181.606 4.00001 180.9C4.00001 180.434 4.09086 179.972 4.26737 179.541C4.44387 179.111 4.70256 178.719 5.02861 178.39C5.35466 178.061 5.74167 177.8 6.16747 177.622C6.59327 177.444 7.04949 177.354 7.51 177.355H7.46453Z" fill="#FF6348"/>
<path fill-rule="evenodd" clip-rule="evenodd" d="M17.4671 190.623H49.9663C49.7021 193.099 49.0706 195.521 48.0931 197.806H17.4671C16.5265 197.806 15.6245 197.428 14.9594 196.754C14.2944 196.081 13.9207 195.167 13.9207 194.215C13.9207 193.262 14.2944 192.349 14.9594 191.675C15.6245 191.002 16.5265 190.623 17.4671 190.623ZM7.46452 190.623C8.15904 190.614 8.84061 190.814 9.42294 191.197C10.0053 191.581 10.4622 192.13 10.7359 192.777C11.0095 193.424 11.0876 194.138 10.9603 194.829C10.833 195.521 10.5059 196.158 10.0205 196.662C9.53516 197.165 8.91329 197.511 8.23364 197.656C7.554 197.801 6.84713 197.739 6.20253 197.477C5.55792 197.215 5.00456 196.765 4.61248 196.184C4.22041 195.604 4.00726 194.918 4 194.215C4.00959 193.279 4.38392 192.385 5.04139 191.728C5.69886 191.071 6.58619 190.704 7.50999 190.706L7.46452 190.623Z" fill="#FF6348"/>
<path fill-rule="evenodd" clip-rule="evenodd" d="M17.4671 203.932H44.3922C41.841 207.056 38.5935 209.521 34.917 211.124H17.4671C16.5564 211.078 15.6983 210.678 15.07 210.009C14.4417 209.34 14.0914 208.452 14.0914 207.528C14.0914 206.605 14.4417 205.716 15.07 205.047C15.6983 204.378 16.5564 203.979 17.4671 203.932ZM7.46453 203.932C8.15866 203.923 8.83985 204.122 9.42197 204.506C10.0041 204.889 10.461 205.438 10.7349 206.084C11.0088 206.73 11.0874 207.444 10.9608 208.135C10.8342 208.826 10.508 209.464 10.0236 209.967C9.53911 210.471 8.9181 210.818 8.23907 210.964C7.56004 211.11 6.85348 211.049 6.20874 210.788C5.564 210.527 5.01003 210.079 4.61688 209.5C4.22373 208.92 4.00906 208.236 4.00001 207.533C3.99881 207.066 4.08878 206.603 4.26475 206.171C4.44072 205.739 4.69922 205.347 5.02539 205.016C5.35156 204.686 5.73897 204.424 6.16537 204.246C6.59176 204.068 7.04873 203.977 7.51 203.978L7.46453 203.932Z" fill="#FF6348"/>
<path fill-rule="evenodd" clip-rule="evenodd" d="M173.467 164H189.499C193.514 165.463 197.097 167.934 199.91 171.183H173.467C172.527 171.183 171.625 170.805 170.96 170.131C170.295 169.458 169.921 168.544 169.921 167.592C169.921 166.639 170.295 165.726 170.96 165.052C171.625 164.379 172.527 164 173.467 164ZM163.465 164C164.159 163.991 164.841 164.191 165.423 164.574C166.006 164.958 166.462 165.508 166.736 166.154C167.01 166.801 167.088 167.515 166.961 168.206C166.833 168.898 166.506 169.536 166.021 170.039C165.535 170.542 164.914 170.888 164.234 171.033C163.554 171.178 162.847 171.116 162.203 170.854C161.558 170.592 161.005 170.142 160.613 169.561C160.221 168.981 160.008 168.295 160 167.592C159.994 167.122 160.081 166.655 160.254 166.219C160.428 165.783 160.686 165.386 161.013 165.052C161.339 164.717 161.728 164.452 162.157 164.272C162.586 164.091 163.046 163.999 163.51 164H163.465Z" fill="#FF6348"/>
<path fill-rule="evenodd" clip-rule="evenodd" d="M173.467 177.309H203.838C204.879 179.588 205.575 182.012 205.903 184.501H173.467C172.556 184.455 171.698 184.055 171.07 183.386C170.442 182.717 170.091 181.829 170.091 180.905C170.091 179.982 170.442 179.093 171.07 178.424C171.698 177.755 172.556 177.356 173.467 177.309ZM163.465 177.355C164.161 177.346 164.844 177.547 165.428 177.932C166.011 178.318 166.468 178.87 166.74 179.519C167.013 180.168 167.088 180.885 166.957 181.578C166.826 182.271 166.495 182.908 166.005 183.41C165.515 183.911 164.889 184.254 164.206 184.394C163.523 184.533 162.815 184.464 162.171 184.195C161.527 183.926 160.977 183.469 160.59 182.883C160.204 182.296 159.998 181.606 160 180.9C160 180.434 160.091 179.972 160.267 179.541C160.444 179.111 160.703 178.719 161.029 178.39C161.355 178.061 161.742 177.8 162.167 177.622C162.593 177.444 163.049 177.354 163.51 177.355H163.465Z" fill="#FF6348"/>
<path fill-rule="evenodd" clip-rule="evenodd" d="M173.467 190.623H205.966C205.702 193.099 205.071 195.521 204.093 197.806H173.467C172.527 197.806 171.624 197.428 170.959 196.754C170.294 196.081 169.921 195.167 169.921 194.215C169.921 193.262 170.294 192.349 170.959 191.675C171.624 191.002 172.527 190.623 173.467 190.623ZM163.465 190.623C164.159 190.614 164.841 190.814 165.423 191.197C166.005 191.581 166.462 192.13 166.736 192.777C167.01 193.424 167.088 194.138 166.96 194.829C166.833 195.521 166.506 196.158 166.021 196.662C165.535 197.165 164.913 197.511 164.234 197.656C163.554 197.801 162.847 197.739 162.203 197.477C161.558 197.215 161.005 196.765 160.612 196.184C160.22 195.604 160.007 194.918 160 194.215C160.01 193.279 160.384 192.385 161.041 191.728C161.699 191.071 162.586 190.704 163.51 190.706L163.465 190.623Z" fill="#FF6348"/>
<path fill-rule="evenodd" clip-rule="evenodd" d="M173.467 203.932H200.392C197.841 207.056 194.593 209.521 190.917 211.124H173.467C172.556 211.078 171.698 210.678 171.07 210.009C170.442 209.34 170.091 208.452 170.091 207.528C170.091 206.605 170.442 205.716 171.07 205.047C171.698 204.378 172.556 203.979 173.467 203.932ZM163.465 203.932C164.159 203.923 164.84 204.122 165.422 204.506C166.004 204.889 166.461 205.438 166.735 206.084C167.009 206.73 167.087 207.444 166.961 208.135C166.834 208.826 166.508 209.464 166.024 209.967C165.539 210.471 164.918 210.818 164.239 210.964C163.56 211.11 162.853 211.049 162.209 210.788C161.564 210.527 161.01 210.079 160.617 209.5C160.224 208.92 160.009 208.236 160 207.533C159.999 207.066 160.089 206.603 160.265 206.171C160.441 205.739 160.699 205.347 161.025 205.016C161.352 204.686 161.739 204.424 162.165 204.246C162.592 204.068 163.049 203.977 163.51 203.978L163.465 203.932Z" fill="#FF6348"/>
<path fill-rule="evenodd" clip-rule="evenodd" d="M92.3468 80.0004H115.377C121.145 82.1015 126.292 85.6523 130.334 90.3196H92.3468C90.9956 90.3196 89.6998 89.776 88.7444 88.8084C87.789 87.8408 87.2522 86.5284 87.2522 85.16C87.2522 83.7916 87.789 82.4792 88.7444 81.5116C89.6998 80.544 90.9956 80.0004 92.3468 80.0004ZM77.9774 80.0004C78.9752 79.9874 79.9543 80.2744 80.7908 80.8252C81.6274 81.376 82.2838 82.1658 82.6769 83.0946C83.0701 84.0234 83.1823 85.0495 82.9994 86.0429C82.8164 87.0363 82.3466 87.9524 81.6493 88.6752C80.9521 89.3981 80.0587 89.8952 79.0823 90.1036C78.106 90.312 77.0905 90.2223 76.1645 89.846C75.2385 89.4696 74.4435 88.8234 73.8803 87.9893C73.3171 87.1551 73.0108 86.1705 73.0004 85.16C72.9918 84.4845 73.1159 83.8139 73.3656 83.1874C73.6152 82.561 73.9855 81.991 74.4548 81.5109C74.924 81.0307 75.4829 80.6498 76.0989 80.3905C76.7149 80.1312 77.3757 79.9986 78.0428 80.0004H77.9774Z" fill="#FF6348"/>
<path fill-rule="evenodd" clip-rule="evenodd" d="M92.3464 99.119H135.977C137.472 102.393 138.472 105.876 138.942 109.451H92.3464C91.0381 109.384 89.8053 108.811 88.9028 107.849C88.0002 106.888 87.497 105.612 87.497 104.285C87.497 102.959 88.0002 101.683 88.9028 100.721C89.8053 99.7596 91.0381 99.1861 92.3464 99.119ZM77.977 99.1852C78.9776 99.172 79.9593 99.4607 80.7973 100.014C81.6354 100.568 82.2918 101.362 82.6831 102.294C83.0744 103.227 83.1829 104.257 82.9947 105.252C82.8065 106.247 82.3302 107.163 81.6264 107.883C80.9225 108.604 80.023 109.096 79.0423 109.297C78.0616 109.498 77.044 109.399 76.119 109.012C75.1941 108.625 74.4036 107.969 73.8482 107.126C73.2928 106.283 72.9975 105.292 73 104.279C73 103.609 73.1305 102.945 73.3841 102.326C73.6377 101.708 74.0093 101.145 74.4777 100.672C74.9461 100.199 75.502 99.8243 76.1137 99.5691C76.7254 99.3139 77.3808 99.1834 78.0424 99.1852H77.977Z" fill="#FF6348"/>
<path fill-rule="evenodd" clip-rule="evenodd" d="M92.3464 118.246H139.034C138.654 121.803 137.747 125.282 136.343 128.565H92.3464C90.9952 128.565 89.6994 128.021 88.744 127.054C87.7885 126.086 87.2518 124.774 87.2518 123.406C87.2518 122.037 87.7885 120.725 88.744 119.757C89.6994 118.79 90.9952 118.246 92.3464 118.246ZM77.977 118.246C78.9747 118.233 79.9539 118.52 80.7904 119.071C81.627 119.622 82.2834 120.411 82.6765 121.34C83.0697 122.269 83.1819 123.295 82.9989 124.288C82.816 125.282 82.3462 126.198 81.6489 126.921C80.9516 127.644 80.0583 128.141 79.0819 128.349C78.1056 128.557 77.0901 128.468 76.1641 128.091C75.2381 127.715 74.4431 127.069 73.8799 126.235C73.3166 125.401 73.0104 124.416 73 123.406C73.0138 122.062 73.5515 120.778 74.496 119.833C75.4405 118.889 76.7152 118.361 78.0423 118.365L77.977 118.246Z" fill="#FF6348"/>
<path fill-rule="evenodd" clip-rule="evenodd" d="M92.3464 137.365H131.026C127.361 141.853 122.696 145.394 117.414 147.698H92.3464C91.0381 147.631 89.8053 147.057 88.9028 146.096C88.0002 145.134 87.497 143.858 87.497 142.531C87.497 141.205 88.0002 139.929 88.9028 138.967C89.8053 138.006 91.0381 137.432 92.3464 137.365ZM77.977 137.365C78.9742 137.352 79.9528 137.639 80.789 138.189C81.6253 138.74 82.2816 139.529 82.6751 140.457C83.0686 141.385 83.1816 142.41 82.9997 143.403C82.8178 144.396 82.3492 145.312 81.6533 146.035C80.9573 146.759 80.0652 147.257 79.0897 147.467C78.1142 147.677 77.0992 147.589 76.173 147.214C75.2468 146.84 74.451 146.196 73.8862 145.364C73.3214 144.531 73.013 143.548 73 142.538C72.9983 141.867 73.1275 141.202 73.3803 140.582C73.6331 139.961 74.0045 139.398 74.473 138.923C74.9416 138.449 75.4982 138.073 76.1107 137.817C76.7232 137.561 77.3797 137.43 78.0424 137.431L77.977 137.365Z" fill="#FF6348"/>
<rect width="5" height="2" transform="matrix(4.37114e-08 1 1 -4.37114e-08 0 1)" fill="#414141"/>
<rect width="15" height="2" transform="matrix(4.37114e-08 1 1 -4.37114e-08 22 0)" fill="#414141"/>
<rect width="36" height="2" transform="matrix(4.37114e-08 1 1 -4.37114e-08 0 10)" fill="#414141"/>
<rect width="63" height="2" transform="matrix(4.37114e-08 1 1 -4.37114e-08 22 20)" fill="#414141"/>
<rect width="5" height="2" transform="matrix(4.37114e-08 -1 -1 -4.37114e-08 216 141)" fill="#414141"/>
<rect width="15" height="2" transform="matrix(4.37114e-08 -1 -1 -4.37114e-08 194 142)" fill="#414141"/>
<rect width="36" height="2" transform="matrix(4.37114e-08 -1 -1 -4.37114e-08 216 132)" fill="#414141"/>
<rect width="63" height="2" transform="matrix(4.37114e-08 -1 -1 -4.37114e-08 194 122)" fill="#414141"/>
</svg>
