<svg width="20" height="20" viewBox="0 0 20 20" fill="none" xmlns="http://www.w3.org/2000/svg">
<path d="M7.49984 18.3332H12.4998C16.6665 18.3332 18.3332 16.6665 18.3332 12.4998V7.49984C18.3332 3.33317 16.6665 1.6665 12.4998 1.6665H7.49984C3.33317 1.6665 1.6665 3.33317 1.6665 7.49984V12.4998C1.6665 16.6665 3.33317 18.3332 7.49984 18.3332Z" stroke="#292D32" stroke-width="1.25" stroke-linecap="round" stroke-linejoin="round"/>
<path d="M1.6665 10.8321H4.79984C5.43317 10.8321 6.00817 11.1904 6.2915 11.7571L7.03317 13.2487C7.49984 14.1654 8.33317 14.1654 8.53317 14.1654H11.4748C12.1082 14.1654 12.6832 13.8071 12.9665 13.2404L13.7082 11.7487C13.9915 11.1821 14.5665 10.8237 15.1998 10.8237H18.3165" stroke="#292D32" stroke-width="1.25" stroke-linecap="round" stroke-linejoin="round"/>
<path d="M8.6167 5.8335H11.3917" stroke="#292D32" stroke-width="1.25" stroke-linecap="round" stroke-linejoin="round"/>
<path d="M7.9165 8.3335H12.0832" stroke="#292D32" stroke-width="1.25" stroke-linecap="round" stroke-linejoin="round"/>
</svg>
