<svg width="60" height="60" viewBox="0 0 60 60" fill="none" xmlns="http://www.w3.org/2000/svg">
<path d="M25.2757 27.8828H18.6507C17.0757 27.8828 15.8008 29.1577 15.8008 30.7327V43.5327H25.2757V27.8828V27.8828Z" stroke="#292D32" stroke-width="2" stroke-miterlimit="10" stroke-linecap="round" stroke-linejoin="round"/>
<path d="M31.9039 16.5039H28.1039C26.5289 16.5039 25.2539 17.7789 25.2539 19.3539V43.504H34.7289V19.3539C34.7289 17.7789 33.4789 16.5039 31.9039 16.5039Z" stroke="#292D32" stroke-width="2" stroke-miterlimit="10" stroke-linecap="round" stroke-linejoin="round"/>
<path d="M41.3711 32.1289H34.7461V43.504H44.2211V34.9789C44.1961 33.4039 42.9211 32.1289 41.3711 32.1289Z" stroke="#292D32" stroke-width="2" stroke-miterlimit="10" stroke-linecap="round" stroke-linejoin="round"/>
<path d="M22.5 55H37.5C50 55 55 50 55 37.5V22.5C55 10 50 5 37.5 5H22.5C10 5 5 10 5 22.5V37.5C5 50 10 55 22.5 55Z" stroke="#292D32" stroke-width="2" stroke-linecap="round" stroke-linejoin="round"/>
</svg>
