<svg width="60" height="60" viewBox="0 0 60 60" fill="none" xmlns="http://www.w3.org/2000/svg">
<path d="M46.575 17.8724C46.675 19.3974 46.55 21.1224 46.25 23.0474L44.425 34.7724C42.875 44.5474 38.35 47.8474 28.575 46.3224L16.85 44.4724C13.475 43.9474 10.875 43.0474 8.97498 41.6974C5.34998 39.1724 4.29998 35.0224 5.29998 28.6224L7.14998 16.8974C8.69998 7.12242 13.225 3.82242 23 5.34742L34.725 7.19742C42.575 8.42242 46.25 11.6224 46.575 17.8724Z" stroke="#292D32" stroke-width="2" stroke-linecap="round" stroke-linejoin="round"/>
<path d="M51.2516 33.6711L47.5016 44.9461C44.3766 54.3461 39.3766 56.8461 29.9766 53.7211L18.7016 49.9711C13.0266 48.0961 9.87656 45.4961 8.97656 41.6961C10.8766 43.0461 13.4766 43.9461 16.8516 44.4711L28.5766 46.3211C38.3516 47.8461 42.8766 44.5461 44.4266 34.7711L46.2516 23.0461C46.5516 21.1211 46.6766 19.3961 46.5766 17.8711C52.5516 21.0461 53.8516 25.8461 51.2516 33.6711Z" stroke="#292D32" stroke-width="2" stroke-linecap="round" stroke-linejoin="round"/>
<path d="M20.6 22.45C23.0024 22.45 24.95 20.5024 24.95 18.1C24.95 15.6976 23.0024 13.75 20.6 13.75C18.1976 13.75 16.25 15.6976 16.25 18.1C16.25 20.5024 18.1976 22.45 20.6 22.45Z" stroke="#292D32" stroke-width="2" stroke-linecap="round" stroke-linejoin="round"/>
</svg>
