<svg width="60" height="60" viewBox="0 0 60 60" fill="none" xmlns="http://www.w3.org/2000/svg">
<path d="M41.75 47.4484H18.25C17.2 47.4484 16.025 46.6234 15.675 45.6234L5.32501 16.6734C3.85001 12.5234 5.57501 11.2484 9.12501 13.7984L18.875 20.7734C20.5 21.8984 22.35 21.3234 23.05 19.4984L27.45 7.77344C28.85 4.02344 31.175 4.02344 32.575 7.77344L36.975 19.4984C37.675 21.3234 39.525 21.8984 41.125 20.7734L50.275 14.2484C54.175 11.4484 56.05 12.8734 54.45 17.3984L44.35 45.6734C43.975 46.6234 42.8 47.4484 41.75 47.4484Z" stroke="#292D32" stroke-width="2" stroke-linecap="round" stroke-linejoin="round"/>
<path d="M16.25 55H43.75" stroke="#292D32" stroke-width="2" stroke-linecap="round" stroke-linejoin="round"/>
<path d="M23.75 35H36.25" stroke="#292D32" stroke-width="2" stroke-linecap="round" stroke-linejoin="round"/>
</svg>
