<svg width="487" height="456" viewBox="0 0 487 456" fill="none" xmlns="http://www.w3.org/2000/svg">
<rect x="0.5" y="0.5" width="486" height="455" rx="19.5" stroke="#D0D0D0"/>
<path d="M421.089 61.2809H424.179V68.4809C424.179 70.1609 425.089 70.5009 426.199 69.2409L433.769 60.6409C434.699 59.5909 434.309 58.7209 432.899 58.7209H429.809V51.5209C429.809 49.8409 428.899 49.5009 427.789 50.7609L420.219 59.3609C419.299 60.4209 419.689 61.2809 421.089 61.2809Z" fill="#FF6348"/>
<path d="M423.225 35.5773L410.75 40.2773C407.875 41.3523 405.525 44.7523 405.525 47.8023V66.3773C405.525 69.3273 407.475 73.2023 409.85 74.9773L420.6 83.0023C424.125 85.6523 429.925 85.6523 433.45 83.0023L444.2 74.9773C446.575 73.2023 448.525 69.3273 448.525 66.3773V47.8023C448.525 44.7273 446.175 41.3273 443.3 40.2523L430.825 35.5773C428.7 34.8023 425.3 34.8023 423.225 35.5773Z" stroke="#292D32" stroke-width="1.5" stroke-linecap="round" stroke-linejoin="round"/>
<path d="M347 85C360.807 85 372 73.8071 372 60C372 46.1929 360.807 35 347 35C333.193 35 322 46.1929 322 60C322 73.8071 333.193 85 347 85Z" stroke="#292D32" stroke-width="1.5" stroke-linecap="round" stroke-linejoin="round"/>
<path d="M340 36C335.125 50.6 335.125 69.4 340 84" stroke="#292D32" stroke-width="1.5" stroke-linecap="round" stroke-linejoin="round"/>
<path d="M354 36C358.875 50.6 358.875 69.4 354 84" stroke="#292D32" stroke-width="1.5" stroke-linecap="round" stroke-linejoin="round"/>
<path d="M323 67C337.6 71.875 356.4 71.375 371 66.5" stroke="#292D32" stroke-width="1.5" stroke-linecap="round" stroke-linejoin="round"/>
<path d="M323 53C337.6 48.125 356.4 48.1249 371 52.9999" stroke="#292D32" stroke-width="1.5" stroke-linecap="round" stroke-linejoin="round"/>
<path d="M136.834 306.43V327.298M155.168 313.956L140.834 328.667M162.501 332.43H141.834M155.168 351.245L140.168 335.851M136.834 358.43V337.561M118.834 351.245L133.834 335.851M111.501 332.43H132.501M118.834 313.956L133.834 329.351" stroke="black" stroke-width="2"/>
<circle cx="136.501" cy="332.43" r="6" fill="black"/>
<g filter="url(#filter0_d_131_19579)">
<rect x="36" y="102.523" width="189" height="96" rx="12" fill="white"/>
</g>
<path d="M56.852 134.523V126.123H59.564C60.54 126.123 61.344 126.295 61.976 126.639C62.616 126.983 63.088 127.471 63.392 128.103C63.704 128.727 63.86 129.471 63.86 130.335C63.86 131.183 63.704 131.923 63.392 132.555C63.088 133.179 62.616 133.663 61.976 134.007C61.344 134.351 60.54 134.523 59.564 134.523H56.852ZM58.292 133.299H59.492C60.22 133.299 60.792 133.183 61.208 132.951C61.632 132.711 61.932 132.371 62.108 131.931C62.292 131.483 62.384 130.951 62.384 130.335C62.384 129.711 62.292 129.179 62.108 128.739C61.932 128.291 61.632 127.947 61.208 127.707C60.792 127.459 60.22 127.335 59.492 127.335H58.292V133.299ZM67.2341 134.667C66.7381 134.667 66.3261 134.583 65.9981 134.415C65.6701 134.247 65.4261 134.023 65.2661 133.743C65.1061 133.463 65.0261 133.159 65.0261 132.831C65.0261 132.447 65.1221 132.115 65.3141 131.835C65.5141 131.555 65.8061 131.339 66.1901 131.187C66.5741 131.027 67.0461 130.947 67.6061 130.947H69.1301C69.1301 130.627 69.0861 130.363 68.9981 130.155C68.9101 129.939 68.7741 129.779 68.5901 129.675C68.4061 129.571 68.1701 129.519 67.8821 129.519C67.5541 129.519 67.2741 129.595 67.0421 129.747C66.8101 129.891 66.6661 130.115 66.6101 130.419H65.1941C65.2421 129.987 65.3861 129.619 65.6261 129.315C65.8661 129.003 66.1821 128.763 66.5741 128.595C66.9741 128.419 67.4101 128.331 67.8821 128.331C68.4501 128.331 68.9341 128.431 69.3341 128.631C69.7341 128.823 70.0381 129.103 70.2461 129.471C70.4621 129.831 70.5701 130.267 70.5701 130.779V134.523H69.3461L69.2021 133.551C69.1221 133.711 69.0181 133.859 68.8901 133.995C68.7701 134.131 68.6301 134.251 68.4701 134.355C68.3101 134.451 68.1261 134.527 67.9181 134.583C67.7181 134.639 67.4901 134.667 67.2341 134.667ZM67.5581 133.527C67.7901 133.527 67.9941 133.487 68.1701 133.407C68.3541 133.319 68.5101 133.199 68.6381 133.047C68.7741 132.887 68.8781 132.711 68.9501 132.519C69.0221 132.327 69.0701 132.123 69.0941 131.907V131.883H67.7621C67.4821 131.883 67.2501 131.919 67.0661 131.991C66.8821 132.055 66.7501 132.151 66.6701 132.279C66.5901 132.407 66.5501 132.555 66.5501 132.723C66.5501 132.891 66.5901 133.035 66.6701 133.155C66.7501 133.275 66.8661 133.367 67.0181 133.431C67.1701 133.495 67.3501 133.527 67.5581 133.527ZM74.6429 134.523C74.2349 134.523 73.8789 134.459 73.5749 134.331C73.2789 134.203 73.0469 133.991 72.8789 133.695C72.7109 133.399 72.6269 132.999 72.6269 132.495V129.687H71.5949V128.475H72.6269L72.7949 126.879H74.0669V128.475H75.7109V129.687H74.0669V132.495C74.0669 132.799 74.1309 133.011 74.2589 133.131C74.3949 133.243 74.6189 133.299 74.9309 133.299H75.6749V134.523H74.6429ZM79.0817 134.667C78.5857 134.667 78.1737 134.583 77.8457 134.415C77.5177 134.247 77.2737 134.023 77.1137 133.743C76.9537 133.463 76.8737 133.159 76.8737 132.831C76.8737 132.447 76.9697 132.115 77.1617 131.835C77.3617 131.555 77.6537 131.339 78.0377 131.187C78.4217 131.027 78.8937 130.947 79.4537 130.947H80.9777C80.9777 130.627 80.9337 130.363 80.8457 130.155C80.7577 129.939 80.6217 129.779 80.4377 129.675C80.2537 129.571 80.0177 129.519 79.7297 129.519C79.4017 129.519 79.1217 129.595 78.8897 129.747C78.6577 129.891 78.5137 130.115 78.4577 130.419H77.0417C77.0897 129.987 77.2337 129.619 77.4737 129.315C77.7137 129.003 78.0297 128.763 78.4217 128.595C78.8217 128.419 79.2577 128.331 79.7297 128.331C80.2977 128.331 80.7817 128.431 81.1817 128.631C81.5817 128.823 81.8857 129.103 82.0937 129.471C82.3097 129.831 82.4177 130.267 82.4177 130.779V134.523H81.1937L81.0497 133.551C80.9697 133.711 80.8657 133.859 80.7377 133.995C80.6177 134.131 80.4777 134.251 80.3177 134.355C80.1577 134.451 79.9737 134.527 79.7657 134.583C79.5657 134.639 79.3377 134.667 79.0817 134.667ZM79.4057 133.527C79.6377 133.527 79.8417 133.487 80.0177 133.407C80.2017 133.319 80.3577 133.199 80.4857 133.047C80.6217 132.887 80.7257 132.711 80.7977 132.519C80.8697 132.327 80.9177 132.123 80.9417 131.907V131.883H79.6097C79.3297 131.883 79.0977 131.919 78.9137 131.991C78.7297 132.055 78.5977 132.151 78.5177 132.279C78.4377 132.407 78.3977 132.555 78.3977 132.723C78.3977 132.891 78.4377 133.035 78.5177 133.155C78.5977 133.275 78.7137 133.367 78.8657 133.431C79.0177 133.495 79.1977 133.527 79.4057 133.527ZM86.934 134.523V126.123H89.958C90.63 126.123 91.186 126.239 91.626 126.471C92.066 126.695 92.394 126.999 92.61 127.383C92.826 127.767 92.934 128.207 92.934 128.703C92.934 129.167 92.83 129.595 92.622 129.987C92.414 130.371 92.09 130.683 91.65 130.923C91.21 131.155 90.646 131.271 89.958 131.271H88.374V134.523H86.934ZM88.374 130.095H89.874C90.442 130.095 90.85 129.971 91.098 129.723C91.346 129.467 91.47 129.127 91.47 128.703C91.47 128.263 91.346 127.919 91.098 127.671C90.85 127.423 90.442 127.299 89.874 127.299H88.374V130.095ZM94.1282 134.523V128.475H95.4122L95.5442 129.603C95.6882 129.339 95.8682 129.115 96.0842 128.931C96.3002 128.739 96.5522 128.591 96.8402 128.487C97.1362 128.383 97.4602 128.331 97.8122 128.331V129.855H97.3082C97.0682 129.855 96.8402 129.887 96.6242 129.951C96.4082 130.007 96.2202 130.103 96.0602 130.239C95.9082 130.367 95.7882 130.547 95.7002 130.779C95.6122 131.003 95.5682 131.287 95.5682 131.631V134.523H94.1282ZM98.9578 134.523V128.475H100.398V134.523H98.9578ZM99.6777 127.515C99.4138 127.515 99.1938 127.435 99.0178 127.275C98.8498 127.107 98.7658 126.903 98.7658 126.663C98.7658 126.415 98.8498 126.215 99.0178 126.063C99.1938 125.903 99.4138 125.823 99.6777 125.823C99.9418 125.823 100.158 125.903 100.326 126.063C100.502 126.215 100.59 126.415 100.59 126.663C100.59 126.903 100.502 127.107 100.326 127.275C100.158 127.435 99.9418 127.515 99.6777 127.515ZM103.718 134.523L101.486 128.475H102.998L104.594 133.155L106.19 128.475H107.678L105.446 134.523H103.718ZM110.371 134.667C109.875 134.667 109.463 134.583 109.135 134.415C108.807 134.247 108.563 134.023 108.403 133.743C108.243 133.463 108.163 133.159 108.163 132.831C108.163 132.447 108.259 132.115 108.451 131.835C108.651 131.555 108.943 131.339 109.327 131.187C109.711 131.027 110.183 130.947 110.743 130.947H112.267C112.267 130.627 112.223 130.363 112.135 130.155C112.047 129.939 111.911 129.779 111.727 129.675C111.543 129.571 111.307 129.519 111.019 129.519C110.691 129.519 110.411 129.595 110.179 129.747C109.947 129.891 109.803 130.115 109.747 130.419H108.331C108.379 129.987 108.523 129.619 108.763 129.315C109.003 129.003 109.319 128.763 109.711 128.595C110.111 128.419 110.547 128.331 111.019 128.331C111.587 128.331 112.071 128.431 112.471 128.631C112.871 128.823 113.175 129.103 113.383 129.471C113.599 129.831 113.707 130.267 113.707 130.779V134.523H112.483L112.339 133.551C112.259 133.711 112.155 133.859 112.027 133.995C111.907 134.131 111.767 134.251 111.607 134.355C111.447 134.451 111.263 134.527 111.055 134.583C110.855 134.639 110.627 134.667 110.371 134.667ZM110.695 133.527C110.927 133.527 111.131 133.487 111.307 133.407C111.491 133.319 111.647 133.199 111.775 133.047C111.911 132.887 112.015 132.711 112.087 132.519C112.159 132.327 112.207 132.123 112.231 131.907V131.883H110.899C110.619 131.883 110.387 131.919 110.203 131.991C110.019 132.055 109.887 132.151 109.807 132.279C109.727 132.407 109.687 132.555 109.687 132.723C109.687 132.891 109.727 133.035 109.807 133.155C109.887 133.275 110.003 133.367 110.155 133.431C110.307 133.495 110.487 133.527 110.695 133.527ZM118.113 134.667C117.521 134.667 116.989 134.535 116.517 134.271C116.053 133.999 115.689 133.627 115.425 133.155C115.169 132.675 115.041 132.131 115.041 131.523C115.041 130.891 115.169 130.339 115.425 129.867C115.689 129.387 116.053 129.011 116.517 128.739C116.989 128.467 117.525 128.331 118.125 128.331C118.877 128.331 119.509 128.531 120.021 128.931C120.533 129.323 120.861 129.863 121.005 130.551H119.493C119.413 130.247 119.245 130.007 118.989 129.831C118.741 129.655 118.445 129.567 118.101 129.567C117.805 129.567 117.533 129.643 117.285 129.795C117.045 129.947 116.853 130.167 116.709 130.455C116.573 130.743 116.505 131.091 116.505 131.499C116.505 131.811 116.545 132.087 116.625 132.327C116.705 132.567 116.817 132.771 116.961 132.939C117.113 133.099 117.285 133.223 117.477 133.311C117.669 133.399 117.877 133.443 118.101 133.443C118.333 133.443 118.541 133.407 118.725 133.335C118.917 133.255 119.077 133.139 119.205 132.987C119.341 132.835 119.437 132.655 119.493 132.447H121.005C120.861 133.119 120.533 133.659 120.021 134.067C119.509 134.467 118.873 134.667 118.113 134.667ZM123.126 137.163L124.602 133.851H124.242L121.83 128.475H123.402L125.202 132.579L126.906 128.475H128.43L124.65 137.163H123.126Z" fill="black"/>
<path d="M56.852 155.523V149.475H57.62L57.68 150.387C57.864 150.051 58.12 149.791 58.448 149.607C58.776 149.423 59.14 149.331 59.54 149.331C59.836 149.331 60.112 149.375 60.368 149.463C60.624 149.551 60.848 149.683 61.04 149.859C61.24 150.035 61.396 150.263 61.508 150.543C61.708 150.167 61.988 149.871 62.348 149.655C62.716 149.439 63.108 149.331 63.524 149.331C63.988 149.331 64.388 149.423 64.724 149.607C65.068 149.791 65.336 150.071 65.528 150.447C65.72 150.823 65.816 151.299 65.816 151.875V155.523H64.976V151.971C64.976 151.331 64.844 150.855 64.58 150.543C64.316 150.223 63.948 150.063 63.476 150.063C63.156 150.063 62.864 150.151 62.6 150.327C62.336 150.495 62.128 150.743 61.976 151.071C61.824 151.391 61.748 151.791 61.748 152.271V155.523H60.908V151.971C60.908 151.331 60.776 150.855 60.512 150.543C60.256 150.223 59.892 150.063 59.42 150.063C59.092 150.063 58.796 150.151 58.532 150.327C58.276 150.495 58.072 150.747 57.92 151.083C57.768 151.411 57.692 151.819 57.692 152.307V155.523H56.852ZM69.9909 155.667C69.4309 155.667 68.9349 155.535 68.5029 155.271C68.0789 155.007 67.7429 154.639 67.4949 154.167C67.2549 153.687 67.1349 153.127 67.1349 152.487C67.1349 151.847 67.2549 151.291 67.4949 150.819C67.7349 150.347 68.0709 149.983 68.5029 149.727C68.9429 149.463 69.4469 149.331 70.0149 149.331C70.5989 149.331 71.0909 149.463 71.4909 149.727C71.8989 149.991 72.2069 150.335 72.4149 150.759C72.6309 151.183 72.7389 151.647 72.7389 152.151C72.7389 152.231 72.7389 152.315 72.7389 152.403C72.7389 152.483 72.7349 152.579 72.7269 152.691H67.7709V151.983H71.9229C71.9069 151.367 71.7149 150.891 71.3469 150.555C70.9869 150.219 70.5309 150.051 69.9789 150.051C69.6189 150.051 69.2829 150.135 68.9709 150.303C68.6669 150.463 68.4189 150.703 68.2269 151.023C68.0429 151.335 67.9509 151.731 67.9509 152.211V152.523C67.9509 153.067 68.0469 153.519 68.2389 153.879C68.4309 154.239 68.6829 154.507 68.9949 154.683C69.3149 154.859 69.6469 154.947 69.9909 154.947C70.4469 154.947 70.8229 154.847 71.1189 154.647C71.4149 154.439 71.6269 154.155 71.7549 153.795H72.5829C72.4789 154.147 72.3109 154.467 72.0789 154.755C71.8549 155.043 71.5669 155.267 71.2149 155.427C70.8629 155.587 70.4549 155.667 69.9909 155.667ZM76.0457 155.667C75.5577 155.667 75.1497 155.579 74.8217 155.403C74.5017 155.227 74.2617 154.999 74.1017 154.719C73.9497 154.439 73.8737 154.131 73.8737 153.795C73.8737 153.379 73.9777 153.027 74.1857 152.739C74.4017 152.451 74.7017 152.235 75.0857 152.091C75.4697 151.947 75.9177 151.875 76.4297 151.875H78.0617C78.0617 151.483 78.0017 151.151 77.8817 150.879C77.7617 150.607 77.5857 150.403 77.3537 150.267C77.1217 150.123 76.8297 150.051 76.4777 150.051C76.0697 150.051 75.7177 150.155 75.4217 150.363C75.1257 150.571 74.9417 150.875 74.8697 151.275H73.9937C74.0417 150.851 74.1857 150.495 74.4257 150.207C74.6737 149.919 74.9777 149.703 75.3377 149.559C75.6977 149.407 76.0777 149.331 76.4777 149.331C77.0377 149.331 77.4937 149.439 77.8457 149.655C78.1977 149.863 78.4617 150.151 78.6377 150.519C78.8137 150.887 78.9017 151.311 78.9017 151.791V155.523H78.1337L78.0857 154.419C78.0137 154.587 77.9137 154.747 77.7857 154.899C77.6657 155.051 77.5217 155.183 77.3537 155.295C77.1937 155.407 77.0057 155.495 76.7897 155.559C76.5737 155.631 76.3257 155.667 76.0457 155.667ZM76.1417 154.935C76.4377 154.935 76.7017 154.875 76.9337 154.755C77.1737 154.627 77.3777 154.463 77.5457 154.263C77.7137 154.063 77.8417 153.839 77.9297 153.591C78.0177 153.335 78.0617 153.071 78.0617 152.799V152.583H76.4897C76.0657 152.583 75.7257 152.635 75.4697 152.739C75.2137 152.843 75.0297 152.983 74.9177 153.159C74.8057 153.335 74.7497 153.539 74.7497 153.771C74.7497 154.003 74.8017 154.207 74.9057 154.383C75.0097 154.551 75.1657 154.687 75.3737 154.791C75.5897 154.887 75.8457 154.935 76.1417 154.935ZM82.7087 155.667C82.2287 155.667 81.8047 155.587 81.4367 155.427C81.0767 155.267 80.7847 155.039 80.5607 154.743C80.3447 154.439 80.2127 154.079 80.1647 153.663H81.0287C81.0767 153.895 81.1687 154.107 81.3047 154.299C81.4487 154.491 81.6407 154.647 81.8807 154.767C82.1207 154.879 82.4047 154.935 82.7327 154.935C83.0367 154.935 83.2847 154.891 83.4767 154.803C83.6767 154.707 83.8247 154.583 83.9207 154.431C84.0247 154.271 84.0767 154.095 84.0767 153.903C84.0767 153.639 84.0127 153.435 83.8847 153.291C83.7647 153.139 83.5887 153.027 83.3567 152.955C83.1247 152.883 82.8447 152.815 82.5167 152.751C82.2447 152.703 81.9847 152.639 81.7367 152.559C81.4887 152.479 81.2647 152.375 81.0647 152.247C80.8727 152.119 80.7207 151.959 80.6087 151.767C80.4967 151.567 80.4407 151.335 80.4407 151.071C80.4407 150.727 80.5247 150.427 80.6927 150.171C80.8687 149.907 81.1167 149.703 81.4367 149.559C81.7567 149.407 82.1327 149.331 82.5647 149.331C83.1807 149.331 83.6847 149.487 84.0767 149.799C84.4687 150.103 84.6967 150.551 84.7607 151.143H83.9207C83.8887 150.815 83.7527 150.555 83.5127 150.363C83.2727 150.171 82.9487 150.075 82.5407 150.075C82.1407 150.075 81.8327 150.159 81.6167 150.327C81.4087 150.487 81.3047 150.707 81.3047 150.987C81.3047 151.163 81.3607 151.315 81.4727 151.443C81.5847 151.571 81.7487 151.683 81.9647 151.779C82.1887 151.867 82.4607 151.943 82.7807 152.007C83.1647 152.079 83.5167 152.175 83.8367 152.295C84.1647 152.407 84.4287 152.583 84.6287 152.823C84.8367 153.055 84.9407 153.387 84.9407 153.819C84.9487 154.179 84.8607 154.499 84.6767 154.779C84.4927 155.059 84.2327 155.279 83.8967 155.439C83.5607 155.591 83.1647 155.667 82.7087 155.667ZM88.6141 155.667C88.1581 155.667 87.7541 155.579 87.4021 155.403C87.0581 155.219 86.7901 154.943 86.5981 154.575C86.4061 154.199 86.3101 153.719 86.3101 153.135V149.475H87.1501V153.039C87.1501 153.679 87.2901 154.155 87.5701 154.467C87.8581 154.779 88.2541 154.935 88.7581 154.935C89.1181 154.935 89.4381 154.851 89.7181 154.683C90.0061 154.515 90.2301 154.267 90.3901 153.939C90.5581 153.603 90.6421 153.195 90.6421 152.715V149.475H91.4821V155.523H90.7141L90.6661 154.443C90.4741 154.835 90.1941 155.139 89.8261 155.355C89.4661 155.563 89.0621 155.667 88.6141 155.667ZM93.1918 155.523V149.475H93.9598L94.0198 150.639C94.1478 150.359 94.3198 150.123 94.5358 149.931C94.7518 149.739 95.0118 149.591 95.3158 149.487C95.6198 149.383 95.9638 149.331 96.3478 149.331V150.207H96.0238C95.7678 150.207 95.5198 150.243 95.2798 150.315C95.0398 150.379 94.8278 150.491 94.6438 150.651C94.4598 150.811 94.3118 151.027 94.1998 151.299C94.0878 151.571 94.0318 151.911 94.0318 152.319V155.523H93.1918ZM99.862 155.667C99.302 155.667 98.806 155.535 98.374 155.271C97.95 155.007 97.614 154.639 97.366 154.167C97.126 153.687 97.006 153.127 97.006 152.487C97.006 151.847 97.126 151.291 97.366 150.819C97.606 150.347 97.942 149.983 98.374 149.727C98.814 149.463 99.318 149.331 99.886 149.331C100.47 149.331 100.962 149.463 101.362 149.727C101.77 149.991 102.078 150.335 102.286 150.759C102.502 151.183 102.61 151.647 102.61 152.151C102.61 152.231 102.61 152.315 102.61 152.403C102.61 152.483 102.606 152.579 102.598 152.691H97.642V151.983H101.794C101.778 151.367 101.586 150.891 101.218 150.555C100.858 150.219 100.402 150.051 99.85 150.051C99.49 150.051 99.154 150.135 98.842 150.303C98.538 150.463 98.29 150.703 98.098 151.023C97.914 151.335 97.822 151.731 97.822 152.211V152.523C97.822 153.067 97.918 153.519 98.11 153.879C98.302 154.239 98.554 154.507 98.866 154.683C99.186 154.859 99.518 154.947 99.862 154.947C100.318 154.947 100.694 154.847 100.99 154.647C101.286 154.439 101.498 154.155 101.626 153.795H102.454C102.35 154.147 102.182 154.467 101.95 154.755C101.726 155.043 101.438 155.267 101.086 155.427C100.734 155.587 100.326 155.667 99.862 155.667ZM106.205 155.667C105.725 155.667 105.301 155.587 104.933 155.427C104.573 155.267 104.281 155.039 104.057 154.743C103.841 154.439 103.709 154.079 103.661 153.663H104.525C104.573 153.895 104.665 154.107 104.801 154.299C104.945 154.491 105.137 154.647 105.377 154.767C105.617 154.879 105.901 154.935 106.229 154.935C106.533 154.935 106.781 154.891 106.973 154.803C107.173 154.707 107.321 154.583 107.417 154.431C107.521 154.271 107.573 154.095 107.573 153.903C107.573 153.639 107.509 153.435 107.381 153.291C107.261 153.139 107.085 153.027 106.853 152.955C106.621 152.883 106.341 152.815 106.013 152.751C105.741 152.703 105.481 152.639 105.233 152.559C104.985 152.479 104.761 152.375 104.561 152.247C104.369 152.119 104.217 151.959 104.105 151.767C103.993 151.567 103.937 151.335 103.937 151.071C103.937 150.727 104.021 150.427 104.189 150.171C104.365 149.907 104.613 149.703 104.933 149.559C105.253 149.407 105.629 149.331 106.061 149.331C106.677 149.331 107.181 149.487 107.573 149.799C107.965 150.103 108.193 150.551 108.257 151.143H107.417C107.385 150.815 107.249 150.555 107.009 150.363C106.769 150.171 106.445 150.075 106.037 150.075C105.637 150.075 105.329 150.159 105.113 150.327C104.905 150.487 104.801 150.707 104.801 150.987C104.801 151.163 104.857 151.315 104.969 151.443C105.081 151.571 105.245 151.683 105.461 151.779C105.685 151.867 105.957 151.943 106.277 152.007C106.661 152.079 107.013 152.175 107.333 152.295C107.661 152.407 107.925 152.583 108.125 152.823C108.333 153.055 108.437 153.387 108.437 153.819C108.445 154.179 108.357 154.499 108.173 154.779C107.989 155.059 107.729 155.279 107.393 155.439C107.057 155.591 106.661 155.667 106.205 155.667ZM113.231 155.523V146.883H114.071V150.555C114.279 150.171 114.567 149.871 114.935 149.655C115.303 149.439 115.707 149.331 116.147 149.331C116.603 149.331 116.999 149.423 117.335 149.607C117.679 149.791 117.943 150.071 118.127 150.447C118.319 150.823 118.415 151.303 118.415 151.887V155.523H117.587V151.983C117.587 151.335 117.451 150.855 117.179 150.543C116.915 150.223 116.523 150.063 116.003 150.063C115.643 150.063 115.315 150.151 115.019 150.327C114.731 150.503 114.499 150.759 114.323 151.095C114.155 151.423 114.071 151.831 114.071 152.319V155.523H113.231ZM122.668 155.667C122.116 155.667 121.616 155.539 121.168 155.283C120.728 155.019 120.38 154.651 120.124 154.179C119.868 153.699 119.74 153.143 119.74 152.511C119.74 151.855 119.868 151.291 120.124 150.819C120.388 150.347 120.744 149.983 121.192 149.727C121.64 149.463 122.14 149.331 122.692 149.331C123.268 149.331 123.776 149.463 124.216 149.727C124.656 149.983 125.004 150.347 125.26 150.819C125.516 151.291 125.644 151.855 125.644 152.511C125.644 153.143 125.512 153.699 125.248 154.179C124.992 154.651 124.64 155.019 124.192 155.283C123.752 155.539 123.244 155.667 122.668 155.667ZM122.68 154.947C123.056 154.947 123.4 154.855 123.712 154.671C124.032 154.487 124.288 154.215 124.48 153.855C124.68 153.487 124.78 153.035 124.78 152.499C124.78 151.955 124.684 151.503 124.492 151.143C124.3 150.783 124.044 150.515 123.724 150.339C123.412 150.155 123.068 150.063 122.692 150.063C122.332 150.063 121.992 150.155 121.672 150.339C121.352 150.523 121.092 150.795 120.892 151.155C120.7 151.507 120.604 151.955 120.604 152.499C120.604 153.035 120.7 153.487 120.892 153.855C121.084 154.215 121.336 154.487 121.648 154.671C121.968 154.855 122.312 154.947 122.68 154.947ZM128.096 155.523L126.32 149.475H127.172L128.612 154.647H128.444L130.004 149.475H130.964L132.524 154.647H132.356L133.796 149.475H134.648L132.872 155.523H132.02L130.4 150.111H130.568L128.948 155.523H128.096ZM140.377 155.523L138.601 149.475H139.453L140.893 154.647H140.725L142.285 149.475H143.245L144.805 154.647H144.637L146.077 149.475H146.929L145.153 155.523H144.301L142.681 150.111H142.849L141.229 155.523H140.377ZM150.464 155.667C149.904 155.667 149.408 155.535 148.976 155.271C148.552 155.007 148.216 154.639 147.968 154.167C147.728 153.687 147.608 153.127 147.608 152.487C147.608 151.847 147.728 151.291 147.968 150.819C148.208 150.347 148.544 149.983 148.976 149.727C149.416 149.463 149.92 149.331 150.488 149.331C151.072 149.331 151.564 149.463 151.964 149.727C152.372 149.991 152.68 150.335 152.888 150.759C153.104 151.183 153.212 151.647 153.212 152.151C153.212 152.231 153.212 152.315 153.212 152.403C153.212 152.483 153.208 152.579 153.2 152.691H148.244V151.983H152.396C152.38 151.367 152.188 150.891 151.82 150.555C151.46 150.219 151.004 150.051 150.452 150.051C150.092 150.051 149.756 150.135 149.444 150.303C149.14 150.463 148.892 150.703 148.7 151.023C148.516 151.335 148.424 151.731 148.424 152.211V152.523C148.424 153.067 148.52 153.519 148.712 153.879C148.904 154.239 149.156 154.507 149.468 154.683C149.788 154.859 150.12 154.947 150.464 154.947C150.92 154.947 151.296 154.847 151.592 154.647C151.888 154.439 152.1 154.155 152.228 153.795H153.056C152.952 154.147 152.784 154.467 152.552 154.755C152.328 155.043 152.04 155.267 151.688 155.427C151.336 155.587 150.928 155.667 150.464 155.667ZM154.586 155.523V146.883H155.426V155.523H154.586ZM157.129 155.523V146.883H157.969V155.523H157.129ZM164.909 155.667C164.421 155.667 164.013 155.579 163.685 155.403C163.365 155.227 163.125 154.999 162.965 154.719C162.813 154.439 162.737 154.131 162.737 153.795C162.737 153.379 162.841 153.027 163.049 152.739C163.265 152.451 163.565 152.235 163.949 152.091C164.333 151.947 164.781 151.875 165.293 151.875H166.925C166.925 151.483 166.865 151.151 166.745 150.879C166.625 150.607 166.449 150.403 166.217 150.267C165.985 150.123 165.693 150.051 165.341 150.051C164.933 150.051 164.581 150.155 164.285 150.363C163.989 150.571 163.805 150.875 163.733 151.275H162.857C162.905 150.851 163.049 150.495 163.289 150.207C163.537 149.919 163.841 149.703 164.201 149.559C164.561 149.407 164.941 149.331 165.341 149.331C165.901 149.331 166.357 149.439 166.709 149.655C167.061 149.863 167.325 150.151 167.501 150.519C167.677 150.887 167.765 151.311 167.765 151.791V155.523H166.997L166.949 154.419C166.877 154.587 166.777 154.747 166.649 154.899C166.529 155.051 166.385 155.183 166.217 155.295C166.057 155.407 165.869 155.495 165.653 155.559C165.437 155.631 165.189 155.667 164.909 155.667ZM165.005 154.935C165.301 154.935 165.565 154.875 165.797 154.755C166.037 154.627 166.241 154.463 166.409 154.263C166.577 154.063 166.705 153.839 166.793 153.591C166.881 153.335 166.925 153.071 166.925 152.799V152.583H165.353C164.929 152.583 164.589 152.635 164.333 152.739C164.077 152.843 163.893 152.983 163.781 153.159C163.669 153.335 163.613 153.539 163.613 153.771C163.613 154.003 163.665 154.207 163.769 154.383C163.873 154.551 164.029 154.687 164.237 154.791C164.453 154.887 164.709 154.935 165.005 154.935ZM59.492 173.667C58.908 173.667 58.396 173.531 57.956 173.259C57.524 172.979 57.188 172.599 56.948 172.119C56.708 171.639 56.588 171.095 56.588 170.487C56.588 169.879 56.708 169.339 56.948 168.867C57.188 168.387 57.528 168.011 57.968 167.739C58.408 167.467 58.92 167.331 59.504 167.331C60.016 167.331 60.464 167.443 60.848 167.667C61.24 167.883 61.54 168.191 61.748 168.591V164.883H62.588V173.523H61.82L61.748 172.431C61.62 172.639 61.452 172.839 61.244 173.031C61.044 173.223 60.796 173.379 60.5 173.499C60.212 173.611 59.876 173.667 59.492 173.667ZM59.564 172.935C59.988 172.935 60.356 172.835 60.668 172.635C60.988 172.435 61.236 172.151 61.412 171.783C61.596 171.415 61.688 170.987 61.688 170.499C61.688 170.011 61.596 169.583 61.412 169.215C61.236 168.847 60.988 168.563 60.668 168.363C60.356 168.163 59.988 168.063 59.564 168.063C59.148 168.063 58.78 168.163 58.46 168.363C58.14 168.563 57.888 168.847 57.704 169.215C57.528 169.575 57.44 170.003 57.44 170.499C57.44 170.995 57.532 171.427 57.716 171.795C57.9 172.155 58.152 172.435 58.472 172.635C58.792 172.835 59.156 172.935 59.564 172.935ZM66.2254 173.667C65.7374 173.667 65.3294 173.579 65.0014 173.403C64.6814 173.227 64.4414 172.999 64.2814 172.719C64.1294 172.439 64.0534 172.131 64.0534 171.795C64.0534 171.379 64.1574 171.027 64.3654 170.739C64.5814 170.451 64.8814 170.235 65.2654 170.091C65.6494 169.947 66.0974 169.875 66.6094 169.875H68.2414C68.2414 169.483 68.1814 169.151 68.0614 168.879C67.9414 168.607 67.7654 168.403 67.5334 168.267C67.3014 168.123 67.0094 168.051 66.6574 168.051C66.2494 168.051 65.8974 168.155 65.6014 168.363C65.3054 168.571 65.1214 168.875 65.0494 169.275H64.1734C64.2214 168.851 64.3654 168.495 64.6054 168.207C64.8534 167.919 65.1574 167.703 65.5174 167.559C65.8774 167.407 66.2574 167.331 66.6574 167.331C67.2174 167.331 67.6734 167.439 68.0254 167.655C68.3774 167.863 68.6414 168.151 68.8174 168.519C68.9934 168.887 69.0814 169.311 69.0814 169.791V173.523H68.3134L68.2654 172.419C68.1934 172.587 68.0934 172.747 67.9654 172.899C67.8454 173.051 67.7014 173.183 67.5334 173.295C67.3734 173.407 67.1854 173.495 66.9694 173.559C66.7534 173.631 66.5054 173.667 66.2254 173.667ZM66.3214 172.935C66.6174 172.935 66.8814 172.875 67.1134 172.755C67.3534 172.627 67.5574 172.463 67.7254 172.263C67.8934 172.063 68.0214 171.839 68.1094 171.591C68.1974 171.335 68.2414 171.071 68.2414 170.799V170.583H66.6694C66.2454 170.583 65.9054 170.635 65.6494 170.739C65.3934 170.843 65.2094 170.983 65.0974 171.159C64.9854 171.335 64.9294 171.539 64.9294 171.771C64.9294 172.003 64.9814 172.207 65.0854 172.383C65.1894 172.551 65.3454 172.687 65.5534 172.791C65.7694 172.887 66.0254 172.935 66.3214 172.935ZM72.7729 173.523C72.4289 173.523 72.1329 173.471 71.8849 173.367C71.6369 173.255 71.4449 173.075 71.3089 172.827C71.1809 172.571 71.1169 172.223 71.1169 171.783V168.195H70.0609V167.475H71.1169L71.2369 166.071H71.9569V167.487H73.7689V168.195H71.9569V171.783C71.9569 172.183 72.0369 172.455 72.1969 172.599C72.3569 172.735 72.6409 172.803 73.0489 172.803H73.6729V173.523H72.7729ZM77.0067 173.667C76.5187 173.667 76.1107 173.579 75.7827 173.403C75.4627 173.227 75.2227 172.999 75.0627 172.719C74.9107 172.439 74.8347 172.131 74.8347 171.795C74.8347 171.379 74.9387 171.027 75.1467 170.739C75.3627 170.451 75.6627 170.235 76.0467 170.091C76.4307 169.947 76.8787 169.875 77.3907 169.875H79.0227C79.0227 169.483 78.9627 169.151 78.8427 168.879C78.7227 168.607 78.5467 168.403 78.3147 168.267C78.0827 168.123 77.7907 168.051 77.4387 168.051C77.0307 168.051 76.6787 168.155 76.3827 168.363C76.0867 168.571 75.9027 168.875 75.8307 169.275H74.9547C75.0027 168.851 75.1467 168.495 75.3867 168.207C75.6347 167.919 75.9387 167.703 76.2987 167.559C76.6587 167.407 77.0387 167.331 77.4387 167.331C77.9987 167.331 78.4547 167.439 78.8067 167.655C79.1587 167.863 79.4227 168.151 79.5987 168.519C79.7747 168.887 79.8627 169.311 79.8627 169.791V173.523H79.0947L79.0467 172.419C78.9747 172.587 78.8747 172.747 78.7467 172.899C78.6267 173.051 78.4827 173.183 78.3147 173.295C78.1547 173.407 77.9667 173.495 77.7507 173.559C77.5347 173.631 77.2867 173.667 77.0067 173.667ZM77.1027 172.935C77.3987 172.935 77.6627 172.875 77.8947 172.755C78.1347 172.627 78.3387 172.463 78.5067 172.263C78.6747 172.063 78.8027 171.839 78.8907 171.591C78.9787 171.335 79.0227 171.071 79.0227 170.799V170.583H77.4507C77.0267 170.583 76.6867 170.635 76.4307 170.739C76.1747 170.843 75.9907 170.983 75.8787 171.159C75.7667 171.335 75.7107 171.539 75.7107 171.771C75.7107 172.003 75.7627 172.207 75.8667 172.383C75.9707 172.551 76.1267 172.687 76.3347 172.791C76.5507 172.887 76.8067 172.935 77.1027 172.935ZM83.6697 173.667C83.1897 173.667 82.7657 173.587 82.3977 173.427C82.0377 173.267 81.7457 173.039 81.5217 172.743C81.3057 172.439 81.1737 172.079 81.1257 171.663H81.9897C82.0377 171.895 82.1297 172.107 82.2657 172.299C82.4097 172.491 82.6017 172.647 82.8417 172.767C83.0817 172.879 83.3657 172.935 83.6937 172.935C83.9977 172.935 84.2457 172.891 84.4377 172.803C84.6377 172.707 84.7857 172.583 84.8817 172.431C84.9857 172.271 85.0377 172.095 85.0377 171.903C85.0377 171.639 84.9737 171.435 84.8457 171.291C84.7257 171.139 84.5497 171.027 84.3177 170.955C84.0857 170.883 83.8057 170.815 83.4777 170.751C83.2057 170.703 82.9457 170.639 82.6977 170.559C82.4497 170.479 82.2257 170.375 82.0257 170.247C81.8337 170.119 81.6817 169.959 81.5697 169.767C81.4577 169.567 81.4017 169.335 81.4017 169.071C81.4017 168.727 81.4857 168.427 81.6537 168.171C81.8297 167.907 82.0777 167.703 82.3977 167.559C82.7177 167.407 83.0937 167.331 83.5257 167.331C84.1417 167.331 84.6457 167.487 85.0377 167.799C85.4297 168.103 85.6577 168.551 85.7217 169.143H84.8817C84.8497 168.815 84.7137 168.555 84.4737 168.363C84.2337 168.171 83.9097 168.075 83.5017 168.075C83.1017 168.075 82.7937 168.159 82.5777 168.327C82.3697 168.487 82.2657 168.707 82.2657 168.987C82.2657 169.163 82.3217 169.315 82.4337 169.443C82.5457 169.571 82.7097 169.683 82.9257 169.779C83.1497 169.867 83.4217 169.943 83.7417 170.007C84.1257 170.079 84.4777 170.175 84.7977 170.295C85.1257 170.407 85.3897 170.583 85.5897 170.823C85.7977 171.055 85.9017 171.387 85.9017 171.819C85.9097 172.179 85.8217 172.499 85.6377 172.779C85.4537 173.059 85.1937 173.279 84.8577 173.439C84.5217 173.591 84.1257 173.667 83.6697 173.667ZM89.9831 173.667C89.4231 173.667 88.9271 173.535 88.4951 173.271C88.0711 173.007 87.7351 172.639 87.4871 172.167C87.2471 171.687 87.1271 171.127 87.1271 170.487C87.1271 169.847 87.2471 169.291 87.4871 168.819C87.7271 168.347 88.0631 167.983 88.4951 167.727C88.9351 167.463 89.4391 167.331 90.0071 167.331C90.5911 167.331 91.0831 167.463 91.4831 167.727C91.8911 167.991 92.1991 168.335 92.4071 168.759C92.6231 169.183 92.7311 169.647 92.7311 170.151C92.7311 170.231 92.7311 170.315 92.7311 170.403C92.7311 170.483 92.7271 170.579 92.7191 170.691H87.7631V169.983H91.9151C91.8991 169.367 91.7071 168.891 91.3391 168.555C90.9791 168.219 90.5231 168.051 89.9711 168.051C89.6111 168.051 89.2751 168.135 88.9631 168.303C88.6591 168.463 88.4111 168.703 88.2191 169.023C88.0351 169.335 87.9431 169.731 87.9431 170.211V170.523C87.9431 171.067 88.0391 171.519 88.2311 171.879C88.4231 172.239 88.6751 172.507 88.9871 172.683C89.3071 172.859 89.6391 172.947 89.9831 172.947C90.4391 172.947 90.8151 172.847 91.1111 172.647C91.4071 172.439 91.6191 172.155 91.7471 171.795H92.5751C92.4711 172.147 92.3031 172.467 92.0711 172.755C91.8471 173.043 91.5591 173.267 91.2071 173.427C90.8551 173.587 90.4471 173.667 89.9831 173.667ZM96.1635 173.523C95.8195 173.523 95.5235 173.471 95.2755 173.367C95.0275 173.255 94.8355 173.075 94.6995 172.827C94.5715 172.571 94.5075 172.223 94.5075 171.783V168.195H93.4515V167.475H94.5075L94.6275 166.071H95.3475V167.487H97.1595V168.195H95.3475V171.783C95.3475 172.183 95.4275 172.455 95.5875 172.599C95.7475 172.735 96.0315 172.803 96.4395 172.803H97.0635V173.523H96.1635ZM101.77 173.523V167.475H102.538L102.598 168.387C102.782 168.051 103.038 167.791 103.366 167.607C103.694 167.423 104.058 167.331 104.458 167.331C104.754 167.331 105.03 167.375 105.286 167.463C105.542 167.551 105.766 167.683 105.958 167.859C106.158 168.035 106.314 168.263 106.426 168.543C106.626 168.167 106.906 167.871 107.266 167.655C107.634 167.439 108.026 167.331 108.442 167.331C108.906 167.331 109.306 167.423 109.642 167.607C109.986 167.791 110.254 168.071 110.446 168.447C110.638 168.823 110.734 169.299 110.734 169.875V173.523H109.894V169.971C109.894 169.331 109.762 168.855 109.498 168.543C109.234 168.223 108.866 168.063 108.394 168.063C108.074 168.063 107.782 168.151 107.518 168.327C107.254 168.495 107.046 168.743 106.894 169.071C106.742 169.391 106.666 169.791 106.666 170.271V173.523H105.826V169.971C105.826 169.331 105.694 168.855 105.43 168.543C105.174 168.223 104.81 168.063 104.338 168.063C104.01 168.063 103.714 168.151 103.45 168.327C103.194 168.495 102.99 168.747 102.838 169.083C102.686 169.411 102.61 169.819 102.61 170.307V173.523H101.77ZM114.909 173.667C114.349 173.667 113.853 173.535 113.421 173.271C112.997 173.007 112.661 172.639 112.413 172.167C112.173 171.687 112.053 171.127 112.053 170.487C112.053 169.847 112.173 169.291 112.413 168.819C112.653 168.347 112.989 167.983 113.421 167.727C113.861 167.463 114.365 167.331 114.933 167.331C115.517 167.331 116.009 167.463 116.409 167.727C116.817 167.991 117.125 168.335 117.333 168.759C117.549 169.183 117.657 169.647 117.657 170.151C117.657 170.231 117.657 170.315 117.657 170.403C117.657 170.483 117.653 170.579 117.645 170.691H112.689V169.983H116.841C116.825 169.367 116.633 168.891 116.265 168.555C115.905 168.219 115.449 168.051 114.897 168.051C114.537 168.051 114.201 168.135 113.889 168.303C113.585 168.463 113.337 168.703 113.145 169.023C112.961 169.335 112.869 169.731 112.869 170.211V170.523C112.869 171.067 112.965 171.519 113.157 171.879C113.349 172.239 113.601 172.507 113.913 172.683C114.233 172.859 114.565 172.947 114.909 172.947C115.365 172.947 115.741 172.847 116.037 172.647C116.333 172.439 116.545 172.155 116.673 171.795H117.501C117.397 172.147 117.229 172.467 116.997 172.755C116.773 173.043 116.485 173.267 116.133 173.427C115.781 173.587 115.373 173.667 114.909 173.667ZM121.624 173.667C121.064 173.667 120.568 173.535 120.136 173.271C119.712 173.007 119.376 172.639 119.128 172.167C118.888 171.687 118.768 171.127 118.768 170.487C118.768 169.847 118.888 169.291 119.128 168.819C119.368 168.347 119.704 167.983 120.136 167.727C120.576 167.463 121.08 167.331 121.648 167.331C122.232 167.331 122.724 167.463 123.124 167.727C123.532 167.991 123.84 168.335 124.048 168.759C124.264 169.183 124.372 169.647 124.372 170.151C124.372 170.231 124.372 170.315 124.372 170.403C124.372 170.483 124.368 170.579 124.36 170.691H119.404V169.983H123.556C123.54 169.367 123.348 168.891 122.98 168.555C122.62 168.219 122.164 168.051 121.612 168.051C121.252 168.051 120.916 168.135 120.604 168.303C120.3 168.463 120.052 168.703 119.86 169.023C119.676 169.335 119.584 169.731 119.584 170.211V170.523C119.584 171.067 119.68 171.519 119.872 171.879C120.064 172.239 120.316 172.507 120.628 172.683C120.948 172.859 121.28 172.947 121.624 172.947C122.08 172.947 122.456 172.847 122.752 172.647C123.048 172.439 123.26 172.155 123.388 171.795H124.216C124.112 172.147 123.944 172.467 123.712 172.755C123.488 173.043 123.2 173.267 122.848 173.427C122.496 173.587 122.088 173.667 121.624 173.667ZM127.804 173.523C127.46 173.523 127.164 173.471 126.916 173.367C126.668 173.255 126.476 173.075 126.34 172.827C126.212 172.571 126.148 172.223 126.148 171.783V168.195H125.092V167.475H126.148L126.268 166.071H126.988V167.487H128.8V168.195H126.988V171.783C126.988 172.183 127.068 172.455 127.228 172.599C127.388 172.735 127.672 172.803 128.08 172.803H128.704V173.523H127.804ZM132.326 173.667C131.846 173.667 131.422 173.587 131.054 173.427C130.694 173.267 130.402 173.039 130.178 172.743C129.962 172.439 129.83 172.079 129.782 171.663H130.646C130.694 171.895 130.786 172.107 130.922 172.299C131.066 172.491 131.258 172.647 131.498 172.767C131.738 172.879 132.022 172.935 132.35 172.935C132.654 172.935 132.902 172.891 133.094 172.803C133.294 172.707 133.442 172.583 133.538 172.431C133.642 172.271 133.694 172.095 133.694 171.903C133.694 171.639 133.63 171.435 133.502 171.291C133.382 171.139 133.206 171.027 132.974 170.955C132.742 170.883 132.462 170.815 132.134 170.751C131.862 170.703 131.602 170.639 131.354 170.559C131.106 170.479 130.882 170.375 130.682 170.247C130.49 170.119 130.338 169.959 130.226 169.767C130.114 169.567 130.058 169.335 130.058 169.071C130.058 168.727 130.142 168.427 130.31 168.171C130.486 167.907 130.734 167.703 131.054 167.559C131.374 167.407 131.75 167.331 132.182 167.331C132.798 167.331 133.302 167.487 133.694 167.799C134.086 168.103 134.314 168.551 134.378 169.143H133.538C133.506 168.815 133.37 168.555 133.13 168.363C132.89 168.171 132.566 168.075 132.158 168.075C131.758 168.075 131.45 168.159 131.234 168.327C131.026 168.487 130.922 168.707 130.922 168.987C130.922 169.163 130.978 169.315 131.09 169.443C131.202 169.571 131.366 169.683 131.582 169.779C131.806 169.867 132.078 169.943 132.398 170.007C132.782 170.079 133.134 170.175 133.454 170.295C133.782 170.407 134.046 170.583 134.246 170.823C134.454 171.055 134.558 171.387 134.558 171.819C134.566 172.179 134.478 172.499 134.294 172.779C134.11 173.059 133.85 173.279 133.514 173.439C133.178 173.591 132.782 173.667 132.326 173.667ZM142.016 173.667C141.456 173.667 140.956 173.535 140.516 173.271C140.076 173.007 139.728 172.639 139.472 172.167C139.216 171.687 139.088 171.135 139.088 170.511C139.088 169.863 139.216 169.307 139.472 168.843C139.728 168.371 140.076 168.003 140.516 167.739C140.964 167.467 141.464 167.331 142.016 167.331C142.72 167.331 143.304 167.515 143.768 167.883C144.24 168.243 144.54 168.723 144.668 169.323H143.828C143.74 168.923 143.528 168.615 143.192 168.399C142.864 168.175 142.468 168.063 142.004 168.063C141.644 168.063 141.308 168.155 140.996 168.339C140.684 168.515 140.432 168.783 140.24 169.143C140.048 169.503 139.952 169.959 139.952 170.511C139.952 170.919 140.008 171.275 140.12 171.579C140.232 171.883 140.384 172.139 140.576 172.347C140.768 172.547 140.988 172.699 141.236 172.803C141.484 172.907 141.74 172.959 142.004 172.959C142.308 172.959 142.584 172.911 142.832 172.815C143.088 172.711 143.304 172.563 143.48 172.371C143.656 172.179 143.772 171.947 143.828 171.675H144.668C144.548 172.259 144.252 172.739 143.78 173.115C143.308 173.483 142.72 173.667 142.016 173.667ZM146.114 173.523V167.475H146.882L146.942 168.639C147.07 168.359 147.242 168.123 147.458 167.931C147.674 167.739 147.934 167.591 148.238 167.487C148.542 167.383 148.886 167.331 149.27 167.331V168.207H148.946C148.69 168.207 148.442 168.243 148.202 168.315C147.962 168.379 147.75 168.491 147.566 168.651C147.382 168.811 147.234 169.027 147.122 169.299C147.01 169.571 146.954 169.911 146.954 170.319V173.523H146.114ZM150.57 173.523V167.475H151.398V173.523H150.57ZM150.99 166.047C150.822 166.047 150.678 165.991 150.558 165.879C150.438 165.759 150.378 165.611 150.378 165.435C150.378 165.251 150.434 165.107 150.546 165.003C150.666 164.891 150.81 164.835 150.978 164.835C151.146 164.835 151.29 164.891 151.41 165.003C151.53 165.107 151.59 165.251 151.59 165.435C151.59 165.611 151.53 165.759 151.41 165.879C151.298 165.991 151.158 166.047 150.99 166.047ZM155.519 173.523C155.175 173.523 154.879 173.471 154.631 173.367C154.383 173.255 154.191 173.075 154.055 172.827C153.927 172.571 153.863 172.223 153.863 171.783V168.195H152.807V167.475H153.863L153.983 166.071H154.703V167.487H156.515V168.195H154.703V171.783C154.703 172.183 154.783 172.455 154.943 172.599C155.103 172.735 155.387 172.803 155.795 172.803H156.419V173.523H155.519ZM160.249 173.667C159.689 173.667 159.193 173.535 158.761 173.271C158.337 173.007 158.001 172.639 157.753 172.167C157.513 171.687 157.393 171.127 157.393 170.487C157.393 169.847 157.513 169.291 157.753 168.819C157.993 168.347 158.329 167.983 158.761 167.727C159.201 167.463 159.705 167.331 160.273 167.331C160.857 167.331 161.349 167.463 161.749 167.727C162.157 167.991 162.465 168.335 162.673 168.759C162.889 169.183 162.997 169.647 162.997 170.151C162.997 170.231 162.997 170.315 162.997 170.403C162.997 170.483 162.993 170.579 162.985 170.691H158.029V169.983H162.181C162.165 169.367 161.973 168.891 161.605 168.555C161.245 168.219 160.789 168.051 160.237 168.051C159.877 168.051 159.541 168.135 159.229 168.303C158.925 168.463 158.677 168.703 158.485 169.023C158.301 169.335 158.209 169.731 158.209 170.211V170.523C158.209 171.067 158.305 171.519 158.497 171.879C158.689 172.239 158.941 172.507 159.253 172.683C159.573 172.859 159.905 172.947 160.249 172.947C160.705 172.947 161.081 172.847 161.377 172.647C161.673 172.439 161.885 172.155 162.013 171.795H162.841C162.737 172.147 162.569 172.467 162.337 172.755C162.113 173.043 161.825 173.267 161.473 173.427C161.121 173.587 160.713 173.667 160.249 173.667ZM164.372 173.523V167.475H165.14L165.2 168.639C165.328 168.359 165.5 168.123 165.716 167.931C165.932 167.739 166.192 167.591 166.496 167.487C166.8 167.383 167.144 167.331 167.528 167.331V168.207H167.204C166.948 168.207 166.7 168.243 166.46 168.315C166.22 168.379 166.008 168.491 165.824 168.651C165.64 168.811 165.492 169.027 165.38 169.299C165.268 169.571 165.212 169.911 165.212 170.319V173.523H164.372ZM168.827 173.523V167.475H169.655V173.523H168.827ZM169.247 166.047C169.079 166.047 168.935 165.991 168.815 165.879C168.695 165.759 168.635 165.611 168.635 165.435C168.635 165.251 168.691 165.107 168.803 165.003C168.923 164.891 169.067 164.835 169.235 164.835C169.403 164.835 169.547 164.891 169.667 165.003C169.787 165.107 169.847 165.251 169.847 165.435C169.847 165.611 169.787 165.759 169.667 165.879C169.555 165.991 169.415 166.047 169.247 166.047ZM173.417 173.667C172.929 173.667 172.521 173.579 172.193 173.403C171.873 173.227 171.633 172.999 171.473 172.719C171.321 172.439 171.245 172.131 171.245 171.795C171.245 171.379 171.349 171.027 171.557 170.739C171.773 170.451 172.073 170.235 172.457 170.091C172.841 169.947 173.289 169.875 173.801 169.875H175.433C175.433 169.483 175.373 169.151 175.253 168.879C175.133 168.607 174.957 168.403 174.725 168.267C174.493 168.123 174.201 168.051 173.849 168.051C173.441 168.051 173.089 168.155 172.793 168.363C172.497 168.571 172.313 168.875 172.241 169.275H171.365C171.413 168.851 171.557 168.495 171.797 168.207C172.045 167.919 172.349 167.703 172.709 167.559C173.069 167.407 173.449 167.331 173.849 167.331C174.409 167.331 174.865 167.439 175.217 167.655C175.569 167.863 175.833 168.151 176.009 168.519C176.185 168.887 176.273 169.311 176.273 169.791V173.523H175.505L175.457 172.419C175.385 172.587 175.285 172.747 175.157 172.899C175.037 173.051 174.893 173.183 174.725 173.295C174.565 173.407 174.377 173.495 174.161 173.559C173.945 173.631 173.697 173.667 173.417 173.667ZM173.513 172.935C173.809 172.935 174.073 172.875 174.305 172.755C174.545 172.627 174.749 172.463 174.917 172.263C175.085 172.063 175.213 171.839 175.301 171.591C175.389 171.335 175.433 171.071 175.433 170.799V170.583H173.861C173.437 170.583 173.097 170.635 172.841 170.739C172.585 170.843 172.401 170.983 172.289 171.159C172.177 171.335 172.121 171.539 172.121 171.771C172.121 172.003 172.173 172.207 172.277 172.383C172.381 172.551 172.537 172.687 172.745 172.791C172.961 172.887 173.217 172.935 173.513 172.935ZM181.525 173.523V166.431C181.525 166.079 181.581 165.791 181.693 165.567C181.813 165.335 181.989 165.163 182.221 165.051C182.453 164.939 182.745 164.883 183.097 164.883H183.781V165.603H183.241C182.921 165.603 182.693 165.667 182.557 165.795C182.429 165.923 182.365 166.147 182.365 166.467V173.523H181.525ZM180.589 168.195V167.475H183.937V168.195H180.589ZM187.59 173.667C187.038 173.667 186.538 173.539 186.09 173.283C185.65 173.019 185.302 172.651 185.046 172.179C184.79 171.699 184.662 171.143 184.662 170.511C184.662 169.855 184.79 169.291 185.046 168.819C185.31 168.347 185.666 167.983 186.114 167.727C186.562 167.463 187.062 167.331 187.614 167.331C188.19 167.331 188.698 167.463 189.138 167.727C189.578 167.983 189.926 168.347 190.182 168.819C190.438 169.291 190.566 169.855 190.566 170.511C190.566 171.143 190.434 171.699 190.17 172.179C189.914 172.651 189.562 173.019 189.114 173.283C188.674 173.539 188.166 173.667 187.59 173.667ZM187.602 172.947C187.978 172.947 188.322 172.855 188.634 172.671C188.954 172.487 189.21 172.215 189.402 171.855C189.602 171.487 189.702 171.035 189.702 170.499C189.702 169.955 189.606 169.503 189.414 169.143C189.222 168.783 188.966 168.515 188.646 168.339C188.334 168.155 187.99 168.063 187.614 168.063C187.254 168.063 186.914 168.155 186.594 168.339C186.274 168.523 186.014 168.795 185.814 169.155C185.622 169.507 185.526 169.955 185.526 170.499C185.526 171.035 185.622 171.487 185.814 171.855C186.006 172.215 186.258 172.487 186.57 172.671C186.89 172.855 187.234 172.947 187.602 172.947ZM192.004 173.523V167.475H192.772L192.832 168.639C192.96 168.359 193.132 168.123 193.348 167.931C193.564 167.739 193.824 167.591 194.128 167.487C194.432 167.383 194.776 167.331 195.16 167.331V168.207H194.836C194.58 168.207 194.332 168.243 194.092 168.315C193.852 168.379 193.64 168.491 193.456 168.651C193.272 168.811 193.124 169.027 193.012 169.299C192.9 169.571 192.844 169.911 192.844 170.319V173.523H192.004Z" fill="black"/>
<circle cx="189" cy="102.523" r="13" fill="#FFA502"/>
<path d="M189 96.5234L190.485 101.039L195 102.523L190.485 104.008L189 108.523L187.515 104.008L183 102.523L187.515 101.039L189 96.5234Z" fill="#414141"/>
<path d="M405.525 380.602L407.505 386.622L413.525 388.602L407.505 390.581L405.525 396.602L403.545 390.581L397.525 388.602L403.545 386.622L405.525 380.602Z" fill="#414141"/>
<path d="M391.363 197.906L393.343 203.926L399.363 205.906L393.343 207.886L391.363 213.906L389.383 207.886L383.363 205.906L389.383 203.926L391.363 197.906Z" fill="#414141"/>
<path d="M235.5 372.602L237.48 378.622L243.5 380.602L237.48 382.581L235.5 388.602L233.52 382.581L227.5 380.602L233.52 378.622L235.5 372.602Z" fill="#414141"/>
<path d="M210 244L211.237 247.763L215 249L211.237 250.237L210 254L208.763 250.237L205 249L208.763 247.763L210 244Z" fill="#414141"/>
<path d="M391.214 255.458C361.21 255.458 329.018 227.017 316.673 212.796C304.151 227.017 271.899 255.458 243.069 255.458C240.137 283.412 250.755 349.175 316.673 388.601C380.432 351.471 392.933 284.368 391.214 255.458Z" stroke="#191F25" stroke-width="1.5"/>
<path d="M404.664 247.26C369.223 247.26 331.197 213.665 316.614 196.867C301.823 213.665 263.727 247.26 229.671 247.26C226.209 280.28 238.75 357.961 316.614 404.531C391.927 360.673 406.694 281.41 404.664 247.26Z" stroke="#191F25" stroke-width="1.5"/>
<rect x="286.405" y="283.892" width="61.1897" height="45.0775" rx="2.25" stroke="#191F25" stroke-width="1.5"/>
<path d="M301.48 278.153C301.48 269.582 308.429 262.634 317 262.634C325.571 262.634 332.519 269.582 332.519 278.153V283.853H301.48V278.153Z" stroke="#191F25" stroke-width="1.5"/>
<circle cx="317" cy="305.568" r="4.46304" fill="#FF6348" stroke="black" stroke-width="1.5"/>
<path d="M317 310.78L317 321.379" stroke="black" stroke-width="1.5" stroke-linecap="round"/>
<defs>
<filter id="filter0_d_131_19579" x="16" y="82.5234" width="229" height="136" filterUnits="userSpaceOnUse" color-interpolation-filters="sRGB">
<feFlood flood-opacity="0" result="BackgroundImageFix"/>
<feColorMatrix in="SourceAlpha" type="matrix" values="0 0 0 0 0 0 0 0 0 0 0 0 0 0 0 0 0 0 127 0" result="hardAlpha"/>
<feOffset/>
<feGaussianBlur stdDeviation="10"/>
<feComposite in2="hardAlpha" operator="out"/>
<feColorMatrix type="matrix" values="0 0 0 0 0 0 0 0 0 0 0 0 0 0 0 0 0 0 0.08 0"/>
<feBlend mode="normal" in2="BackgroundImageFix" result="effect1_dropShadow_131_19579"/>
<feBlend mode="normal" in="SourceGraphic" in2="effect1_dropShadow_131_19579" result="shape"/>
</filter>
</defs>
</svg>
