<svg width="148" height="53" viewBox="0 0 148 53" fill="none" xmlns="http://www.w3.org/2000/svg">
<path d="M12.6301 29.3955C8.44823 29.3955 6.83043 32.0145 6.83043 38.7666C6.83043 45.5186 8.27424 48.5039 11.9586 48.5039C14.1782 48.4549 16.2957 47.562 17.8803 46.007V30.7752C16.2576 29.8979 14.4443 29.4325 12.5996 29.4199L12.6301 29.3955ZM20.7802 52.7774C20.2338 52.7774 19.9285 52.3378 19.5775 51.6968C19.2716 51.0952 19.0468 50.4558 18.909 49.7951C16.4438 51.7968 13.3841 52.9241 10.2095 53.0002C4.16563 53.0002 0.533203 47.8721 0.533203 39.2947C0.533203 33.9528 1.73587 30.3815 4.16563 27.8785C5.13056 26.885 6.28999 26.1012 7.57149 25.576C8.85299 25.0507 10.229 24.7954 11.6136 24.826C13.8191 24.8473 15.983 25.4292 17.9017 26.5171V14.5514C17.9017 14.005 18.0238 13.7914 18.5732 13.6845L22.9383 12.8634C23.1384 12.8175 23.3435 12.797 23.5487 12.8024C23.915 12.8024 24.0341 12.9702 24.0341 13.5624V44.3923C23.7938 46.2265 24.1822 48.088 25.136 49.673C25.3161 49.9783 25.6214 50.2591 25.6214 50.5399C25.6214 50.8207 25.5603 50.8146 25.2551 50.9184L21.3784 52.5484C21.2095 52.6365 21.0186 52.6737 20.829 52.6553L20.7802 52.7774Z" fill="black"/>
<path d="M44.3164 30.4007H44.1943C43.4723 30.1401 42.7147 29.9909 41.9477 29.9581C40.5619 29.9581 39.0418 30.7823 36.6059 33.2853V51.4169C36.6059 52.119 36.5449 52.18 35.7543 52.18H31.4198C30.6903 52.18 30.5041 52.0732 30.5041 51.4169V34.9336C30.6997 32.5988 30.2852 30.2531 29.3014 28.1267C29.1182 27.8214 28.752 27.3635 28.752 27.0461C28.752 26.7286 28.813 26.6645 29.1793 26.4966L32.8728 24.9704C33.0497 24.9084 33.2349 24.8734 33.4222 24.8666C34.2036 24.8666 34.457 25.7824 34.8691 26.6035C35.3012 27.4214 35.6098 28.2989 35.7848 29.2072C37.9612 26.985 39.8446 24.8117 43.3549 24.8117C44.3376 24.7782 45.3141 24.9802 46.2029 25.4008C46.5081 25.5687 46.6302 25.7061 46.6302 25.9472C46.6111 26.0999 46.57 26.249 46.5081 26.3898L44.9422 29.8696C44.698 30.3122 44.5759 30.416 44.3317 30.416L44.3164 30.4007Z" fill="black"/>
<path d="M72.7028 50.9128C72.7028 51.0806 72.5807 51.218 72.2755 51.3554L68.3988 52.6649C68.2408 52.7189 68.0768 52.7538 67.9104 52.7686C67.361 52.7686 67.0588 52.3901 66.7688 51.9018C66.3741 51.1958 66.0666 50.4445 65.8531 49.6643C63.4844 51.7897 60.3964 52.9354 57.2146 52.8694C50.5603 52.8694 48.5762 49.4506 48.5762 43.9562V26.5877C48.5762 26.0383 48.7593 25.8856 49.3607 25.7635L53.6036 24.8478C53.7819 24.8016 53.9659 24.781 54.15 24.7868C54.5163 24.7868 54.7605 24.9577 54.7605 25.4888V42.6742C54.7605 46.856 55.7372 48.2907 58.7592 48.2907C61.0606 48.2051 63.27 47.3653 65.0472 45.9006V26.6091C65.0472 26.0627 65.2304 25.9101 65.8317 25.788L70.0746 24.8722C70.2752 24.8213 70.4792 24.7856 70.6851 24.7654C70.9904 24.7654 71.1705 24.9363 71.1705 25.5285V45.0032C71.0029 46.9111 71.4697 48.821 72.4983 50.4366C72.6258 50.5703 72.7099 50.7395 72.7394 50.9219L72.7028 50.9128Z" fill="black"/>
<path d="M88.8802 52.7462H85.2478C84.6373 52.7462 84.5793 52.7462 84.3321 52.1571L74.2895 26.8827C74.1868 26.6791 74.1255 26.457 74.1094 26.2295C74.1094 26.0158 74.2895 25.851 74.8389 25.7869L79.4481 25.1489H79.7534C80.1777 25.1489 80.3639 25.3168 80.5348 25.7381L85.7545 40.8172C86.3764 42.6911 86.8991 44.5964 87.3204 46.5253C87.753 44.6011 88.3024 42.7051 88.9657 40.8477L94.6433 25.7381C94.8264 25.2954 95.0096 25.152 95.3728 25.152C95.736 25.152 95.6781 25.213 95.9223 25.213L99.7989 25.8663C100.284 25.97 100.467 26.0799 100.467 26.3089C100.443 26.5353 100.381 26.7561 100.284 26.9621L89.8753 52.1754C89.6922 52.6516 89.5762 52.7615 88.8985 52.7615L88.8802 52.7462Z" fill="black"/>
<path d="M106.586 44.5047C106.57 45.0283 106.657 45.55 106.844 46.0397C107.03 46.5293 107.312 46.9772 107.672 47.3575C108.033 47.7377 108.465 48.0429 108.944 48.2553C109.423 48.4677 109.939 48.5831 110.463 48.5949H110.686C112.855 48.4689 114.9 47.5409 116.424 45.9912V39.52C112.609 39.581 106.565 39.7947 106.565 44.526L106.586 44.5047ZM124.016 50.6096C124.012 50.697 123.98 50.781 123.925 50.8491C123.87 50.9172 123.795 50.966 123.71 50.9881L120.017 52.6181C119.828 52.7177 119.62 52.775 119.406 52.786C118.979 52.786 118.677 52.4807 118.372 51.9191C117.924 51.1527 117.576 50.332 117.337 49.4771C116.269 50.5437 114.997 51.383 113.596 51.9444C112.195 52.5057 110.695 52.7775 109.187 52.7432C103.967 52.7432 100.609 49.6908 100.609 44.8984C100.609 36.7484 109.309 35.5884 116.482 35.5274V33.8058C116.482 30.4786 115.283 29.2881 111.69 29.2881C109.281 29.3633 106.908 29.8979 104.7 30.8632C104.522 30.9245 104.337 30.9605 104.15 30.9701C104.03 30.9733 103.912 30.938 103.813 30.8694C103.714 30.8007 103.64 30.7023 103.601 30.5885L102.651 27.9267C102.583 27.7731 102.542 27.609 102.529 27.4414C102.529 26.7393 103.262 26.5257 103.732 26.3608C106.502 25.3127 109.439 24.7759 112.401 24.7766C119.055 24.7766 122.383 27.2186 122.383 32.9877V43.6408C122.208 45.8745 122.712 48.109 123.829 50.051C123.918 50.2239 123.979 50.4091 124.013 50.6004L124.016 50.6096Z" fill="black"/>
<path d="M136.194 11.0496L136.805 12.0264C137.519 13.1659 138.073 14.3985 138.45 15.6894C138.694 16.5803 138.847 17.4935 138.908 18.4152C138.932 18.8921 138.932 19.3699 138.908 19.8468C138.767 21.7338 138.505 23.6099 138.124 25.4634C138.612 25.2039 139.067 24.9902 139.509 24.7185C140.464 24.1542 141.362 23.4978 142.189 22.7589C142.972 22.0203 143.682 21.2076 144.308 20.3322C145.007 19.3182 145.599 18.2337 146.072 17.0966C146.475 16.1937 146.826 15.2682 147.122 14.3249C147.153 14.2211 147.183 14.096 147.214 13.9922C143.929 11.9028 140.084 10.8666 136.194 11.0222V11.0496ZM122.703 20.3902C122.702 20.4364 122.707 20.4826 122.718 20.5275C122.901 20.9549 123.069 21.3944 123.267 21.8065C123.746 22.7769 124.333 23.6903 125.016 24.5293C125.59 25.2248 126.226 25.8674 126.915 26.4493L127.388 26.8156C128.385 27.5129 129.448 28.11 130.563 28.5982C131.314 28.934 132.089 29.2423 132.846 29.514C133.455 29.749 134.075 29.9528 134.705 30.1245C134.782 30.0061 134.854 29.8839 134.918 29.7582L135.587 28.4181C136.046 27.491 136.433 26.5297 136.744 25.5427C137.033 24.5973 137.242 23.6293 137.37 22.649C137.461 22.0599 137.537 21.1716 137.553 20.79C137.595 20.1215 137.553 19.45 137.553 18.7785V18.4732C131.326 20.8022 126.808 21.3028 122.657 20.3902H122.703ZM117.819 17.1546L118.64 17.5972C119.308 17.9299 119.995 18.2809 120.679 18.5862C121.1 18.7785 121.532 18.9457 121.973 19.0868C123.294 19.5155 124.675 19.7318 126.063 19.7278C126.475 19.7278 126.884 19.6973 127.312 19.6667C127.982 19.6195 128.648 19.5338 129.308 19.4103L129.003 18.8609C128.835 18.5098 128.667 18.1436 128.499 17.7803C128.191 17.1195 127.929 16.4382 127.715 15.7413C127.477 15.0124 127.281 14.2704 127.129 13.5191C126.991 12.8628 126.945 12.1913 126.869 11.538C126.834 11.0616 126.828 10.5835 126.854 10.1064C126.869 9.63635 126.884 9.16322 126.93 8.69314C126.976 8.22306 126.961 8.17422 126.991 7.90866C127.068 7.32259 127.174 6.75178 127.266 6.17181C127.358 5.59184 127.431 5.39038 127.507 5.01493C127.522 4.92335 127.541 4.83178 127.553 4.70968C126.843 5.09355 126.157 5.52068 125.499 5.98866C124.704 6.55278 123.956 7.17951 123.261 7.86287C122.711 8.38927 122.188 8.94351 121.695 9.52341C120.969 10.4144 120.346 11.3852 119.839 12.4171C119.488 13.1009 119.168 13.803 118.85 14.502C118.457 15.366 118.111 16.2505 117.812 17.1515L117.819 17.1546ZM131.31 0.701801C132.33 1.03757 133.334 1.38555 134.308 1.8129C135.564 2.33034 136.77 2.96286 137.91 3.70237C138.533 4.13474 139.114 4.62424 139.647 5.1645C140.543 6.07047 141.325 7.08218 141.976 8.17727C142.456 8.99286 142.865 9.84875 143.197 10.7352C138.261 9.36125 132.984 9.96227 128.484 12.411C128.37 11.6022 128.319 10.7858 128.331 9.96907C128.347 9.37994 128.362 8.81219 128.408 8.23222C128.448 7.6347 128.519 7.03969 128.621 6.44958C128.787 5.58418 129.038 4.73749 129.372 3.92215C129.642 3.24203 129.948 2.57668 130.288 1.92889C130.517 1.48628 130.792 1.06199 131.033 0.619385L131.323 0.695696L131.31 0.701801Z" fill="#F99E29"/>
</svg>
