<svg width="60" height="60" viewBox="0 0 60 60" fill="none" xmlns="http://www.w3.org/2000/svg">
<path d="M22.5 55H37.5C50 55 55 50 55 37.5V22.5C55 10 50 5 37.5 5H22.5C10 5 5 10 5 22.5V37.5C5 50 10 55 22.5 55Z" stroke="#292D32" stroke-width="2" stroke-linecap="round" stroke-linejoin="round"/>
<path d="M38.75 24.375C40.8211 24.375 42.5 22.6961 42.5 20.625C42.5 18.5539 40.8211 16.875 38.75 16.875C36.6789 16.875 35 18.5539 35 20.625C35 22.6961 36.6789 24.375 38.75 24.375Z" stroke="#292D32" stroke-width="2" stroke-miterlimit="10" stroke-linecap="round" stroke-linejoin="round"/>
<path d="M21.25 24.375C23.3211 24.375 25 22.6961 25 20.625C25 18.5539 23.3211 16.875 21.25 16.875C19.1789 16.875 17.5 18.5539 17.5 20.625C17.5 22.6961 19.1789 24.375 21.25 24.375Z" stroke="#292D32" stroke-width="2" stroke-miterlimit="10" stroke-linecap="round" stroke-linejoin="round"/>
<path d="M21 33.252H39C40.25 33.252 41.25 34.252 41.25 35.502C41.25 41.727 36.225 46.752 30 46.752C23.775 46.752 18.75 41.727 18.75 35.502C18.75 34.252 19.75 33.252 21 33.252Z" stroke="#292D32" stroke-width="2" stroke-miterlimit="10" stroke-linecap="round" stroke-linejoin="round"/>
</svg>
