<svg width="60" height="60" viewBox="0 0 60 60" fill="none" xmlns="http://www.w3.org/2000/svg">
<path d="M55 50.175V30.45C55 16.45 43.75 5 30 5C16.25 5 5 16.45 5 30.45V50.175C5 53.325 6.87496 54.175 9.17496 52.075L11.675 49.8C12.6 48.95 14.1 48.95 15.025 49.8L20.025 54.375C20.95 55.225 22.4499 55.225 23.3749 54.375L28.3749 49.8C29.2999 48.95 30.8 48.95 31.725 49.8L36.725 54.375C37.65 55.225 39.1501 55.225 40.0751 54.375L45.0751 49.8C46.0001 48.95 47.5 48.95 48.425 49.8L50.925 52.075C53.125 54.175 55 53.325 55 50.175Z" stroke="#292D32" stroke-width="2" stroke-linecap="round" stroke-linejoin="round"/>
<path d="M20 35C25.925 39.45 34.075 39.45 40 35" stroke="#292D32" stroke-width="2" stroke-linecap="round" stroke-linejoin="round"/>
<path d="M30 27.5C32.7614 27.5 35 25.2614 35 22.5C35 19.7386 32.7614 17.5 30 17.5C27.2386 17.5 25 19.7386 25 22.5C25 25.2614 27.2386 27.5 30 27.5Z" stroke="#292D32" stroke-width="2" stroke-linecap="round" stroke-linejoin="round"/>
</svg>
