<svg width="522" height="456" viewBox="0 0 522 456" fill="none" xmlns="http://www.w3.org/2000/svg">
<rect x="35.5" y="0.5" width="486" height="455" rx="19.5" stroke="#D0D0D0"/>
<path d="M456.089 61.2809H459.179V68.4809C459.179 70.1609 460.089 70.5009 461.199 69.2409L468.769 60.6409C469.699 59.5909 469.309 58.7209 467.899 58.7209H464.809V51.5209C464.809 49.8409 463.899 49.5009 462.789 50.7609L455.219 59.3609C454.299 60.4209 454.689 61.2809 456.089 61.2809Z" fill="#FF6348"/>
<path d="M458.225 35.5773L445.75 40.2773C442.875 41.3523 440.525 44.7523 440.525 47.8023V66.3773C440.525 69.3273 442.475 73.2023 444.85 74.9773L455.6 83.0023C459.125 85.6523 464.925 85.6523 468.45 83.0023L479.2 74.9773C481.575 73.2023 483.525 69.3273 483.525 66.3773V47.8023C483.525 44.7273 481.175 41.3273 478.3 40.2523L465.825 35.5773C463.7 34.8023 460.3 34.8023 458.225 35.5773Z" stroke="#292D32" stroke-width="1.5" stroke-linecap="round" stroke-linejoin="round"/>
<path d="M382 85C395.807 85 407 73.8071 407 60C407 46.1929 395.807 35 382 35C368.193 35 357 46.1929 357 60C357 73.8071 368.193 85 382 85Z" stroke="#292D32" stroke-width="1.5" stroke-linecap="round" stroke-linejoin="round"/>
<path d="M375 36C370.125 50.6 370.125 69.4 375 84" stroke="#292D32" stroke-width="1.5" stroke-linecap="round" stroke-linejoin="round"/>
<path d="M389 36C393.875 50.6 393.875 69.4 389 84" stroke="#292D32" stroke-width="1.5" stroke-linecap="round" stroke-linejoin="round"/>
<path d="M358 67C372.6 71.875 391.4 71.375 406 66.5" stroke="#292D32" stroke-width="1.5" stroke-linecap="round" stroke-linejoin="round"/>
<path d="M358 53C372.6 48.125 391.4 48.1249 406 52.9999" stroke="#292D32" stroke-width="1.5" stroke-linecap="round" stroke-linejoin="round"/>
<path d="M185.333 337.344V358.212M203.667 344.87L189.333 359.581M211 363.344H190.333M203.667 382.16L188.667 366.765M185.333 389.344V368.475M167.333 382.16L182.333 366.765M160 363.344H181M167.333 344.87L182.333 360.265" stroke="black" stroke-width="2"/>
<circle cx="185" cy="363.344" r="6" fill="black"/>
<g filter="url(#filter0_d_131_6794)">
<rect x="71" y="102.523" width="189" height="96" rx="12" fill="white"/>
</g>
<path d="M91.852 134.523V126.123H94.564C95.54 126.123 96.344 126.295 96.976 126.639C97.616 126.983 98.088 127.471 98.392 128.103C98.704 128.727 98.86 129.471 98.86 130.335C98.86 131.183 98.704 131.923 98.392 132.555C98.088 133.179 97.616 133.663 96.976 134.007C96.344 134.351 95.54 134.523 94.564 134.523H91.852ZM93.292 133.299H94.492C95.22 133.299 95.792 133.183 96.208 132.951C96.632 132.711 96.932 132.371 97.108 131.931C97.292 131.483 97.384 130.951 97.384 130.335C97.384 129.711 97.292 129.179 97.108 128.739C96.932 128.291 96.632 127.947 96.208 127.707C95.792 127.459 95.22 127.335 94.492 127.335H93.292V133.299ZM102.234 134.667C101.738 134.667 101.326 134.583 100.998 134.415C100.67 134.247 100.426 134.023 100.266 133.743C100.106 133.463 100.026 133.159 100.026 132.831C100.026 132.447 100.122 132.115 100.314 131.835C100.514 131.555 100.806 131.339 101.19 131.187C101.574 131.027 102.046 130.947 102.606 130.947H104.13C104.13 130.627 104.086 130.363 103.998 130.155C103.91 129.939 103.774 129.779 103.59 129.675C103.406 129.571 103.17 129.519 102.882 129.519C102.554 129.519 102.274 129.595 102.042 129.747C101.81 129.891 101.666 130.115 101.61 130.419H100.194C100.242 129.987 100.386 129.619 100.626 129.315C100.866 129.003 101.182 128.763 101.574 128.595C101.974 128.419 102.41 128.331 102.882 128.331C103.45 128.331 103.934 128.431 104.334 128.631C104.734 128.823 105.038 129.103 105.246 129.471C105.462 129.831 105.57 130.267 105.57 130.779V134.523H104.346L104.202 133.551C104.122 133.711 104.018 133.859 103.89 133.995C103.77 134.131 103.63 134.251 103.47 134.355C103.31 134.451 103.126 134.527 102.918 134.583C102.718 134.639 102.49 134.667 102.234 134.667ZM102.558 133.527C102.79 133.527 102.994 133.487 103.17 133.407C103.354 133.319 103.51 133.199 103.638 133.047C103.774 132.887 103.878 132.711 103.95 132.519C104.022 132.327 104.07 132.123 104.094 131.907V131.883H102.762C102.482 131.883 102.25 131.919 102.066 131.991C101.882 132.055 101.75 132.151 101.67 132.279C101.59 132.407 101.55 132.555 101.55 132.723C101.55 132.891 101.59 133.035 101.67 133.155C101.75 133.275 101.866 133.367 102.018 133.431C102.17 133.495 102.35 133.527 102.558 133.527ZM109.643 134.523C109.235 134.523 108.879 134.459 108.575 134.331C108.279 134.203 108.047 133.991 107.879 133.695C107.711 133.399 107.627 132.999 107.627 132.495V129.687H106.595V128.475H107.627L107.795 126.879H109.067V128.475H110.711V129.687H109.067V132.495C109.067 132.799 109.131 133.011 109.259 133.131C109.395 133.243 109.619 133.299 109.931 133.299H110.675V134.523H109.643ZM114.082 134.667C113.586 134.667 113.174 134.583 112.846 134.415C112.518 134.247 112.274 134.023 112.114 133.743C111.954 133.463 111.874 133.159 111.874 132.831C111.874 132.447 111.97 132.115 112.162 131.835C112.362 131.555 112.654 131.339 113.038 131.187C113.422 131.027 113.894 130.947 114.454 130.947H115.978C115.978 130.627 115.934 130.363 115.846 130.155C115.758 129.939 115.622 129.779 115.438 129.675C115.254 129.571 115.018 129.519 114.73 129.519C114.402 129.519 114.122 129.595 113.89 129.747C113.658 129.891 113.514 130.115 113.458 130.419H112.042C112.09 129.987 112.234 129.619 112.474 129.315C112.714 129.003 113.03 128.763 113.422 128.595C113.822 128.419 114.258 128.331 114.73 128.331C115.298 128.331 115.782 128.431 116.182 128.631C116.582 128.823 116.886 129.103 117.094 129.471C117.31 129.831 117.418 130.267 117.418 130.779V134.523H116.194L116.05 133.551C115.97 133.711 115.866 133.859 115.738 133.995C115.618 134.131 115.478 134.251 115.318 134.355C115.158 134.451 114.974 134.527 114.766 134.583C114.566 134.639 114.338 134.667 114.082 134.667ZM114.406 133.527C114.638 133.527 114.842 133.487 115.018 133.407C115.202 133.319 115.358 133.199 115.486 133.047C115.622 132.887 115.726 132.711 115.798 132.519C115.87 132.327 115.918 132.123 115.942 131.907V131.883H114.61C114.33 131.883 114.098 131.919 113.914 131.991C113.73 132.055 113.598 132.151 113.518 132.279C113.438 132.407 113.398 132.555 113.398 132.723C113.398 132.891 113.438 133.035 113.518 133.155C113.598 133.275 113.714 133.367 113.866 133.431C114.018 133.495 114.198 133.527 114.406 133.527ZM125.594 134.667C124.802 134.667 124.106 134.487 123.506 134.127C122.914 133.767 122.454 133.267 122.126 132.627C121.798 131.979 121.634 131.223 121.634 130.359C121.634 129.503 121.802 128.747 122.138 128.091C122.474 127.427 122.954 126.911 123.578 126.543C124.21 126.167 124.958 125.979 125.822 125.979C126.798 125.979 127.606 126.215 128.246 126.687C128.894 127.151 129.314 127.799 129.506 128.631H127.886C127.766 128.215 127.53 127.891 127.178 127.659C126.826 127.427 126.37 127.311 125.81 127.311C125.242 127.311 124.754 127.435 124.346 127.683C123.946 127.923 123.638 128.275 123.422 128.739C123.214 129.195 123.11 129.739 123.11 130.371C123.11 131.003 123.214 131.547 123.422 132.003C123.638 132.459 123.942 132.807 124.334 133.047C124.726 133.279 125.186 133.395 125.714 133.395C126.498 133.395 127.09 133.175 127.49 132.735C127.89 132.295 128.126 131.723 128.198 131.019H126.026V129.927H129.65V134.523H128.33L128.21 133.371C128.026 133.643 127.814 133.879 127.574 134.079C127.334 134.271 127.05 134.419 126.722 134.523C126.402 134.619 126.026 134.667 125.594 134.667ZM133.976 134.667C133.4 134.667 132.88 134.535 132.416 134.271C131.96 133.999 131.6 133.627 131.336 133.155C131.08 132.675 130.952 132.127 130.952 131.511C130.952 130.879 131.084 130.327 131.348 129.855C131.612 129.375 131.972 129.003 132.428 128.739C132.892 128.467 133.412 128.331 133.988 128.331C134.564 128.331 135.08 128.467 135.536 128.739C136 129.003 136.36 129.371 136.616 129.843C136.88 130.315 137.012 130.867 137.012 131.499C137.012 132.131 136.88 132.683 136.616 133.155C136.352 133.627 135.988 133.999 135.524 134.271C135.068 134.535 134.552 134.667 133.976 134.667ZM133.976 133.431C134.264 133.431 134.524 133.359 134.756 133.215C134.996 133.071 135.188 132.855 135.332 132.567C135.476 132.279 135.548 131.923 135.548 131.499C135.548 131.075 135.476 130.723 135.332 130.443C135.196 130.155 135.008 129.939 134.768 129.795C134.536 129.651 134.276 129.579 133.988 129.579C133.708 129.579 133.448 129.651 133.208 129.795C132.968 129.939 132.776 130.155 132.632 130.443C132.488 130.723 132.416 131.075 132.416 131.499C132.416 131.923 132.488 132.279 132.632 132.567C132.776 132.855 132.964 133.071 133.196 133.215C133.436 133.359 133.696 133.431 133.976 133.431ZM139.784 134.523L137.552 128.475H139.064L140.66 133.155L142.256 128.475H143.744L141.512 134.523H139.784ZM147.312 134.667C146.712 134.667 146.184 134.539 145.728 134.283C145.272 134.019 144.916 133.651 144.66 133.179C144.404 132.707 144.276 132.163 144.276 131.547C144.276 130.907 144.4 130.347 144.648 129.867C144.904 129.387 145.26 129.011 145.716 128.739C146.18 128.467 146.716 128.331 147.324 128.331C147.916 128.331 148.432 128.463 148.872 128.727C149.312 128.991 149.652 129.347 149.892 129.795C150.132 130.235 150.252 130.731 150.252 131.283C150.252 131.363 150.252 131.451 150.252 131.547C150.252 131.643 150.244 131.743 150.228 131.847H145.308V130.923H148.8C148.784 130.483 148.636 130.139 148.356 129.891C148.076 129.635 147.728 129.507 147.312 129.507C147.016 129.507 146.744 129.575 146.496 129.711C146.248 129.847 146.052 130.051 145.908 130.323C145.764 130.587 145.692 130.923 145.692 131.331V131.679C145.692 132.055 145.76 132.379 145.896 132.651C146.04 132.923 146.232 133.131 146.472 133.275C146.72 133.411 146.996 133.479 147.3 133.479C147.636 133.479 147.912 133.407 148.128 133.263C148.352 133.119 148.516 132.927 148.62 132.687H150.084C149.972 133.063 149.788 133.403 149.532 133.707C149.276 134.003 148.96 134.239 148.584 134.415C148.208 134.583 147.784 134.667 147.312 134.667ZM151.581 134.523V128.475H152.865L152.997 129.603C153.141 129.339 153.321 129.115 153.537 128.931C153.753 128.739 154.005 128.591 154.293 128.487C154.589 128.383 154.913 128.331 155.265 128.331V129.855H154.761C154.521 129.855 154.293 129.887 154.077 129.951C153.861 130.007 153.673 130.103 153.513 130.239C153.361 130.367 153.241 130.547 153.153 130.779C153.065 131.003 153.021 131.287 153.021 131.631V134.523H151.581ZM156.351 134.523V128.475H157.623L157.731 129.483C157.915 129.131 158.179 128.851 158.523 128.643C158.867 128.435 159.275 128.331 159.747 128.331C160.235 128.331 160.651 128.435 160.995 128.643C161.339 128.843 161.603 129.139 161.787 129.531C161.979 129.923 162.075 130.411 162.075 130.995V134.523H160.635V131.127C160.635 130.623 160.523 130.235 160.299 129.963C160.075 129.691 159.743 129.555 159.303 129.555C159.015 129.555 158.755 129.623 158.523 129.759C158.299 129.895 158.119 130.095 157.983 130.359C157.855 130.615 157.791 130.927 157.791 131.295V134.523H156.351ZM165.609 134.667C165.113 134.667 164.701 134.583 164.373 134.415C164.045 134.247 163.801 134.023 163.641 133.743C163.481 133.463 163.401 133.159 163.401 132.831C163.401 132.447 163.497 132.115 163.689 131.835C163.889 131.555 164.181 131.339 164.565 131.187C164.949 131.027 165.421 130.947 165.981 130.947H167.505C167.505 130.627 167.461 130.363 167.373 130.155C167.285 129.939 167.149 129.779 166.965 129.675C166.781 129.571 166.545 129.519 166.257 129.519C165.929 129.519 165.649 129.595 165.417 129.747C165.185 129.891 165.041 130.115 164.985 130.419H163.569C163.617 129.987 163.761 129.619 164.001 129.315C164.241 129.003 164.557 128.763 164.949 128.595C165.349 128.419 165.785 128.331 166.257 128.331C166.825 128.331 167.309 128.431 167.709 128.631C168.109 128.823 168.413 129.103 168.621 129.471C168.837 129.831 168.945 130.267 168.945 130.779V134.523H167.721L167.577 133.551C167.497 133.711 167.393 133.859 167.265 133.995C167.145 134.131 167.005 134.251 166.845 134.355C166.685 134.451 166.501 134.527 166.293 134.583C166.093 134.639 165.865 134.667 165.609 134.667ZM165.933 133.527C166.165 133.527 166.369 133.487 166.545 133.407C166.729 133.319 166.885 133.199 167.013 133.047C167.149 132.887 167.253 132.711 167.325 132.519C167.397 132.327 167.445 132.123 167.469 131.907V131.883H166.137C165.857 131.883 165.625 131.919 165.441 131.991C165.257 132.055 165.125 132.151 165.045 132.279C164.965 132.407 164.925 132.555 164.925 132.723C164.925 132.891 164.965 133.035 165.045 133.155C165.125 133.275 165.241 133.367 165.393 133.431C165.545 133.495 165.725 133.527 165.933 133.527ZM170.484 134.523V128.475H171.756L171.864 129.483C172.048 129.131 172.312 128.851 172.656 128.643C173 128.435 173.408 128.331 173.88 128.331C174.368 128.331 174.784 128.435 175.128 128.643C175.472 128.843 175.736 129.139 175.92 129.531C176.112 129.923 176.208 130.411 176.208 130.995V134.523H174.768V131.127C174.768 130.623 174.656 130.235 174.432 129.963C174.208 129.691 173.876 129.555 173.436 129.555C173.148 129.555 172.888 129.623 172.656 129.759C172.432 129.895 172.252 130.095 172.116 130.359C171.988 130.615 171.924 130.927 171.924 131.295V134.523H170.484ZM180.594 134.667C180.002 134.667 179.47 134.535 178.998 134.271C178.534 133.999 178.17 133.627 177.906 133.155C177.65 132.675 177.522 132.131 177.522 131.523C177.522 130.891 177.65 130.339 177.906 129.867C178.17 129.387 178.534 129.011 178.998 128.739C179.47 128.467 180.006 128.331 180.606 128.331C181.358 128.331 181.99 128.531 182.502 128.931C183.014 129.323 183.342 129.863 183.486 130.551H181.974C181.894 130.247 181.726 130.007 181.47 129.831C181.222 129.655 180.926 129.567 180.582 129.567C180.286 129.567 180.014 129.643 179.766 129.795C179.526 129.947 179.334 130.167 179.19 130.455C179.054 130.743 178.986 131.091 178.986 131.499C178.986 131.811 179.026 132.087 179.106 132.327C179.186 132.567 179.298 132.771 179.442 132.939C179.594 133.099 179.766 133.223 179.958 133.311C180.15 133.399 180.358 133.443 180.582 133.443C180.814 133.443 181.022 133.407 181.206 133.335C181.398 133.255 181.558 133.139 181.686 132.987C181.822 132.835 181.918 132.655 181.974 132.447H183.486C183.342 133.119 183.014 133.659 182.502 134.067C181.99 134.467 181.354 134.667 180.594 134.667ZM187.706 134.667C187.106 134.667 186.578 134.539 186.122 134.283C185.666 134.019 185.31 133.651 185.054 133.179C184.798 132.707 184.67 132.163 184.67 131.547C184.67 130.907 184.794 130.347 185.042 129.867C185.298 129.387 185.654 129.011 186.11 128.739C186.574 128.467 187.11 128.331 187.718 128.331C188.31 128.331 188.826 128.463 189.266 128.727C189.706 128.991 190.046 129.347 190.286 129.795C190.526 130.235 190.646 130.731 190.646 131.283C190.646 131.363 190.646 131.451 190.646 131.547C190.646 131.643 190.638 131.743 190.622 131.847H185.702V130.923H189.194C189.178 130.483 189.03 130.139 188.75 129.891C188.47 129.635 188.122 129.507 187.706 129.507C187.41 129.507 187.138 129.575 186.89 129.711C186.642 129.847 186.446 130.051 186.302 130.323C186.158 130.587 186.086 130.923 186.086 131.331V131.679C186.086 132.055 186.154 132.379 186.29 132.651C186.434 132.923 186.626 133.131 186.866 133.275C187.114 133.411 187.39 133.479 187.694 133.479C188.03 133.479 188.306 133.407 188.522 133.263C188.746 133.119 188.91 132.927 189.014 132.687H190.478C190.366 133.063 190.182 133.403 189.926 133.707C189.67 134.003 189.354 134.239 188.978 134.415C188.602 134.583 188.178 134.667 187.706 134.667Z" fill="black"/>
<path d="M91.852 155.523V149.475H92.62L92.68 150.387C92.864 150.051 93.12 149.791 93.448 149.607C93.776 149.423 94.14 149.331 94.54 149.331C94.836 149.331 95.112 149.375 95.368 149.463C95.624 149.551 95.848 149.683 96.04 149.859C96.24 150.035 96.396 150.263 96.508 150.543C96.708 150.167 96.988 149.871 97.348 149.655C97.716 149.439 98.108 149.331 98.524 149.331C98.988 149.331 99.388 149.423 99.724 149.607C100.068 149.791 100.336 150.071 100.528 150.447C100.72 150.823 100.816 151.299 100.816 151.875V155.523H99.976V151.971C99.976 151.331 99.844 150.855 99.58 150.543C99.316 150.223 98.948 150.063 98.476 150.063C98.156 150.063 97.864 150.151 97.6 150.327C97.336 150.495 97.128 150.743 96.976 151.071C96.824 151.391 96.748 151.791 96.748 152.271V155.523H95.908V151.971C95.908 151.331 95.776 150.855 95.512 150.543C95.256 150.223 94.892 150.063 94.42 150.063C94.092 150.063 93.796 150.151 93.532 150.327C93.276 150.495 93.072 150.747 92.92 151.083C92.768 151.411 92.692 151.819 92.692 152.307V155.523H91.852ZM104.991 155.667C104.431 155.667 103.935 155.535 103.503 155.271C103.079 155.007 102.743 154.639 102.495 154.167C102.255 153.687 102.135 153.127 102.135 152.487C102.135 151.847 102.255 151.291 102.495 150.819C102.735 150.347 103.071 149.983 103.503 149.727C103.943 149.463 104.447 149.331 105.015 149.331C105.599 149.331 106.091 149.463 106.491 149.727C106.899 149.991 107.207 150.335 107.415 150.759C107.631 151.183 107.739 151.647 107.739 152.151C107.739 152.231 107.739 152.315 107.739 152.403C107.739 152.483 107.735 152.579 107.727 152.691H102.771V151.983H106.923C106.907 151.367 106.715 150.891 106.347 150.555C105.987 150.219 105.531 150.051 104.979 150.051C104.619 150.051 104.283 150.135 103.971 150.303C103.667 150.463 103.419 150.703 103.227 151.023C103.043 151.335 102.951 151.731 102.951 152.211V152.523C102.951 153.067 103.047 153.519 103.239 153.879C103.431 154.239 103.683 154.507 103.995 154.683C104.315 154.859 104.647 154.947 104.991 154.947C105.447 154.947 105.823 154.847 106.119 154.647C106.415 154.439 106.627 154.155 106.755 153.795H107.583C107.479 154.147 107.311 154.467 107.079 154.755C106.855 155.043 106.567 155.267 106.215 155.427C105.863 155.587 105.455 155.667 104.991 155.667ZM111.046 155.667C110.558 155.667 110.15 155.579 109.822 155.403C109.502 155.227 109.262 154.999 109.102 154.719C108.95 154.439 108.874 154.131 108.874 153.795C108.874 153.379 108.978 153.027 109.186 152.739C109.402 152.451 109.702 152.235 110.086 152.091C110.47 151.947 110.918 151.875 111.43 151.875H113.062C113.062 151.483 113.002 151.151 112.882 150.879C112.762 150.607 112.586 150.403 112.354 150.267C112.122 150.123 111.83 150.051 111.478 150.051C111.07 150.051 110.718 150.155 110.422 150.363C110.126 150.571 109.942 150.875 109.87 151.275H108.994C109.042 150.851 109.186 150.495 109.426 150.207C109.674 149.919 109.978 149.703 110.338 149.559C110.698 149.407 111.078 149.331 111.478 149.331C112.038 149.331 112.494 149.439 112.846 149.655C113.198 149.863 113.462 150.151 113.638 150.519C113.814 150.887 113.902 151.311 113.902 151.791V155.523H113.134L113.086 154.419C113.014 154.587 112.914 154.747 112.786 154.899C112.666 155.051 112.522 155.183 112.354 155.295C112.194 155.407 112.006 155.495 111.79 155.559C111.574 155.631 111.326 155.667 111.046 155.667ZM111.142 154.935C111.438 154.935 111.702 154.875 111.934 154.755C112.174 154.627 112.378 154.463 112.546 154.263C112.714 154.063 112.842 153.839 112.93 153.591C113.018 153.335 113.062 153.071 113.062 152.799V152.583H111.49C111.066 152.583 110.726 152.635 110.47 152.739C110.214 152.843 110.03 152.983 109.918 153.159C109.806 153.335 109.75 153.539 109.75 153.771C109.75 154.003 109.802 154.207 109.906 154.383C110.01 154.551 110.166 154.687 110.374 154.791C110.59 154.887 110.846 154.935 111.142 154.935ZM117.709 155.667C117.229 155.667 116.805 155.587 116.437 155.427C116.077 155.267 115.785 155.039 115.561 154.743C115.345 154.439 115.213 154.079 115.165 153.663H116.029C116.077 153.895 116.169 154.107 116.305 154.299C116.449 154.491 116.641 154.647 116.881 154.767C117.121 154.879 117.405 154.935 117.733 154.935C118.037 154.935 118.285 154.891 118.477 154.803C118.677 154.707 118.825 154.583 118.921 154.431C119.025 154.271 119.077 154.095 119.077 153.903C119.077 153.639 119.013 153.435 118.885 153.291C118.765 153.139 118.589 153.027 118.357 152.955C118.125 152.883 117.845 152.815 117.517 152.751C117.245 152.703 116.985 152.639 116.737 152.559C116.489 152.479 116.265 152.375 116.065 152.247C115.873 152.119 115.721 151.959 115.609 151.767C115.497 151.567 115.441 151.335 115.441 151.071C115.441 150.727 115.525 150.427 115.693 150.171C115.869 149.907 116.117 149.703 116.437 149.559C116.757 149.407 117.133 149.331 117.565 149.331C118.181 149.331 118.685 149.487 119.077 149.799C119.469 150.103 119.697 150.551 119.761 151.143H118.921C118.889 150.815 118.753 150.555 118.513 150.363C118.273 150.171 117.949 150.075 117.541 150.075C117.141 150.075 116.833 150.159 116.617 150.327C116.409 150.487 116.305 150.707 116.305 150.987C116.305 151.163 116.361 151.315 116.473 151.443C116.585 151.571 116.749 151.683 116.965 151.779C117.189 151.867 117.461 151.943 117.781 152.007C118.165 152.079 118.517 152.175 118.837 152.295C119.165 152.407 119.429 152.583 119.629 152.823C119.837 153.055 119.941 153.387 119.941 153.819C119.949 154.179 119.861 154.499 119.677 154.779C119.493 155.059 119.233 155.279 118.897 155.439C118.561 155.591 118.165 155.667 117.709 155.667ZM123.614 155.667C123.158 155.667 122.754 155.579 122.402 155.403C122.058 155.219 121.79 154.943 121.598 154.575C121.406 154.199 121.31 153.719 121.31 153.135V149.475H122.15V153.039C122.15 153.679 122.29 154.155 122.57 154.467C122.858 154.779 123.254 154.935 123.758 154.935C124.118 154.935 124.438 154.851 124.718 154.683C125.006 154.515 125.23 154.267 125.39 153.939C125.558 153.603 125.642 153.195 125.642 152.715V149.475H126.482V155.523H125.714L125.666 154.443C125.474 154.835 125.194 155.139 124.826 155.355C124.466 155.563 124.062 155.667 123.614 155.667ZM128.192 155.523V149.475H128.96L129.02 150.639C129.148 150.359 129.32 150.123 129.536 149.931C129.752 149.739 130.012 149.591 130.316 149.487C130.62 149.383 130.964 149.331 131.348 149.331V150.207H131.024C130.768 150.207 130.52 150.243 130.28 150.315C130.04 150.379 129.828 150.491 129.644 150.651C129.46 150.811 129.312 151.027 129.2 151.299C129.088 151.571 129.032 151.911 129.032 152.319V155.523H128.192ZM134.862 155.667C134.302 155.667 133.806 155.535 133.374 155.271C132.95 155.007 132.614 154.639 132.366 154.167C132.126 153.687 132.006 153.127 132.006 152.487C132.006 151.847 132.126 151.291 132.366 150.819C132.606 150.347 132.942 149.983 133.374 149.727C133.814 149.463 134.318 149.331 134.886 149.331C135.47 149.331 135.962 149.463 136.362 149.727C136.77 149.991 137.078 150.335 137.286 150.759C137.502 151.183 137.61 151.647 137.61 152.151C137.61 152.231 137.61 152.315 137.61 152.403C137.61 152.483 137.606 152.579 137.598 152.691H132.642V151.983H136.794C136.778 151.367 136.586 150.891 136.218 150.555C135.858 150.219 135.402 150.051 134.85 150.051C134.49 150.051 134.154 150.135 133.842 150.303C133.538 150.463 133.29 150.703 133.098 151.023C132.914 151.335 132.822 151.731 132.822 152.211V152.523C132.822 153.067 132.918 153.519 133.11 153.879C133.302 154.239 133.554 154.507 133.866 154.683C134.186 154.859 134.518 154.947 134.862 154.947C135.318 154.947 135.694 154.847 135.99 154.647C136.286 154.439 136.498 154.155 136.626 153.795H137.454C137.35 154.147 137.182 154.467 136.95 154.755C136.726 155.043 136.438 155.267 136.086 155.427C135.734 155.587 135.326 155.667 134.862 155.667ZM141.205 155.667C140.725 155.667 140.301 155.587 139.933 155.427C139.573 155.267 139.281 155.039 139.057 154.743C138.841 154.439 138.709 154.079 138.661 153.663H139.525C139.573 153.895 139.665 154.107 139.801 154.299C139.945 154.491 140.137 154.647 140.377 154.767C140.617 154.879 140.901 154.935 141.229 154.935C141.533 154.935 141.781 154.891 141.973 154.803C142.173 154.707 142.321 154.583 142.417 154.431C142.521 154.271 142.573 154.095 142.573 153.903C142.573 153.639 142.509 153.435 142.381 153.291C142.261 153.139 142.085 153.027 141.853 152.955C141.621 152.883 141.341 152.815 141.013 152.751C140.741 152.703 140.481 152.639 140.233 152.559C139.985 152.479 139.761 152.375 139.561 152.247C139.369 152.119 139.217 151.959 139.105 151.767C138.993 151.567 138.937 151.335 138.937 151.071C138.937 150.727 139.021 150.427 139.189 150.171C139.365 149.907 139.613 149.703 139.933 149.559C140.253 149.407 140.629 149.331 141.061 149.331C141.677 149.331 142.181 149.487 142.573 149.799C142.965 150.103 143.193 150.551 143.257 151.143H142.417C142.385 150.815 142.249 150.555 142.009 150.363C141.769 150.171 141.445 150.075 141.037 150.075C140.637 150.075 140.329 150.159 140.113 150.327C139.905 150.487 139.801 150.707 139.801 150.987C139.801 151.163 139.857 151.315 139.969 151.443C140.081 151.571 140.245 151.683 140.461 151.779C140.685 151.867 140.957 151.943 141.277 152.007C141.661 152.079 142.013 152.175 142.333 152.295C142.661 152.407 142.925 152.583 143.125 152.823C143.333 153.055 143.437 153.387 143.437 153.819C143.445 154.179 143.357 154.499 143.173 154.779C142.989 155.059 142.729 155.279 142.393 155.439C142.057 155.591 141.661 155.667 141.205 155.667ZM148.231 155.523V146.883H149.071V150.555C149.279 150.171 149.567 149.871 149.935 149.655C150.303 149.439 150.707 149.331 151.147 149.331C151.603 149.331 151.999 149.423 152.335 149.607C152.679 149.791 152.943 150.071 153.127 150.447C153.319 150.823 153.415 151.303 153.415 151.887V155.523H152.587V151.983C152.587 151.335 152.451 150.855 152.179 150.543C151.915 150.223 151.523 150.063 151.003 150.063C150.643 150.063 150.315 150.151 150.019 150.327C149.731 150.503 149.499 150.759 149.323 151.095C149.155 151.423 149.071 151.831 149.071 152.319V155.523H148.231ZM157.668 155.667C157.116 155.667 156.616 155.539 156.168 155.283C155.728 155.019 155.38 154.651 155.124 154.179C154.868 153.699 154.74 153.143 154.74 152.511C154.74 151.855 154.868 151.291 155.124 150.819C155.388 150.347 155.744 149.983 156.192 149.727C156.64 149.463 157.14 149.331 157.692 149.331C158.268 149.331 158.776 149.463 159.216 149.727C159.656 149.983 160.004 150.347 160.26 150.819C160.516 151.291 160.644 151.855 160.644 152.511C160.644 153.143 160.512 153.699 160.248 154.179C159.992 154.651 159.64 155.019 159.192 155.283C158.752 155.539 158.244 155.667 157.668 155.667ZM157.68 154.947C158.056 154.947 158.4 154.855 158.712 154.671C159.032 154.487 159.288 154.215 159.48 153.855C159.68 153.487 159.78 153.035 159.78 152.499C159.78 151.955 159.684 151.503 159.492 151.143C159.3 150.783 159.044 150.515 158.724 150.339C158.412 150.155 158.068 150.063 157.692 150.063C157.332 150.063 156.992 150.155 156.672 150.339C156.352 150.523 156.092 150.795 155.892 151.155C155.7 151.507 155.604 151.955 155.604 152.499C155.604 153.035 155.7 153.487 155.892 153.855C156.084 154.215 156.336 154.487 156.648 154.671C156.968 154.855 157.312 154.947 157.68 154.947ZM163.096 155.523L161.32 149.475H162.172L163.612 154.647H163.444L165.004 149.475H165.964L167.524 154.647H167.356L168.796 149.475H169.648L167.872 155.523H167.02L165.4 150.111H165.568L163.948 155.523H163.096ZM175.377 155.523L173.601 149.475H174.453L175.893 154.647H175.725L177.285 149.475H178.245L179.805 154.647H179.637L181.077 149.475H181.929L180.153 155.523H179.301L177.681 150.111H177.849L176.229 155.523H175.377ZM185.464 155.667C184.904 155.667 184.408 155.535 183.976 155.271C183.552 155.007 183.216 154.639 182.968 154.167C182.728 153.687 182.608 153.127 182.608 152.487C182.608 151.847 182.728 151.291 182.968 150.819C183.208 150.347 183.544 149.983 183.976 149.727C184.416 149.463 184.92 149.331 185.488 149.331C186.072 149.331 186.564 149.463 186.964 149.727C187.372 149.991 187.68 150.335 187.888 150.759C188.104 151.183 188.212 151.647 188.212 152.151C188.212 152.231 188.212 152.315 188.212 152.403C188.212 152.483 188.208 152.579 188.2 152.691H183.244V151.983H187.396C187.38 151.367 187.188 150.891 186.82 150.555C186.46 150.219 186.004 150.051 185.452 150.051C185.092 150.051 184.756 150.135 184.444 150.303C184.14 150.463 183.892 150.703 183.7 151.023C183.516 151.335 183.424 151.731 183.424 152.211V152.523C183.424 153.067 183.52 153.519 183.712 153.879C183.904 154.239 184.156 154.507 184.468 154.683C184.788 154.859 185.12 154.947 185.464 154.947C185.92 154.947 186.296 154.847 186.592 154.647C186.888 154.439 187.1 154.155 187.228 153.795H188.056C187.952 154.147 187.784 154.467 187.552 154.755C187.328 155.043 187.04 155.267 186.688 155.427C186.336 155.587 185.928 155.667 185.464 155.667ZM189.586 155.523V146.883H190.426V155.523H189.586ZM192.129 155.523V146.883H192.969V155.523H192.129ZM199.909 155.667C199.421 155.667 199.013 155.579 198.685 155.403C198.365 155.227 198.125 154.999 197.965 154.719C197.813 154.439 197.737 154.131 197.737 153.795C197.737 153.379 197.841 153.027 198.049 152.739C198.265 152.451 198.565 152.235 198.949 152.091C199.333 151.947 199.781 151.875 200.293 151.875H201.925C201.925 151.483 201.865 151.151 201.745 150.879C201.625 150.607 201.449 150.403 201.217 150.267C200.985 150.123 200.693 150.051 200.341 150.051C199.933 150.051 199.581 150.155 199.285 150.363C198.989 150.571 198.805 150.875 198.733 151.275H197.857C197.905 150.851 198.049 150.495 198.289 150.207C198.537 149.919 198.841 149.703 199.201 149.559C199.561 149.407 199.941 149.331 200.341 149.331C200.901 149.331 201.357 149.439 201.709 149.655C202.061 149.863 202.325 150.151 202.501 150.519C202.677 150.887 202.765 151.311 202.765 151.791V155.523H201.997L201.949 154.419C201.877 154.587 201.777 154.747 201.649 154.899C201.529 155.051 201.385 155.183 201.217 155.295C201.057 155.407 200.869 155.495 200.653 155.559C200.437 155.631 200.189 155.667 199.909 155.667ZM200.005 154.935C200.301 154.935 200.565 154.875 200.797 154.755C201.037 154.627 201.241 154.463 201.409 154.263C201.577 154.063 201.705 153.839 201.793 153.591C201.881 153.335 201.925 153.071 201.925 152.799V152.583H200.353C199.929 152.583 199.589 152.635 199.333 152.739C199.077 152.843 198.893 152.983 198.781 153.159C198.669 153.335 198.613 153.539 198.613 153.771C198.613 154.003 198.665 154.207 198.769 154.383C198.873 154.551 199.029 154.687 199.237 154.791C199.453 154.887 199.709 154.935 200.005 154.935ZM94.492 173.667C93.908 173.667 93.396 173.531 92.956 173.259C92.524 172.979 92.188 172.599 91.948 172.119C91.708 171.639 91.588 171.095 91.588 170.487C91.588 169.879 91.708 169.339 91.948 168.867C92.188 168.387 92.528 168.011 92.968 167.739C93.408 167.467 93.92 167.331 94.504 167.331C95.016 167.331 95.464 167.443 95.848 167.667C96.24 167.883 96.54 168.191 96.748 168.591V164.883H97.588V173.523H96.82L96.748 172.431C96.62 172.639 96.452 172.839 96.244 173.031C96.044 173.223 95.796 173.379 95.5 173.499C95.212 173.611 94.876 173.667 94.492 173.667ZM94.564 172.935C94.988 172.935 95.356 172.835 95.668 172.635C95.988 172.435 96.236 172.151 96.412 171.783C96.596 171.415 96.688 170.987 96.688 170.499C96.688 170.011 96.596 169.583 96.412 169.215C96.236 168.847 95.988 168.563 95.668 168.363C95.356 168.163 94.988 168.063 94.564 168.063C94.148 168.063 93.78 168.163 93.46 168.363C93.14 168.563 92.888 168.847 92.704 169.215C92.528 169.575 92.44 170.003 92.44 170.499C92.44 170.995 92.532 171.427 92.716 171.795C92.9 172.155 93.152 172.435 93.472 172.635C93.792 172.835 94.156 172.935 94.564 172.935ZM101.225 173.667C100.737 173.667 100.329 173.579 100.001 173.403C99.6814 173.227 99.4414 172.999 99.2814 172.719C99.1294 172.439 99.0534 172.131 99.0534 171.795C99.0534 171.379 99.1574 171.027 99.3654 170.739C99.5814 170.451 99.8814 170.235 100.265 170.091C100.649 169.947 101.097 169.875 101.609 169.875H103.241C103.241 169.483 103.181 169.151 103.061 168.879C102.941 168.607 102.765 168.403 102.533 168.267C102.301 168.123 102.009 168.051 101.657 168.051C101.249 168.051 100.897 168.155 100.601 168.363C100.305 168.571 100.121 168.875 100.049 169.275H99.1734C99.2214 168.851 99.3654 168.495 99.6054 168.207C99.8534 167.919 100.157 167.703 100.517 167.559C100.877 167.407 101.257 167.331 101.657 167.331C102.217 167.331 102.673 167.439 103.025 167.655C103.377 167.863 103.641 168.151 103.817 168.519C103.993 168.887 104.081 169.311 104.081 169.791V173.523H103.313L103.265 172.419C103.193 172.587 103.093 172.747 102.965 172.899C102.845 173.051 102.701 173.183 102.533 173.295C102.373 173.407 102.185 173.495 101.969 173.559C101.753 173.631 101.505 173.667 101.225 173.667ZM101.321 172.935C101.617 172.935 101.881 172.875 102.113 172.755C102.353 172.627 102.557 172.463 102.725 172.263C102.893 172.063 103.021 171.839 103.109 171.591C103.197 171.335 103.241 171.071 103.241 170.799V170.583H101.669C101.245 170.583 100.905 170.635 100.649 170.739C100.393 170.843 100.209 170.983 100.097 171.159C99.9854 171.335 99.9294 171.539 99.9294 171.771C99.9294 172.003 99.9814 172.207 100.085 172.383C100.189 172.551 100.345 172.687 100.553 172.791C100.769 172.887 101.025 172.935 101.321 172.935ZM107.773 173.523C107.429 173.523 107.133 173.471 106.885 173.367C106.637 173.255 106.445 173.075 106.309 172.827C106.181 172.571 106.117 172.223 106.117 171.783V168.195H105.061V167.475H106.117L106.237 166.071H106.957V167.487H108.769V168.195H106.957V171.783C106.957 172.183 107.037 172.455 107.197 172.599C107.357 172.735 107.641 172.803 108.049 172.803H108.673V173.523H107.773ZM112.007 173.667C111.519 173.667 111.111 173.579 110.783 173.403C110.463 173.227 110.223 172.999 110.063 172.719C109.911 172.439 109.835 172.131 109.835 171.795C109.835 171.379 109.939 171.027 110.147 170.739C110.363 170.451 110.663 170.235 111.047 170.091C111.431 169.947 111.879 169.875 112.391 169.875H114.023C114.023 169.483 113.963 169.151 113.843 168.879C113.723 168.607 113.547 168.403 113.315 168.267C113.083 168.123 112.791 168.051 112.439 168.051C112.031 168.051 111.679 168.155 111.383 168.363C111.087 168.571 110.903 168.875 110.831 169.275H109.955C110.003 168.851 110.147 168.495 110.387 168.207C110.635 167.919 110.939 167.703 111.299 167.559C111.659 167.407 112.039 167.331 112.439 167.331C112.999 167.331 113.455 167.439 113.807 167.655C114.159 167.863 114.423 168.151 114.599 168.519C114.775 168.887 114.863 169.311 114.863 169.791V173.523H114.095L114.047 172.419C113.975 172.587 113.875 172.747 113.747 172.899C113.627 173.051 113.483 173.183 113.315 173.295C113.155 173.407 112.967 173.495 112.751 173.559C112.535 173.631 112.287 173.667 112.007 173.667ZM112.103 172.935C112.399 172.935 112.663 172.875 112.895 172.755C113.135 172.627 113.339 172.463 113.507 172.263C113.675 172.063 113.803 171.839 113.891 171.591C113.979 171.335 114.023 171.071 114.023 170.799V170.583H112.451C112.027 170.583 111.687 170.635 111.431 170.739C111.175 170.843 110.991 170.983 110.879 171.159C110.767 171.335 110.711 171.539 110.711 171.771C110.711 172.003 110.763 172.207 110.867 172.383C110.971 172.551 111.127 172.687 111.335 172.791C111.551 172.887 111.807 172.935 112.103 172.935ZM118.67 173.667C118.19 173.667 117.766 173.587 117.398 173.427C117.038 173.267 116.746 173.039 116.522 172.743C116.306 172.439 116.174 172.079 116.126 171.663H116.99C117.038 171.895 117.13 172.107 117.266 172.299C117.41 172.491 117.602 172.647 117.842 172.767C118.082 172.879 118.366 172.935 118.694 172.935C118.998 172.935 119.246 172.891 119.438 172.803C119.638 172.707 119.786 172.583 119.882 172.431C119.986 172.271 120.038 172.095 120.038 171.903C120.038 171.639 119.974 171.435 119.846 171.291C119.726 171.139 119.55 171.027 119.318 170.955C119.086 170.883 118.806 170.815 118.478 170.751C118.206 170.703 117.946 170.639 117.698 170.559C117.45 170.479 117.226 170.375 117.026 170.247C116.834 170.119 116.682 169.959 116.57 169.767C116.458 169.567 116.402 169.335 116.402 169.071C116.402 168.727 116.486 168.427 116.654 168.171C116.83 167.907 117.078 167.703 117.398 167.559C117.718 167.407 118.094 167.331 118.526 167.331C119.142 167.331 119.646 167.487 120.038 167.799C120.43 168.103 120.658 168.551 120.722 169.143H119.882C119.85 168.815 119.714 168.555 119.474 168.363C119.234 168.171 118.91 168.075 118.502 168.075C118.102 168.075 117.794 168.159 117.578 168.327C117.37 168.487 117.266 168.707 117.266 168.987C117.266 169.163 117.322 169.315 117.434 169.443C117.546 169.571 117.71 169.683 117.926 169.779C118.15 169.867 118.422 169.943 118.742 170.007C119.126 170.079 119.478 170.175 119.798 170.295C120.126 170.407 120.39 170.583 120.59 170.823C120.798 171.055 120.902 171.387 120.902 171.819C120.91 172.179 120.822 172.499 120.638 172.779C120.454 173.059 120.194 173.279 119.858 173.439C119.522 173.591 119.126 173.667 118.67 173.667ZM124.983 173.667C124.423 173.667 123.927 173.535 123.495 173.271C123.071 173.007 122.735 172.639 122.487 172.167C122.247 171.687 122.127 171.127 122.127 170.487C122.127 169.847 122.247 169.291 122.487 168.819C122.727 168.347 123.063 167.983 123.495 167.727C123.935 167.463 124.439 167.331 125.007 167.331C125.591 167.331 126.083 167.463 126.483 167.727C126.891 167.991 127.199 168.335 127.407 168.759C127.623 169.183 127.731 169.647 127.731 170.151C127.731 170.231 127.731 170.315 127.731 170.403C127.731 170.483 127.727 170.579 127.719 170.691H122.763V169.983H126.915C126.899 169.367 126.707 168.891 126.339 168.555C125.979 168.219 125.523 168.051 124.971 168.051C124.611 168.051 124.275 168.135 123.963 168.303C123.659 168.463 123.411 168.703 123.219 169.023C123.035 169.335 122.943 169.731 122.943 170.211V170.523C122.943 171.067 123.039 171.519 123.231 171.879C123.423 172.239 123.675 172.507 123.987 172.683C124.307 172.859 124.639 172.947 124.983 172.947C125.439 172.947 125.815 172.847 126.111 172.647C126.407 172.439 126.619 172.155 126.747 171.795H127.575C127.471 172.147 127.303 172.467 127.071 172.755C126.847 173.043 126.559 173.267 126.207 173.427C125.855 173.587 125.447 173.667 124.983 173.667ZM131.164 173.523C130.82 173.523 130.524 173.471 130.276 173.367C130.028 173.255 129.836 173.075 129.7 172.827C129.572 172.571 129.508 172.223 129.508 171.783V168.195H128.452V167.475H129.508L129.628 166.071H130.348V167.487H132.16V168.195H130.348V171.783C130.348 172.183 130.428 172.455 130.588 172.599C130.748 172.735 131.032 172.803 131.44 172.803H132.064V173.523H131.164ZM136.77 173.523V167.475H137.538L137.598 168.387C137.782 168.051 138.038 167.791 138.366 167.607C138.694 167.423 139.058 167.331 139.458 167.331C139.754 167.331 140.03 167.375 140.286 167.463C140.542 167.551 140.766 167.683 140.958 167.859C141.158 168.035 141.314 168.263 141.426 168.543C141.626 168.167 141.906 167.871 142.266 167.655C142.634 167.439 143.026 167.331 143.442 167.331C143.906 167.331 144.306 167.423 144.642 167.607C144.986 167.791 145.254 168.071 145.446 168.447C145.638 168.823 145.734 169.299 145.734 169.875V173.523H144.894V169.971C144.894 169.331 144.762 168.855 144.498 168.543C144.234 168.223 143.866 168.063 143.394 168.063C143.074 168.063 142.782 168.151 142.518 168.327C142.254 168.495 142.046 168.743 141.894 169.071C141.742 169.391 141.666 169.791 141.666 170.271V173.523H140.826V169.971C140.826 169.331 140.694 168.855 140.43 168.543C140.174 168.223 139.81 168.063 139.338 168.063C139.01 168.063 138.714 168.151 138.45 168.327C138.194 168.495 137.99 168.747 137.838 169.083C137.686 169.411 137.61 169.819 137.61 170.307V173.523H136.77ZM149.909 173.667C149.349 173.667 148.853 173.535 148.421 173.271C147.997 173.007 147.661 172.639 147.413 172.167C147.173 171.687 147.053 171.127 147.053 170.487C147.053 169.847 147.173 169.291 147.413 168.819C147.653 168.347 147.989 167.983 148.421 167.727C148.861 167.463 149.365 167.331 149.933 167.331C150.517 167.331 151.009 167.463 151.409 167.727C151.817 167.991 152.125 168.335 152.333 168.759C152.549 169.183 152.657 169.647 152.657 170.151C152.657 170.231 152.657 170.315 152.657 170.403C152.657 170.483 152.653 170.579 152.645 170.691H147.689V169.983H151.841C151.825 169.367 151.633 168.891 151.265 168.555C150.905 168.219 150.449 168.051 149.897 168.051C149.537 168.051 149.201 168.135 148.889 168.303C148.585 168.463 148.337 168.703 148.145 169.023C147.961 169.335 147.869 169.731 147.869 170.211V170.523C147.869 171.067 147.965 171.519 148.157 171.879C148.349 172.239 148.601 172.507 148.913 172.683C149.233 172.859 149.565 172.947 149.909 172.947C150.365 172.947 150.741 172.847 151.037 172.647C151.333 172.439 151.545 172.155 151.673 171.795H152.501C152.397 172.147 152.229 172.467 151.997 172.755C151.773 173.043 151.485 173.267 151.133 173.427C150.781 173.587 150.373 173.667 149.909 173.667ZM156.624 173.667C156.064 173.667 155.568 173.535 155.136 173.271C154.712 173.007 154.376 172.639 154.128 172.167C153.888 171.687 153.768 171.127 153.768 170.487C153.768 169.847 153.888 169.291 154.128 168.819C154.368 168.347 154.704 167.983 155.136 167.727C155.576 167.463 156.08 167.331 156.648 167.331C157.232 167.331 157.724 167.463 158.124 167.727C158.532 167.991 158.84 168.335 159.048 168.759C159.264 169.183 159.372 169.647 159.372 170.151C159.372 170.231 159.372 170.315 159.372 170.403C159.372 170.483 159.368 170.579 159.36 170.691H154.404V169.983H158.556C158.54 169.367 158.348 168.891 157.98 168.555C157.62 168.219 157.164 168.051 156.612 168.051C156.252 168.051 155.916 168.135 155.604 168.303C155.3 168.463 155.052 168.703 154.86 169.023C154.676 169.335 154.584 169.731 154.584 170.211V170.523C154.584 171.067 154.68 171.519 154.872 171.879C155.064 172.239 155.316 172.507 155.628 172.683C155.948 172.859 156.28 172.947 156.624 172.947C157.08 172.947 157.456 172.847 157.752 172.647C158.048 172.439 158.26 172.155 158.388 171.795H159.216C159.112 172.147 158.944 172.467 158.712 172.755C158.488 173.043 158.2 173.267 157.848 173.427C157.496 173.587 157.088 173.667 156.624 173.667ZM162.804 173.523C162.46 173.523 162.164 173.471 161.916 173.367C161.668 173.255 161.476 173.075 161.34 172.827C161.212 172.571 161.148 172.223 161.148 171.783V168.195H160.092V167.475H161.148L161.268 166.071H161.988V167.487H163.8V168.195H161.988V171.783C161.988 172.183 162.068 172.455 162.228 172.599C162.388 172.735 162.672 172.803 163.08 172.803H163.704V173.523H162.804ZM167.326 173.667C166.846 173.667 166.422 173.587 166.054 173.427C165.694 173.267 165.402 173.039 165.178 172.743C164.962 172.439 164.83 172.079 164.782 171.663H165.646C165.694 171.895 165.786 172.107 165.922 172.299C166.066 172.491 166.258 172.647 166.498 172.767C166.738 172.879 167.022 172.935 167.35 172.935C167.654 172.935 167.902 172.891 168.094 172.803C168.294 172.707 168.442 172.583 168.538 172.431C168.642 172.271 168.694 172.095 168.694 171.903C168.694 171.639 168.63 171.435 168.502 171.291C168.382 171.139 168.206 171.027 167.974 170.955C167.742 170.883 167.462 170.815 167.134 170.751C166.862 170.703 166.602 170.639 166.354 170.559C166.106 170.479 165.882 170.375 165.682 170.247C165.49 170.119 165.338 169.959 165.226 169.767C165.114 169.567 165.058 169.335 165.058 169.071C165.058 168.727 165.142 168.427 165.31 168.171C165.486 167.907 165.734 167.703 166.054 167.559C166.374 167.407 166.75 167.331 167.182 167.331C167.798 167.331 168.302 167.487 168.694 167.799C169.086 168.103 169.314 168.551 169.378 169.143H168.538C168.506 168.815 168.37 168.555 168.13 168.363C167.89 168.171 167.566 168.075 167.158 168.075C166.758 168.075 166.45 168.159 166.234 168.327C166.026 168.487 165.922 168.707 165.922 168.987C165.922 169.163 165.978 169.315 166.09 169.443C166.202 169.571 166.366 169.683 166.582 169.779C166.806 169.867 167.078 169.943 167.398 170.007C167.782 170.079 168.134 170.175 168.454 170.295C168.782 170.407 169.046 170.583 169.246 170.823C169.454 171.055 169.558 171.387 169.558 171.819C169.566 172.179 169.478 172.499 169.294 172.779C169.11 173.059 168.85 173.279 168.514 173.439C168.178 173.591 167.782 173.667 167.326 173.667ZM177.016 173.667C176.456 173.667 175.956 173.535 175.516 173.271C175.076 173.007 174.728 172.639 174.472 172.167C174.216 171.687 174.088 171.135 174.088 170.511C174.088 169.863 174.216 169.307 174.472 168.843C174.728 168.371 175.076 168.003 175.516 167.739C175.964 167.467 176.464 167.331 177.016 167.331C177.72 167.331 178.304 167.515 178.768 167.883C179.24 168.243 179.54 168.723 179.668 169.323H178.828C178.74 168.923 178.528 168.615 178.192 168.399C177.864 168.175 177.468 168.063 177.004 168.063C176.644 168.063 176.308 168.155 175.996 168.339C175.684 168.515 175.432 168.783 175.24 169.143C175.048 169.503 174.952 169.959 174.952 170.511C174.952 170.919 175.008 171.275 175.12 171.579C175.232 171.883 175.384 172.139 175.576 172.347C175.768 172.547 175.988 172.699 176.236 172.803C176.484 172.907 176.74 172.959 177.004 172.959C177.308 172.959 177.584 172.911 177.832 172.815C178.088 172.711 178.304 172.563 178.48 172.371C178.656 172.179 178.772 171.947 178.828 171.675H179.668C179.548 172.259 179.252 172.739 178.78 173.115C178.308 173.483 177.72 173.667 177.016 173.667ZM181.114 173.523V167.475H181.882L181.942 168.639C182.07 168.359 182.242 168.123 182.458 167.931C182.674 167.739 182.934 167.591 183.238 167.487C183.542 167.383 183.886 167.331 184.27 167.331V168.207H183.946C183.69 168.207 183.442 168.243 183.202 168.315C182.962 168.379 182.75 168.491 182.566 168.651C182.382 168.811 182.234 169.027 182.122 169.299C182.01 169.571 181.954 169.911 181.954 170.319V173.523H181.114ZM185.57 173.523V167.475H186.398V173.523H185.57ZM185.99 166.047C185.822 166.047 185.678 165.991 185.558 165.879C185.438 165.759 185.378 165.611 185.378 165.435C185.378 165.251 185.434 165.107 185.546 165.003C185.666 164.891 185.81 164.835 185.978 164.835C186.146 164.835 186.29 164.891 186.41 165.003C186.53 165.107 186.59 165.251 186.59 165.435C186.59 165.611 186.53 165.759 186.41 165.879C186.298 165.991 186.158 166.047 185.99 166.047ZM190.519 173.523C190.175 173.523 189.879 173.471 189.631 173.367C189.383 173.255 189.191 173.075 189.055 172.827C188.927 172.571 188.863 172.223 188.863 171.783V168.195H187.807V167.475H188.863L188.983 166.071H189.703V167.487H191.515V168.195H189.703V171.783C189.703 172.183 189.783 172.455 189.943 172.599C190.103 172.735 190.387 172.803 190.795 172.803H191.419V173.523H190.519ZM195.249 173.667C194.689 173.667 194.193 173.535 193.761 173.271C193.337 173.007 193.001 172.639 192.753 172.167C192.513 171.687 192.393 171.127 192.393 170.487C192.393 169.847 192.513 169.291 192.753 168.819C192.993 168.347 193.329 167.983 193.761 167.727C194.201 167.463 194.705 167.331 195.273 167.331C195.857 167.331 196.349 167.463 196.749 167.727C197.157 167.991 197.465 168.335 197.673 168.759C197.889 169.183 197.997 169.647 197.997 170.151C197.997 170.231 197.997 170.315 197.997 170.403C197.997 170.483 197.993 170.579 197.985 170.691H193.029V169.983H197.181C197.165 169.367 196.973 168.891 196.605 168.555C196.245 168.219 195.789 168.051 195.237 168.051C194.877 168.051 194.541 168.135 194.229 168.303C193.925 168.463 193.677 168.703 193.485 169.023C193.301 169.335 193.209 169.731 193.209 170.211V170.523C193.209 171.067 193.305 171.519 193.497 171.879C193.689 172.239 193.941 172.507 194.253 172.683C194.573 172.859 194.905 172.947 195.249 172.947C195.705 172.947 196.081 172.847 196.377 172.647C196.673 172.439 196.885 172.155 197.013 171.795H197.841C197.737 172.147 197.569 172.467 197.337 172.755C197.113 173.043 196.825 173.267 196.473 173.427C196.121 173.587 195.713 173.667 195.249 173.667ZM199.372 173.523V167.475H200.14L200.2 168.639C200.328 168.359 200.5 168.123 200.716 167.931C200.932 167.739 201.192 167.591 201.496 167.487C201.8 167.383 202.144 167.331 202.528 167.331V168.207H202.204C201.948 168.207 201.7 168.243 201.46 168.315C201.22 168.379 201.008 168.491 200.824 168.651C200.64 168.811 200.492 169.027 200.38 169.299C200.268 169.571 200.212 169.911 200.212 170.319V173.523H199.372ZM203.827 173.523V167.475H204.655V173.523H203.827ZM204.247 166.047C204.079 166.047 203.935 165.991 203.815 165.879C203.695 165.759 203.635 165.611 203.635 165.435C203.635 165.251 203.691 165.107 203.803 165.003C203.923 164.891 204.067 164.835 204.235 164.835C204.403 164.835 204.547 164.891 204.667 165.003C204.787 165.107 204.847 165.251 204.847 165.435C204.847 165.611 204.787 165.759 204.667 165.879C204.555 165.991 204.415 166.047 204.247 166.047ZM208.417 173.667C207.929 173.667 207.521 173.579 207.193 173.403C206.873 173.227 206.633 172.999 206.473 172.719C206.321 172.439 206.245 172.131 206.245 171.795C206.245 171.379 206.349 171.027 206.557 170.739C206.773 170.451 207.073 170.235 207.457 170.091C207.841 169.947 208.289 169.875 208.801 169.875H210.433C210.433 169.483 210.373 169.151 210.253 168.879C210.133 168.607 209.957 168.403 209.725 168.267C209.493 168.123 209.201 168.051 208.849 168.051C208.441 168.051 208.089 168.155 207.793 168.363C207.497 168.571 207.313 168.875 207.241 169.275H206.365C206.413 168.851 206.557 168.495 206.797 168.207C207.045 167.919 207.349 167.703 207.709 167.559C208.069 167.407 208.449 167.331 208.849 167.331C209.409 167.331 209.865 167.439 210.217 167.655C210.569 167.863 210.833 168.151 211.009 168.519C211.185 168.887 211.273 169.311 211.273 169.791V173.523H210.505L210.457 172.419C210.385 172.587 210.285 172.747 210.157 172.899C210.037 173.051 209.893 173.183 209.725 173.295C209.565 173.407 209.377 173.495 209.161 173.559C208.945 173.631 208.697 173.667 208.417 173.667ZM208.513 172.935C208.809 172.935 209.073 172.875 209.305 172.755C209.545 172.627 209.749 172.463 209.917 172.263C210.085 172.063 210.213 171.839 210.301 171.591C210.389 171.335 210.433 171.071 210.433 170.799V170.583H208.861C208.437 170.583 208.097 170.635 207.841 170.739C207.585 170.843 207.401 170.983 207.289 171.159C207.177 171.335 207.121 171.539 207.121 171.771C207.121 172.003 207.173 172.207 207.277 172.383C207.381 172.551 207.537 172.687 207.745 172.791C207.961 172.887 208.217 172.935 208.513 172.935ZM216.525 173.523V166.431C216.525 166.079 216.581 165.791 216.693 165.567C216.813 165.335 216.989 165.163 217.221 165.051C217.453 164.939 217.745 164.883 218.097 164.883H218.781V165.603H218.241C217.921 165.603 217.693 165.667 217.557 165.795C217.429 165.923 217.365 166.147 217.365 166.467V173.523H216.525ZM215.589 168.195V167.475H218.937V168.195H215.589ZM222.59 173.667C222.038 173.667 221.538 173.539 221.09 173.283C220.65 173.019 220.302 172.651 220.046 172.179C219.79 171.699 219.662 171.143 219.662 170.511C219.662 169.855 219.79 169.291 220.046 168.819C220.31 168.347 220.666 167.983 221.114 167.727C221.562 167.463 222.062 167.331 222.614 167.331C223.19 167.331 223.698 167.463 224.138 167.727C224.578 167.983 224.926 168.347 225.182 168.819C225.438 169.291 225.566 169.855 225.566 170.511C225.566 171.143 225.434 171.699 225.17 172.179C224.914 172.651 224.562 173.019 224.114 173.283C223.674 173.539 223.166 173.667 222.59 173.667ZM222.602 172.947C222.978 172.947 223.322 172.855 223.634 172.671C223.954 172.487 224.21 172.215 224.402 171.855C224.602 171.487 224.702 171.035 224.702 170.499C224.702 169.955 224.606 169.503 224.414 169.143C224.222 168.783 223.966 168.515 223.646 168.339C223.334 168.155 222.99 168.063 222.614 168.063C222.254 168.063 221.914 168.155 221.594 168.339C221.274 168.523 221.014 168.795 220.814 169.155C220.622 169.507 220.526 169.955 220.526 170.499C220.526 171.035 220.622 171.487 220.814 171.855C221.006 172.215 221.258 172.487 221.57 172.671C221.89 172.855 222.234 172.947 222.602 172.947ZM227.004 173.523V167.475H227.772L227.832 168.639C227.96 168.359 228.132 168.123 228.348 167.931C228.564 167.739 228.824 167.591 229.128 167.487C229.432 167.383 229.776 167.331 230.16 167.331V168.207H229.836C229.58 168.207 229.332 168.243 229.092 168.315C228.852 168.379 228.64 168.491 228.456 168.651C228.272 168.811 228.124 169.027 228.012 169.299C227.9 169.571 227.844 169.911 227.844 170.319V173.523H227.004Z" fill="black"/>
<circle cx="224" cy="102.523" r="13" fill="#FFA502"/>
<path d="M224 96.5234L225.485 101.039L230 102.523L225.485 104.008L224 108.523L222.515 104.008L218 102.523L222.515 101.039L224 96.5234Z" fill="#414141"/>
<path d="M248 261.14L249.98 267.16L256 269.14L249.98 271.12L248 277.14L246.02 271.12L240 269.14L246.02 267.16L248 261.14Z" fill="#414141"/>
<path d="M403 173.523L404.98 179.544L411 181.523L404.98 183.503L403 189.523L401.02 183.503L395 181.523L401.02 179.544L403 173.523Z" fill="#414141"/>
<path d="M279.395 410.473L281.374 416.493L287.395 418.473L281.374 420.453L279.395 426.473L277.415 420.453L271.395 418.473L277.415 416.493L279.395 410.473Z" fill="#414141"/>
<path d="M457.273 369.019L458.511 372.781L462.273 374.019L458.511 375.256L457.273 379.019L456.036 375.256L452.273 374.019L456.036 372.781L457.273 369.019Z" fill="#414141"/>
<path d="M411.301 395.326C396.86 402.883 380.429 407.157 363 407.157C305.388 407.157 258.684 360.453 258.684 302.84C258.684 279.852 266.119 258.601 278.717 241.36M444.187 368.35C458.654 350.443 467.317 327.653 467.317 302.84C467.317 245.228 420.613 198.523 363 198.523C342.835 198.523 324.005 204.245 308.048 214.155" stroke="#4A4A4A" stroke-width="1.58"/>
<circle cx="427.923" cy="381.753" r="13.3144" stroke="#FF6348" stroke-width="1.58"/>
<circle cx="292.999" cy="228.022" r="13.3144" stroke="#FF6348" stroke-width="1.58"/>
<path d="M418.784 268.837C396.231 268.837 372.034 247.459 362.755 236.771C353.343 247.459 329.101 268.837 307.431 268.837C305.228 289.848 313.208 339.279 362.755 368.913C410.679 341.005 420.076 290.567 418.784 268.837Z" stroke="#191F25" stroke-width="1.58"/>
<rect x="328.837" y="277.93" width="68.3311" height="9.04556" stroke="#4A4A4A" stroke-width="1.58"/>
<rect x="328.837" y="295.057" width="68.3311" height="9.04556" stroke="#4A4A4A" stroke-width="1.58"/>
<rect x="328.837" y="312.183" width="68.3311" height="9.04556" stroke="#4A4A4A" stroke-width="1.58"/>
<rect x="331.91" y="280.427" width="7.86919" height="3.83429" fill="#FFDBD6"/>
<rect x="331.91" y="297.662" width="7.86919" height="3.83429" fill="#FF6348"/>
<rect x="331.91" y="314.79" width="7.86919" height="3.83429" fill="#FFDBD6"/>
<rect x="351.281" y="280.427" width="42.6775" height="3.83429" fill="#FF6348"/>
<rect x="351.281" y="297.662" width="42.6775" height="3.83429" fill="#FFDBD6"/>
<rect x="351.281" y="314.79" width="42.6775" height="3.83429" fill="#FF6348"/>
<defs>
<filter id="filter0_d_131_6794" x="0.900002" y="32.4234" width="329.2" height="236.2" filterUnits="userSpaceOnUse" color-interpolation-filters="sRGB">
<feFlood flood-opacity="0" result="BackgroundImageFix"/>
<feColorMatrix in="SourceAlpha" type="matrix" values="0 0 0 0 0 0 0 0 0 0 0 0 0 0 0 0 0 0 127 0" result="hardAlpha"/>
<feOffset/>
<feGaussianBlur stdDeviation="35.05"/>
<feComposite in2="hardAlpha" operator="out"/>
<feColorMatrix type="matrix" values="0 0 0 0 0 0 0 0 0 0 0 0 0 0 0 0 0 0 0.08 0"/>
<feBlend mode="normal" in2="BackgroundImageFix" result="effect1_dropShadow_131_6794"/>
<feBlend mode="normal" in="SourceGraphic" in2="effect1_dropShadow_131_6794" result="shape"/>
</filter>
</defs>
</svg>
