<svg width="20" height="20" viewBox="0 0 20 20" fill="none" xmlns="http://www.w3.org/2000/svg">
<path d="M13.3332 10.5766V15.0682C13.3332 17.0182 12.0332 18.3099 10.0915 18.3099H4.90817C2.9665 18.3099 1.6665 17.0182 1.6665 15.0682V8.59323C1.6665 6.64323 2.9665 5.35156 4.90817 5.35156H8.09984C8.95817 5.35156 9.78317 5.69323 10.3915 6.30156L12.3832 8.2849C12.9915 8.89323 13.3332 9.71823 13.3332 10.5766Z" stroke="#292D32" stroke-width="1.25" stroke-linecap="round" stroke-linejoin="round"/>
<path d="M18.3332 6.87396V11.3656C18.3332 13.3073 17.0332 14.6073 15.0915 14.6073H13.3332V10.574C13.3332 9.71562 12.9915 8.89062 12.3832 8.28229L10.3915 6.29896C9.78317 5.69063 8.95817 5.34896 8.09984 5.34896H6.6665V4.88229C6.6665 2.94063 7.9665 1.64062 9.90817 1.64062H13.0998C13.9582 1.64062 14.7832 1.98229 15.3915 2.59062L17.3832 4.58229C17.9915 5.19063 18.3332 6.01563 18.3332 6.87396Z" stroke="#292D32" stroke-width="1.25" stroke-linecap="round" stroke-linejoin="round"/>
</svg>
