<svg width="83" height="55" viewBox="0 0 83 55" fill="none" xmlns="http://www.w3.org/2000/svg">
<path d="M24.4074 23.1718V36.5495H20.149V19.7344L28.9406 19.7431C32.6748 19.7431 33.9469 22.3764 33.9469 24.7683V36.5495H29.6961V24.7903C29.6961 23.7884 29.1774 23.1718 27.9264 23.1718L24.4074 23.1718ZM53.3645 22.9709C51.909 22.9709 50.7825 23.7192 50.312 24.735C50.0332 25.3449 49.9373 25.8123 49.9045 26.559H56.456C56.372 24.735 55.5448 22.9709 53.3645 22.9709ZM49.9045 29.4573C49.9045 31.6355 51.2586 33.2386 53.6761 33.2386C55.5571 33.2386 56.4919 32.7174 57.5794 31.6355L60.2097 34.1468C58.5255 35.8094 56.7584 36.819 53.6449 36.819C49.5683 36.819 45.6671 34.5963 45.6671 28.1181C45.6671 22.5829 49.0732 19.4494 53.549 19.4494C58.0858 19.4494 60.7068 23.118 60.7068 27.9233V29.4573H49.9045ZM42.0723 36.5284C38.6031 36.5284 37.1311 34.1135 37.1311 31.7282V15.153H41.383V19.7344H44.5882V23.1718H41.383V31.4617C41.383 32.4386 41.8442 32.9808 42.8585 32.9808H44.5882V36.5284H42.0723ZM16.3599 17.4106H12.0722V13.3377H16.3599V17.4106ZM16.3707 36.7263C13.1598 36.4177 12.0677 34.4702 12.0677 32.2228L12.0723 19.7344H16.3708L16.3707 36.7263ZM67.4741 36.367C64.2698 36.058 63.1828 34.1135 63.1828 31.8692V12.758H67.4741V36.367ZM82.4759 15.52C78.5869 -3.44052 41.7817 -4.64083 18.0584 9.80132V11.3958C41.7576 -0.783641 75.3688 -0.711891 78.4311 16.7515C79.4556 22.526 76.2017 28.5465 70.3903 32.007V36.5346C77.3851 33.9756 84.5587 25.6775 82.4759 15.52ZM39.3524 48.6935C22.9796 50.2069 5.91799 47.8304 3.5307 35.0365C2.36216 28.7295 5.23532 22.0438 9.04689 17.8909V15.6701C2.18534 21.687 -1.53859 29.3045 0.605262 38.3053C3.34158 49.8472 17.9846 56.3879 40.3349 54.2158C49.1778 53.3528 60.7519 50.5093 68.7984 46.093V39.8188C61.4971 44.1664 49.4151 47.7617 39.3524 48.6935Z" fill="#0071C5"/>
</svg>
