<svg width="148" height="37" viewBox="0 0 148 37" fill="none" xmlns="http://www.w3.org/2000/svg">
<g clip-path="url(#clip0_131_6678)">
<path fill-rule="evenodd" clip-rule="evenodd" d="M10.4419 0.169053H22.8719C25.9852 1.30306 28.763 3.21951 30.9447 5.73858H10.4419C9.71269 5.73858 9.0133 5.44518 8.49763 4.92294C7.98197 4.40069 7.69227 3.69238 7.69227 2.95381C7.69227 2.21525 7.98197 1.50693 8.49763 0.984691C9.0133 0.462446 9.71269 0.169053 10.4419 0.169053ZM2.68645 0.169053C3.22495 0.162017 3.7534 0.316946 4.20491 0.614227C4.65642 0.911507 5.0107 1.33777 5.22288 1.83907C5.43507 2.34036 5.49563 2.89414 5.39691 3.43031C5.29818 3.96648 5.04459 4.46093 4.66826 4.85107C4.29192 5.24121 3.80976 5.5095 3.28279 5.62198C2.75583 5.73446 2.20776 5.68606 1.70796 5.48293C1.20817 5.27979 0.779115 4.93105 0.47512 4.48084C0.171125 4.03063 0.0058546 3.4992 0.000229065 2.95381C-0.00444811 2.58921 0.0625431 2.2273 0.197302 1.88917C0.332061 1.55104 0.531895 1.24343 0.785168 0.984269C1.03844 0.725106 1.34009 0.519562 1.67256 0.379605C2.00502 0.239648 2.36166 0.168075 2.7217 0.169053H2.68645Z" fill="#FF6348"/>
<path fill-rule="evenodd" clip-rule="evenodd" d="M10.4417 10.4879H33.9902C34.7971 12.2549 35.3366 14.1349 35.5907 16.0646H10.4417C9.73563 16.0284 9.07026 15.7188 8.58313 15.1999C8.09601 14.6809 7.82437 13.9923 7.82437 13.2762C7.82437 12.5602 8.09601 11.8716 8.58313 11.3526C9.07026 10.8337 9.73563 10.5241 10.4417 10.4879ZM2.68623 10.5236C3.22623 10.5165 3.75611 10.6723 4.20842 10.9712C4.66073 11.27 5.01503 11.6984 5.22622 12.2017C5.43742 12.7051 5.49595 13.2608 5.39439 13.7979C5.29282 14.3351 5.03574 14.8296 4.65587 15.2183C4.276 15.6071 3.79051 15.8726 3.26119 15.981C2.73186 16.0895 2.18265 16.036 1.68343 15.8274C1.18421 15.6188 0.757559 15.2645 0.457783 14.8095C0.158006 14.3546 -0.00134525 13.8196 8.55498e-06 13.2727C7.35053e-06 12.9111 0.070451 12.553 0.207304 12.219C0.344157 11.885 0.544731 11.5816 0.797536 11.3263C1.05034 11.0709 1.35041 10.8686 1.68055 10.7308C2.0107 10.5931 2.36443 10.5227 2.72148 10.5236H2.68623Z" fill="#FF6348"/>
<path fill-rule="evenodd" clip-rule="evenodd" d="M10.4417 20.8111H35.64C35.4352 22.7311 34.9456 24.6087 34.1876 26.3807H10.4417C9.71246 26.3807 9.01307 26.0873 8.49741 25.565C7.98174 25.0428 7.69204 24.3345 7.69204 23.5959C7.69204 22.8573 7.98174 22.149 8.49741 21.6268C9.01307 21.1045 9.71246 20.8111 10.4417 20.8111ZM2.68622 20.8111C3.22472 20.8041 3.75317 20.959 4.20468 21.2563C4.6562 21.5536 5.01047 21.9799 5.22266 22.4812C5.43484 22.9825 5.49541 23.5362 5.39668 24.0724C5.29795 24.6086 5.04437 25.103 4.66803 25.4932C4.2917 25.8833 3.80953 26.1516 3.28256 26.2641C2.7556 26.3765 2.20753 26.3282 1.70773 26.125C1.20794 25.9219 0.778886 25.5731 0.474891 25.1229C0.170896 24.6727 0.00562554 24.1413 0 23.5959C0.00743928 22.8705 0.297671 22.1775 0.807443 21.6679C1.31722 21.1584 2.0052 20.8735 2.72147 20.8754L2.68622 20.8111Z" fill="#FF6348"/>
<path fill-rule="evenodd" clip-rule="evenodd" d="M10.4417 31.1302H31.3181C29.3401 33.5524 26.8221 35.4638 23.9715 36.7069H10.4417C9.73563 36.6707 9.07026 36.3611 8.58313 35.8422C8.09601 35.3232 7.82437 34.6346 7.82437 33.9186C7.82437 33.2025 8.09601 32.5139 8.58313 31.9949C9.07026 31.476 9.73563 31.1664 10.4417 31.1302ZM2.68623 31.1302C3.22442 31.1232 3.75259 31.278 4.20393 31.575C4.65528 31.8719 5.00954 32.2978 5.22191 32.7987C5.43429 33.2995 5.49525 33.8529 5.39708 34.3889C5.29891 34.9249 5.04602 35.4193 4.67039 35.8097C4.29476 36.2001 3.81326 36.469 3.28677 36.5822C2.76028 36.6955 2.21245 36.6481 1.71255 36.4461C1.21265 36.2441 0.783127 35.8964 0.478299 35.4472C0.173471 34.9979 0.00702573 34.4672 9.18113e-06 33.9221C-0.000920993 33.5599 0.0688371 33.2011 0.205275 32.8663C0.341712 32.5314 0.542139 32.2272 0.795036 31.9711C1.04793 31.715 1.34832 31.512 1.67892 31.3738C2.00953 31.2356 2.36383 31.165 2.72148 31.1659L2.68623 31.1302Z" fill="#FF6348"/>
<path fill-rule="evenodd" clip-rule="evenodd" d="M43.3828 11.7261H50.9268C52.4816 11.6941 54.0236 12.0162 55.4391 12.6686C56.6885 13.2448 57.7446 14.1779 58.4778 15.3534C59.2218 16.5931 59.5986 18.0231 59.5636 19.4734C59.6006 20.9239 59.2236 22.3545 58.4778 23.5934C57.7457 24.7715 56.6894 25.7072 55.4391 26.2854C54.0236 26.9377 52.4816 27.2598 50.9268 27.2279H43.3828V11.7261ZM50.7082 23.1507C51.684 23.1981 52.6389 22.8543 53.3663 22.1939C53.7107 21.8361 53.9772 21.4091 54.1484 20.9405C54.3197 20.4719 54.3919 19.9721 54.3604 19.4734C54.3899 18.9771 54.3167 18.48 54.1455 18.014C53.9743 17.548 53.7089 17.1233 53.3663 16.7672C53.0074 16.4376 52.588 16.1828 52.1319 16.0174C51.6759 15.852 51.1921 15.7792 50.7082 15.8032H48.5437V23.1507H50.7082ZM115.805 11.7261L109.333 27.2279H104.256L97.7841 11.7261H103.34L106.992 20.7872L110.729 11.7261H115.805ZM66.6493 14.8964C68.7644 14.8964 70.3508 15.3677 71.4577 16.3245C72.5646 17.2813 73.1216 18.7379 73.1216 20.7158V27.2279H68.5247V25.6356C67.9607 26.8447 66.8326 27.4492 65.1405 27.4492C64.3071 27.4747 63.4792 27.3036 62.7222 26.9494C62.1004 26.6577 61.5761 26.1887 61.2134 25.5999C60.8696 25.0228 60.6914 24.3602 60.6987 23.6863C60.6698 23.1523 60.7788 22.6199 61.015 22.1416C61.2511 21.6633 61.6062 21.2556 62.0454 20.9586C63.2986 20.2546 64.726 19.9323 66.1558 20.0304H68.144C67.9818 19.0878 67.2274 18.6023 65.8879 18.6023C65.3334 18.6023 64.782 18.6866 64.2521 18.8522C63.7458 19.0081 63.2691 19.2496 62.8421 19.5662L61.2698 16.2674C62.0402 15.8029 62.8776 15.4632 63.7516 15.2606C64.6986 15.0165 65.6721 14.8942 66.6493 14.8964ZM66.6493 24.436C66.9837 24.4423 67.3116 24.3425 67.587 24.1504C67.8673 23.9429 68.0748 23.6502 68.1793 23.3149V22.4438H66.9807C65.9725 22.4438 65.4719 22.7866 65.4719 23.4649C65.4655 23.6008 65.4909 23.7363 65.5461 23.8604C65.6012 23.9845 65.6845 24.0936 65.7891 24.1789C66.0333 24.379 66.343 24.4784 66.6564 24.4574L66.6493 24.436ZM84.0992 26.8066C83.1567 27.279 82.1108 27.5002 81.0604 27.4492C79.6621 27.5419 78.2797 27.1041 77.1827 26.2211C76.7077 25.7424 76.3407 25.1652 76.107 24.5292C75.8734 23.8931 75.7785 23.2134 75.829 22.5366V19.4306H74.1721V15.7818H75.8078V12.3901H80.7432V15.7818H83.1967V19.4306H80.7432V22.4867C80.7242 22.8019 80.828 23.1121 81.0322 23.3506C81.1219 23.4495 81.2309 23.5285 81.3522 23.5826C81.4736 23.6367 81.6047 23.6647 81.7373 23.6648C82.1339 23.6719 82.5229 23.5547 82.8512 23.3292L84.0992 26.8066ZM90.6984 14.8964C92.8135 14.8964 94.3999 15.3677 95.5139 16.3245C96.6278 17.2813 97.1707 18.7379 97.1707 20.7158V27.2279H92.5809V25.6356C92.0074 26.8447 90.877 27.4492 89.1896 27.4492C88.3584 27.4749 87.5328 27.3038 86.7783 26.9494C86.1543 26.6612 85.6291 26.1914 85.2696 25.5999C84.923 25.024 84.7445 24.3606 84.7549 23.6863C84.7274 23.1517 84.8378 22.6192 85.0752 22.1409C85.3125 21.6627 85.6686 21.2552 86.1086 20.9586C87.3621 20.2554 88.7892 19.9331 90.219 20.0304H92.2072C92.0521 19.0878 91.2977 18.6023 89.9581 18.6023C89.4013 18.6024 88.8476 18.6866 88.3153 18.8522C87.8092 19.0088 87.3326 19.2501 86.9053 19.5662L85.3119 16.2674C86.0834 15.8053 86.9204 15.4658 87.7936 15.2606C88.7408 15.0174 89.7142 14.8951 90.6914 14.8964H90.6984ZM90.6984 24.436C91.0348 24.4415 91.3647 24.3417 91.6432 24.1504C91.934 23.9382 92.1472 23.6343 92.2495 23.2864V22.4438H91.0298C90.0216 22.4438 89.521 22.7866 89.521 23.4649C89.5146 23.6008 89.54 23.7363 89.5952 23.8604C89.6503 23.9845 89.7336 24.0936 89.8382 24.1789C90.0802 24.3779 90.3873 24.4773 90.6984 24.4574V24.436ZM116.524 15.1535H121.46V27.2922H116.524V15.1535ZM118.992 14.1752C118.212 14.2171 117.445 13.9624 116.841 13.4612C116.578 13.24 116.368 12.9613 116.226 12.6459C116.084 12.3305 116.015 11.9867 116.024 11.6404C115.999 11.2857 116.056 10.93 116.191 10.6016C116.326 10.2732 116.534 9.98102 116.799 9.74816C117.403 9.2469 118.17 8.99223 118.95 9.03412C119.732 9.0001 120.501 9.25368 121.114 9.74816C121.375 9.96021 121.583 10.2303 121.724 10.5375C121.865 10.8446 121.933 11.1805 121.925 11.519C121.935 11.8753 121.868 12.2296 121.728 12.5566C121.588 12.8837 121.378 13.1754 121.114 13.4112C120.508 13.919 119.734 14.1743 118.95 14.1252L118.992 14.1752ZM134.63 23.6077V27.2636H123.173V24.4074L128.108 18.8236H123.384V15.1178H134.383V17.9739L129.448 23.5506L134.63 23.6077ZM147.095 23.6077V27.2636H135.638V24.4074L140.573 18.8236H135.8V15.1178H146.806V17.9739L141.871 23.5506L147.095 23.6077Z" fill="#5F5F5F"/>
</g>
<defs>
<clipPath id="clip0_131_6678">
<rect width="147.051" height="37" fill="white"/>
</clipPath>
</defs>
</svg>
