<svg width="114" height="29" viewBox="0 0 114 29" fill="none" xmlns="http://www.w3.org/2000/svg">
<g clip-path="url(#clip0_131_6773)">
<path fill-rule="evenodd" clip-rule="evenodd" d="M8.09501 0.131037H17.7312C20.1448 1.01016 22.2982 2.49587 23.9895 4.44875H8.09501C7.52966 4.44875 6.98747 4.2213 6.5877 3.81644C6.18794 3.41157 5.96335 2.86246 5.96335 2.2899C5.96335 1.71733 6.18794 1.16822 6.5877 0.763352C6.98747 0.358488 7.52966 0.131037 8.09501 0.131037ZM2.08264 0.131037C2.50011 0.125583 2.90978 0.24569 3.25981 0.476154C3.60984 0.706618 3.88449 1.03708 4.04899 1.4257C4.21348 1.81432 4.26043 2.24363 4.1839 2.65929C4.10736 3.07495 3.91077 3.45827 3.61902 3.76072C3.32727 4.06318 2.95347 4.27116 2.54495 4.35836C2.13643 4.44556 1.71154 4.40804 1.32408 4.25057C0.936618 4.09309 0.604001 3.82273 0.368332 3.47371C0.132663 3.12469 0.00453872 2.7127 0.00017758 2.2899C-0.00344836 2.00724 0.0484859 1.72667 0.152956 1.46454C0.257427 1.20241 0.412346 0.963939 0.608694 0.763026C0.805041 0.562112 1.03889 0.402766 1.29663 0.294266C1.55437 0.185766 1.83085 0.130279 2.10997 0.131037H2.08264Z" fill="#FF6348"/>
<path fill-rule="evenodd" clip-rule="evenodd" d="M8.09484 8.13086H26.3506C26.9761 9.50071 27.3943 10.9581 27.5913 12.4541H8.09484C7.54745 12.426 7.03162 12.1861 6.65398 11.7838C6.27635 11.3814 6.06576 10.8476 6.06576 10.2925C6.06576 9.7374 6.27635 9.20352 6.65398 8.80122C7.03162 8.39891 7.54745 8.15892 8.09484 8.13086ZM2.08247 8.15854C2.5011 8.15305 2.91188 8.27382 3.26254 8.50549C3.61319 8.73716 3.88785 9.06924 4.05158 9.45948C4.2153 9.84973 4.26068 10.2805 4.18194 10.6969C4.10321 11.1134 3.90391 11.4967 3.60942 11.798C3.31492 12.0994 2.93855 12.3053 2.5282 12.3894C2.11785 12.4734 1.69207 12.432 1.30506 12.2702C0.918044 12.1085 0.58729 11.8338 0.354891 11.4811C0.122493 11.1285 -0.00104289 10.7137 6.63216e-06 10.2897C5.69842e-06 10.0094 0.0546164 9.7318 0.16071 9.47287C0.266805 9.21394 0.422297 8.97876 0.618282 8.78078C0.814266 8.58281 1.04689 8.42595 1.30283 8.31917C1.55877 8.2124 1.833 8.15781 2.1098 8.15854H2.08247Z" fill="#FF6348"/>
<path fill-rule="evenodd" clip-rule="evenodd" d="M8.09484 16.1335H27.6296C27.4708 17.6219 27.0912 19.0775 26.5036 20.4512H8.09484C7.52949 20.4512 6.98729 20.2237 6.58753 19.8189C6.18776 19.414 5.96318 18.8649 5.96318 18.2923C5.96318 17.7198 6.18776 17.1707 6.58753 16.7658C6.98729 16.3609 7.52949 16.1335 8.09484 16.1335ZM2.08247 16.1335C2.49993 16.128 2.90961 16.2481 3.25964 16.4786C3.60967 16.7091 3.88431 17.0395 4.04881 17.4281C4.21331 17.8168 4.26026 18.2461 4.18372 18.6617C4.10718 19.0774 3.91059 19.4607 3.61884 19.7632C3.32709 20.0656 2.9533 20.2736 2.54477 20.3608C2.13625 20.448 1.71136 20.4105 1.3239 20.253C0.936441 20.0955 0.603823 19.8252 0.368154 19.4761C0.132485 19.1271 0.00436114 18.7151 0 18.2923C0.00576723 17.73 0.230766 17.1928 0.625962 16.7977C1.02116 16.4027 1.55451 16.1818 2.1098 16.1833L2.08247 16.1335Z" fill="#FF6348"/>
<path fill-rule="evenodd" clip-rule="evenodd" d="M8.09484 24.1335H24.2791C22.7456 26.0112 20.7935 27.493 18.5837 28.4567H8.09484C7.54745 28.4287 7.03162 28.1887 6.65399 27.7864C6.27635 27.3841 6.06576 26.8502 6.06576 26.2951C6.06576 25.74 6.27635 25.2061 6.65399 24.8038C7.03162 24.4015 7.54745 24.1615 8.09484 24.1335ZM2.08247 24.1335C2.4997 24.128 2.90915 24.248 3.25905 24.4782C3.60896 24.7085 3.88359 25.0386 4.04823 25.4269C4.21288 25.8152 4.26013 26.2442 4.18403 26.6597C4.10792 27.0752 3.91187 27.4585 3.62067 27.7612C3.32947 28.0639 2.95619 28.2723 2.54803 28.3601C2.13988 28.4479 1.71518 28.4112 1.32764 28.2545C0.940093 28.0979 0.607111 27.8284 0.370797 27.4801C0.134482 27.1319 0.00544663 26.7204 7.11758e-06 26.2979C-0.00071399 26.0171 0.0533653 25.7389 0.159137 25.4793C0.264909 25.2198 0.420287 24.9839 0.616344 24.7854C0.8124 24.5868 1.04527 24.4294 1.30157 24.3223C1.55786 24.2152 1.83254 24.1604 2.1098 24.1612L2.08247 24.1335Z" fill="#FF6348"/>
<path fill-rule="evenodd" clip-rule="evenodd" d="M33.6328 9.09035H39.4812C40.6866 9.06559 41.882 9.3153 42.9793 9.82104C43.9479 10.2677 44.7667 10.9911 45.3351 11.9024C45.9118 12.8635 46.204 13.9721 46.1768 15.0964C46.2055 16.2209 45.9133 17.3299 45.3351 18.2904C44.7675 19.2037 43.9486 19.9291 42.9793 20.3773C41.882 20.883 40.6866 21.1328 39.4812 21.108H33.6328V9.09035ZM39.3118 17.9472C40.0682 17.9839 40.8085 17.7174 41.3724 17.2054C41.6394 16.9281 41.846 16.5971 41.9787 16.2338C42.1115 15.8705 42.1675 15.483 42.143 15.0964C42.1659 14.7116 42.1092 14.3263 41.9765 13.965C41.8438 13.6037 41.638 13.2745 41.3724 12.9984C41.0942 12.7429 40.7691 12.5454 40.4155 12.4171C40.0619 12.2889 39.6869 12.2325 39.3118 12.2511H37.6338V17.9472H39.3118ZM89.7774 9.09035L84.7598 21.108H80.8244L75.8069 9.09035H80.1139L82.9452 16.1149L85.842 9.09035H89.7774ZM51.6699 11.5481C53.3097 11.5481 54.5395 11.9135 55.3976 12.6552C56.2557 13.397 56.6875 14.5262 56.6875 16.0596V21.108H53.1238V19.8736C52.6866 20.8109 51.812 21.2796 50.5002 21.2796C49.8541 21.2993 49.2123 21.1667 48.6255 20.8921C48.1435 20.6659 47.737 20.3024 47.4558 19.8459C47.1893 19.3985 47.0511 18.8848 47.0568 18.3624C47.0344 17.9484 47.1189 17.5357 47.302 17.1649C47.485 16.7941 47.7603 16.478 48.1008 16.2478C49.0723 15.702 50.1789 15.4522 51.2873 15.5282H52.8287C52.703 14.7975 52.1181 14.4211 51.0796 14.4211C50.6497 14.4211 50.2223 14.4864 49.8116 14.6148C49.419 14.7357 49.0494 14.9229 48.7184 15.1684L47.4995 12.6109C48.0968 12.2509 48.7459 11.9876 49.4235 11.8304C50.1576 11.6413 50.9124 11.5464 51.6699 11.5481ZM51.6699 18.9436C51.9291 18.9485 52.1833 18.8711 52.3969 18.7222C52.6142 18.5614 52.775 18.3344 52.856 18.0745V17.3992H51.9268C51.1452 17.3992 50.7571 17.6649 50.7571 18.1908C50.7522 18.2961 50.7719 18.4012 50.8146 18.4974C50.8574 18.5936 50.922 18.6782 51.0031 18.7443C51.1924 18.8994 51.4325 18.9765 51.6754 18.9602L51.6699 18.9436ZM65.1978 20.7814C64.4671 21.1476 63.6563 21.3191 62.842 21.2796C61.7579 21.3514 60.6863 21.012 59.8358 20.3275C59.4676 19.9564 59.1831 19.5089 59.0019 19.0158C58.8208 18.5227 58.7472 17.9958 58.7864 17.4711V15.0632H57.5019V12.2345H58.77V9.60515H62.596V12.2345H64.4981V15.0632H62.596V17.4324C62.5813 17.6768 62.6618 17.9172 62.8201 18.1022C62.8897 18.1789 62.9741 18.2401 63.0682 18.282C63.1623 18.3239 63.2639 18.3456 63.3667 18.3458C63.6742 18.3512 63.9758 18.2604 64.2303 18.0856L65.1978 20.7814ZM70.3137 11.5481C71.9535 11.5481 73.1833 11.9135 74.0469 12.6552C74.9105 13.397 75.3313 14.5262 75.3313 16.0596V21.108H71.7731V19.8736C71.3285 20.8109 70.4522 21.2796 69.1441 21.2796C68.4997 21.2995 67.8596 21.1668 67.2748 20.8921C66.791 20.6687 66.3838 20.3045 66.1051 19.8459C65.8364 19.3995 65.6981 18.8851 65.7061 18.3624C65.6848 17.948 65.7704 17.5351 65.9544 17.1644C66.1384 16.7936 66.4145 16.4778 66.7555 16.2478C67.7273 15.7026 68.8337 15.4528 69.9421 15.5282H71.4834C71.3632 14.7975 70.7783 14.4211 69.7398 14.4211C69.3082 14.4211 68.8789 14.4864 68.4663 14.6148C68.0739 14.7362 67.7044 14.9233 67.3731 15.1684L66.1379 12.6109C66.736 12.2527 67.3849 11.9895 68.0618 11.8304C68.7961 11.642 69.5508 11.5471 70.3083 11.5481H70.3137ZM70.3137 18.9436C70.5745 18.9478 70.8303 18.8705 71.0461 18.7222C71.2716 18.5577 71.4369 18.3221 71.5162 18.0524V17.3992H70.5706C69.789 17.3992 69.4009 17.6649 69.4009 18.1908C69.396 18.2961 69.4157 18.4012 69.4585 18.4974C69.5012 18.5936 69.5658 18.6782 69.6469 18.7443C69.8345 18.8985 70.0726 18.9756 70.3137 18.9602V18.9436ZM90.3349 11.7474H94.161V21.1578H90.3349V11.7474ZM92.248 10.989C91.6435 11.0215 91.049 10.8241 90.5809 10.4355C90.3767 10.264 90.2136 10.0479 90.1038 9.80345C89.994 9.55896 89.9403 9.29244 89.9469 9.02392C89.9278 8.74894 89.9723 8.47324 90.0766 8.21865C90.181 7.96405 90.3424 7.73753 90.5481 7.55701C91.0162 7.16841 91.6108 6.97098 92.2152 7.00345C92.8221 6.97708 93.418 7.17366 93.8932 7.55701C94.0952 7.72139 94.257 7.9308 94.3661 8.16892C94.4751 8.40704 94.5284 8.66743 94.5217 8.92982C94.5297 9.20607 94.4776 9.48072 94.3689 9.73425C94.2603 9.98778 94.0978 10.214 93.8932 10.3967C93.4236 10.7904 92.8236 10.9883 92.2152 10.9503L92.248 10.989ZM104.371 18.3015V21.1357H95.4892V18.9215L99.3152 14.5927H95.6531V11.7197H104.18V13.9339L100.354 18.2572L104.371 18.3015ZM114.035 18.3015V21.1357H105.153V18.9215L108.979 14.5927H105.278V11.7197H113.81V13.9339L109.984 18.2572L114.035 18.3015Z" fill="#5F5F5F"/>
</g>
<defs>
<clipPath id="clip0_131_6773">
<rect width="114" height="28.6839" fill="white"/>
</clipPath>
</defs>
</svg>
