<svg width="150" height="40" viewBox="0 0 150 40" fill="none" xmlns="http://www.w3.org/2000/svg">
<mask id="mask0_131_19127" style="mask-type:luminance" maskUnits="userSpaceOnUse" x="0" y="0" width="150" height="40">
<path d="M149.458 0H0V39.1433H149.458V0Z" fill="white"/>
</mask>
<g mask="url(#mask0_131_19127)">
<path d="M116.357 22.6012C116.199 21.7467 115.963 20.9084 115.651 20.0956C115.034 18.4723 114.089 16.9931 112.876 15.7484C111.62 14.4665 110.122 13.4447 108.469 12.7434C106.616 11.9887 104.63 11.6195 102.628 11.6543C100.608 11.6195 98.5993 11.991 96.7253 12.7434C95.044 13.4331 93.5183 14.4549 92.2411 15.7484C91.0103 17.0117 90.0513 18.5118 89.4219 20.1606C88.7601 21.8465 88.4234 23.6439 88.4257 25.4552C88.4187 27.2294 88.7578 28.9897 89.4219 30.6408C90.0768 32.2849 91.0614 33.7781 92.3131 35.0251C93.5741 36.2814 95.0765 37.2707 96.7299 37.9325C98.5808 38.671 100.557 39.0402 102.549 39.0147C105.262 39.075 107.937 38.3946 110.28 37.0547C112.335 35.9006 114.005 34.1682 115.085 32.0736L115.412 31.4024L109.249 29.7165L108.991 30.0486C108.125 31.1633 106.976 32.0248 105.661 32.545C104.342 33.0698 102.907 33.2347 101.504 33.0257C100.104 32.8167 98.7828 32.2408 97.6797 31.356C96.5836 30.4759 95.743 29.3171 95.2507 28.0004H116.329L116.446 27.5104C116.525 27.1667 116.571 26.8184 116.58 26.4677V25.237C116.58 24.3615 116.501 23.486 116.341 22.6245L116.357 22.6012ZM102.677 17.5109C104.152 17.5156 105.598 17.9243 106.859 18.693C108.111 19.4546 109.126 20.5531 109.788 21.8581H95.5688C96.2307 20.5507 97.2455 19.4546 98.4972 18.6906C99.7558 17.9243 101.203 17.5156 102.677 17.5109ZM56.1817 22.6012C56.0215 21.7467 55.7846 20.9084 55.4735 20.0956C54.8558 18.4723 53.9106 16.9931 52.6984 15.7484C51.4398 14.4665 49.9419 13.4471 48.2885 12.7434C46.4377 11.9818 44.4453 11.6055 42.4412 11.6357C40.4209 11.6079 38.4168 11.9864 36.5451 12.7434C34.8638 13.4331 33.3381 14.4549 32.0609 15.7484C30.8301 17.0117 29.8687 18.5118 29.2371 20.1606C28.5868 21.8488 28.2571 23.6439 28.2641 25.4552C28.2617 27.2317 28.5985 28.992 29.2603 30.6408C29.9175 32.2826 30.9021 33.7757 32.1538 35.0228C33.4147 36.2791 34.9172 37.2684 36.5683 37.9325C38.4145 38.671 40.393 39.0402 42.3855 39.017C45.1001 39.0774 47.7753 38.397 50.1231 37.057C52.1643 35.8936 53.8177 34.1543 54.879 32.0573L55.2134 31.3862L49.0502 29.7188L48.7901 30.0509C47.9216 31.1656 46.7721 32.0271 45.4601 32.5473C44.1411 33.0698 42.7059 33.237 41.301 33.0257C39.9007 32.8167 38.5793 32.2408 37.474 31.356C36.3779 30.4759 35.5372 29.3171 35.0449 28.0004H56.1237L56.2421 27.5104C56.3304 27.1551 56.3768 26.7882 56.3815 26.4236V25.1928C56.3838 24.3174 56.3048 23.4419 56.1469 22.5803L56.1817 22.6012ZM35.3724 21.8605C36.0319 20.5507 37.0444 19.45 38.296 18.686C39.557 17.9173 41.0061 17.5086 42.483 17.5109C43.9622 17.5109 45.4136 17.9173 46.6699 18.686C47.9216 19.45 48.9341 20.5507 49.5936 21.8605H35.3724ZM18.3691 17.5435L12.9537 15.3188C10.109 14.1809 7.42914 13.1034 7.42914 10.3423C7.42914 7.76925 9.79083 6.1019 13.4437 6.1019C14.4515 6.09958 15.457 6.2273 16.4324 6.4781L16.5113 6.52222H16.5554C16.6437 6.55241 16.7296 6.5826 16.8086 6.61511H16.8434L16.9177 6.63833L17.1267 6.73122L17.2266 6.77534L17.3798 6.84501C17.5285 6.91468 17.6748 6.98666 17.7932 7.05633L18.0324 7.1887L18.1856 7.28623L18.4155 7.42789L18.5758 7.54167C19.1726 7.95735 19.7067 8.45663 20.1642 9.02093L20.4521 9.35997L20.8515 9.2276L26.606 7.71352L26.2577 7.03311C25.1778 4.98491 23.5151 3.30131 21.4809 2.19593C19.7926 1.25311 17.9232 0.663272 15.9911 0.461239C15.1528 0.305651 14.3029 0.224371 13.4506 0.219727C9.92784 0.219727 6.70461 1.24847 4.36381 3.1225C3.21199 4.00726 2.27614 5.14515 1.62824 6.44559C0.984988 7.74138 0.648268 9.16491 0.645945 10.6116C0.645945 15.126 3.32114 18.4096 8.82479 20.639L14.217 22.8938C17.5052 24.2523 19.8809 25.237 19.8809 28.286C19.8809 31.3351 17.2521 33.1139 13.021 33.1139H12.0829C11.3026 33.0443 10.5339 32.8654 9.80244 32.5845L9.69794 32.545L9.60273 32.5009L9.4634 32.4126L9.37283 32.3731H9.338L9.21956 32.3128C9.07327 32.2454 8.92929 32.1711 8.78996 32.0921L8.711 32.048L8.61115 31.9946H8.57631L8.40679 31.8576L8.18154 31.7159L8.0422 31.6184C7.80301 31.4466 7.57079 31.2631 7.35018 31.0704C7.02275 30.7685 6.72086 30.441 6.44916 30.0904L6.1705 29.7513L5.76179 29.8837L-0.00195312 31.4164L0.341734 32.0968C0.573955 32.5636 0.843334 33.0141 1.1429 33.4414L1.23347 33.5923L1.37744 33.7595C2.39689 35.0762 3.66947 36.1746 5.12085 36.9943C6.36092 37.7096 7.70548 38.2251 9.10578 38.52L9.17545 38.5479H9.24047C10.448 38.8475 11.6881 38.9914 12.9328 38.9798C16.9479 38.9798 20.4057 37.8814 22.8974 35.8077C24.0817 34.8602 25.0362 33.6573 25.6957 32.2942C26.3506 30.9357 26.6919 29.4471 26.6919 27.9377C26.6919 21.7769 22.4841 19.2317 18.3668 17.5574V17.5435H18.3691Z" fill="#333333"/>
<path d="M138.778 39.1317H131.654L125.716 30.2956L119.738 39.1317H112.579L122.179 25.6373L112.275 11.7713H119.43L138.778 39.1317ZM79.4828 0V13.7498C77.2557 12.2659 74.6386 11.4787 71.9657 11.4903C64.4046 11.4903 58.2461 17.6906 58.2461 25.3168C58.2461 32.943 64.4023 39.1433 71.9657 39.1433C74.6409 39.1526 77.2581 38.3676 79.4828 36.8838V39.0318H86.3124V0H79.4828ZM71.9634 17.7092C73.4984 17.6674 75.0125 18.0761 76.3176 18.8866C77.6111 19.6901 78.6375 20.8651 79.2598 22.2561C79.8775 23.6402 80.061 25.1775 79.787 26.6683C79.5106 28.1615 78.7931 29.5386 77.7225 30.6184C76.645 31.7075 75.2679 32.4506 73.7678 32.7595C72.263 33.0707 70.6978 32.9337 69.272 32.3624C67.8531 31.7981 66.6316 30.8228 65.7677 29.5641C64.9108 28.3148 64.4511 26.8332 64.4487 25.3168C64.4255 23.322 65.2035 21.4015 66.6084 19.9827C68.0273 18.5545 69.9501 17.7371 71.9634 17.7092Z" fill="#333333"/>
<path d="M136.855 0.396005C134.512 0.393683 132.215 1.03694 130.215 2.2561C128.228 3.46365 126.618 5.20531 125.569 7.27905C123.439 11.4916 123.927 16.5563 126.818 20.2858L132.821 11.408H139.521L130.801 23.6623C134.224 25.5108 138.304 25.6989 141.882 24.1755C143.642 23.4277 145.208 22.2899 146.462 20.8454C147.706 19.4103 148.603 17.7104 149.083 15.8713C149.559 14.039 149.604 12.1232 149.213 10.2701C148.819 8.4123 148.001 6.67295 146.824 5.18441C145.637 3.68658 144.125 2.47903 142.402 1.65232C140.672 0.823291 138.775 0.393683 136.855 0.396005Z" fill="#D50C47"/>
<path d="M18.3691 17.5435L12.9537 15.3188C10.109 14.1832 7.42914 13.1034 7.42914 10.3446C7.42914 7.77157 9.79083 6.10422 13.4437 6.10422C14.4515 6.1019 15.457 6.22962 16.4324 6.48042L16.5113 6.52454H16.5554C16.6437 6.55473 16.7296 6.58492 16.8086 6.61743H16.8434L16.9177 6.64065L17.1267 6.73354L17.2266 6.77766L17.3798 6.84733C17.5285 6.917 17.6748 6.98899 17.7932 7.05865L18.0324 7.19102L18.1856 7.28855L18.4155 7.43021L18.5758 7.54399C19.1726 7.95967 19.7067 8.45895 20.1642 9.02325L20.4521 9.36229L20.8515 9.22993L26.606 7.71584L26.2577 7.03543C25.1778 4.98491 23.5151 3.30131 21.4809 2.19593C19.7926 1.25311 17.9232 0.663268 15.9911 0.461235C15.1528 0.305647 14.3029 0.224371 13.4506 0.219727C9.92784 0.219727 6.70461 1.24847 4.36381 3.12017C3.21199 4.00494 2.27614 5.14283 1.62824 6.44327C0.984988 7.73906 0.648268 9.16258 0.645945 10.6093C0.645945 15.1237 3.32114 18.4073 8.82479 20.639L14.217 22.8938C17.5052 24.2523 19.8809 25.237 19.8809 28.286C19.8809 31.3351 17.2521 33.1139 13.021 33.1139H12.0829C11.3026 33.0442 10.5339 32.8654 9.80244 32.5844L9.69794 32.545L9.60273 32.5009L9.4634 32.4126L9.37283 32.3731H9.338L9.21957 32.3128C9.07327 32.2454 8.92929 32.1711 8.78996 32.0945L8.711 32.0503L8.61115 31.9969H8.57631L8.40679 31.8599L8.18154 31.7183L8.0422 31.6207C7.80302 31.4489 7.57079 31.2654 7.35018 31.0727C7.02275 30.7708 6.72086 30.4434 6.44916 30.0927L6.1705 29.7537L5.76179 29.886L-0.00195312 31.421L0.341734 32.1014C0.573955 32.5682 0.843334 33.0164 1.1429 33.4437L1.23347 33.5946L1.37744 33.7618C2.39689 35.0785 3.66947 36.1792 5.12086 36.9967C6.36092 37.7119 7.70548 38.2251 9.10578 38.52L9.17545 38.5502H9.24047C10.4457 38.8498 11.6881 38.9938 12.9328 38.9822C16.9479 38.9822 20.4057 37.8837 22.8974 35.81C24.0818 34.8625 25.0362 33.6596 25.6957 32.2965C26.3506 30.938 26.6919 29.4495 26.6919 27.94C26.6919 21.7792 22.4841 19.234 18.3668 17.5597V17.5435H18.3691Z" fill="#333333"/>
<path d="M18.3691 17.5435L12.9537 15.3188C10.109 14.1832 7.42914 13.1034 7.42914 10.3446C7.42914 7.77157 9.79083 6.10422 13.4437 6.10422C14.4515 6.1019 15.457 6.22962 16.4324 6.48042L16.5113 6.52454H16.5554C16.6437 6.55473 16.7296 6.58492 16.8086 6.61743H16.8434L16.9177 6.64065L17.1267 6.73354L17.2266 6.77766L17.3798 6.84733C17.5285 6.917 17.6748 6.98899 17.7932 7.05865L18.0324 7.19102L18.1856 7.28855L18.4155 7.43021L18.5758 7.54399C19.1726 7.95967 19.7067 8.45895 20.1642 9.02325L20.4521 9.36229L20.8515 9.22993L26.606 7.71584L26.2577 7.03543C25.1778 4.98491 23.5151 3.30131 21.4809 2.19593C19.7926 1.25311 17.9232 0.663268 15.9911 0.461235C15.1528 0.305647 14.3029 0.224371 13.4506 0.219727C9.92784 0.219727 6.70461 1.24847 4.36381 3.12017C3.21199 4.00494 2.27614 5.14283 1.62824 6.44327C0.984988 7.73906 0.648268 9.16258 0.645945 10.6093C0.645945 15.1237 3.32114 18.4073 8.82479 20.639L14.217 22.8938C17.5052 24.2523 19.8809 25.237 19.8809 28.286C19.8809 31.3351 17.2521 33.1139 13.021 33.1139H12.0829C11.3026 33.0442 10.5339 32.8654 9.80244 32.5844L9.69794 32.545L9.60273 32.5009L9.4634 32.4126L9.37283 32.3731H9.338L9.21957 32.3128C9.07327 32.2454 8.92929 32.1711 8.78996 32.0945L8.711 32.0503L8.61115 31.9969H8.57631L8.40679 31.8599L8.18154 31.7183L8.0422 31.6207C7.80302 31.4489 7.57079 31.2654 7.35018 31.0727C7.02275 30.7708 6.72086 30.4434 6.44916 30.0927L6.1705 29.7537L5.76179 29.886L-0.00195312 31.421L0.341734 32.1014C0.573955 32.5682 0.843334 33.0164 1.1429 33.4437L1.23347 33.5946L1.37744 33.7618C2.39689 35.0785 3.66947 36.1792 5.12086 36.9967C6.36092 37.7119 7.70548 38.2251 9.10578 38.52L9.17545 38.5502H9.24047C10.4457 38.8498 11.6881 38.9938 12.9328 38.9822C16.9479 38.9822 20.4057 37.8837 22.8974 35.81C24.0818 34.8625 25.0362 33.6596 25.6957 32.2965C26.3506 30.938 26.6919 29.4495 26.6919 27.94C26.6919 21.7792 22.4841 19.234 18.3668 17.5597V17.5435H18.3691Z" fill="#333333"/>
</g>
</svg>
