<svg width="199" height="34" viewBox="0 0 199 34" fill="none" xmlns="http://www.w3.org/2000/svg">
<g clip-path="url(#clip0_131_17749)">
<path fill-rule="evenodd" clip-rule="evenodd" d="M53.0027 0.667969L36.0901 33.8383H20.2045L27.2824 20.0911H26.9649C21.1257 27.6959 12.4135 32.7022 0 33.8383V20.2814C0 20.2814 7.94122 19.8108 12.6096 14.8865H0V0.668231H14.1719V12.3626L14.49 12.3613L20.2811 0.668231H30.9989V12.2884L31.317 12.2879L37.3253 0.667969H53.0027Z" fill="#B8BFCB"/>
<path d="M145.229 30.1787H149.793V3.89453H145.229V30.1787Z" fill="#B8BFCB"/>
<path fill-rule="evenodd" clip-rule="evenodd" d="M120.066 29.9052C121.058 30.319 122.067 30.5258 123.092 30.5258C124.787 30.5258 126.302 30.1121 127.64 29.2846C128.977 28.4572 130.014 27.3165 130.749 25.8629C131.485 24.3979 131.853 22.7374 131.853 20.8811C131.853 19.0247 131.474 17.3642 130.716 15.8993C129.958 14.4344 128.905 13.2994 127.556 12.4943C126.208 11.678 124.675 11.2754 122.958 11.2866C121.866 11.2866 120.819 11.4991 119.815 11.924C118.812 12.3489 117.976 12.9528 117.308 13.7355C117.256 13.7951 117.206 13.8553 117.157 13.9161V3.90625H112.576V30.1736H117.124L117.115 27.7198C117.232 27.8644 117.358 28.0057 117.492 28.1439C118.216 28.8933 119.074 29.4803 120.066 29.9052ZM124.747 25.6615C124.001 26.1199 123.148 26.3493 122.19 26.3493C121.242 26.3493 120.373 26.1144 119.581 25.6447C118.79 25.1638 118.16 24.5097 117.692 23.6823C117.235 22.8548 117.007 21.9155 117.007 20.8643C116.996 19.8131 117.219 18.8738 117.675 18.0463C118.144 17.2077 118.773 16.5591 119.565 16.1006C120.356 15.631 121.231 15.4017 122.19 15.4129C123.148 15.4017 124.001 15.6254 124.747 16.0838C125.505 16.5311 126.085 17.1741 126.486 18.0128C126.899 18.8403 127.105 19.7909 127.105 20.8643C127.105 21.9378 126.899 22.8883 126.486 23.7158C126.085 24.5433 125.505 25.1918 124.747 25.6615Z" fill="#B8BFCB"/>
<path d="M59.6152 5.48438H64.8315L69.4977 22.5811L74.4615 5.48438H78.8084L84.1919 22.238L88.6724 5.48438H93.454L86.3987 30.1751H81.9012L76.4272 13.8081L71.4019 30.1751H66.8544L59.6152 5.48438Z" fill="#B8BFCB"/>
<path fill-rule="evenodd" clip-rule="evenodd" d="M101.156 30.6111C99.3393 30.6222 97.7009 30.2196 96.2407 29.4033C94.7919 28.5758 93.6494 27.4296 92.8134 25.9648C91.9887 24.4998 91.5762 22.8281 91.5762 20.9495C91.5762 19.1268 91.9999 17.4774 92.8469 16.0013C93.6938 14.5252 94.842 13.3734 96.2908 12.5459C97.7398 11.7184 99.356 11.3047 101.139 11.3047C103.146 11.3047 104.901 11.752 106.406 12.6466C107.922 13.5412 109.053 14.8104 109.8 16.4542C110.558 18.0868 110.831 19.9598 110.619 22.0732H96.298C96.338 22.9152 96.5474 23.6814 96.9263 24.3712C97.3498 25.1316 97.9406 25.7244 98.6983 26.1492C99.4562 26.5741 100.303 26.7866 101.24 26.7866C101.953 26.7755 102.616 26.6524 103.229 26.4177C103.842 26.1717 104.36 25.8417 104.784 25.4281C105.219 25.0142 105.525 24.5446 105.703 24.0191H110.485C110.195 25.305 109.616 26.4512 108.746 27.4576C107.877 28.4528 106.785 29.2299 105.47 29.7891C104.154 30.3482 102.716 30.6222 101.156 30.6111ZM96.943 17.4606C96.6758 17.9279 96.4908 18.4311 96.3878 18.9702H105.881C105.812 18.2891 105.602 17.6685 105.252 17.1083C104.851 16.4486 104.305 15.9398 103.614 15.582C102.923 15.2129 102.143 15.0284 101.273 15.0284C100.348 15.0284 99.5066 15.2409 98.7487 15.6658C97.9907 16.0908 97.3887 16.689 96.943 17.4606Z" fill="#B8BFCB"/>
<path d="M135.214 11.6908C135.214 10.1923 135.554 8.86164 136.234 7.69868C136.914 6.52453 137.867 5.61316 139.093 4.9646C140.33 4.30483 141.773 3.96377 143.423 3.94141V8.01736C142.654 8.02854 141.996 8.1907 141.45 8.5038C140.915 8.80572 140.503 9.24743 140.213 9.82891C139.946 10.3642 139.802 10.9849 139.781 11.6908H143.323V15.5655H139.778V30.1753H135.214V15.5655H132.271V11.6908H135.214Z" fill="#B8BFCB"/>
<path fill-rule="evenodd" clip-rule="evenodd" d="M161.393 30.5787C159.532 30.5787 157.866 30.1704 156.394 29.3542C154.934 28.5267 153.786 27.386 152.95 25.9324C152.125 24.4674 151.713 22.8069 151.713 20.9506C151.713 19.0832 152.125 17.417 152.95 15.9521C153.786 14.476 154.934 13.3298 156.394 12.5135C157.866 11.6972 159.532 11.2891 161.393 11.2891C163.266 11.2891 164.938 11.6972 166.409 12.5135C167.891 13.3298 169.045 14.4704 169.87 15.9353C170.694 17.4002 171.112 19.072 171.123 20.9506C171.112 22.8069 170.694 24.4674 169.87 25.9324C169.056 27.386 167.908 28.5267 166.426 29.3542C164.943 30.1704 163.266 30.5787 161.393 30.5787ZM161.393 26.3685C162.374 26.3685 163.243 26.1449 164.001 25.6975C164.759 25.2391 165.344 24.6016 165.757 23.7853C166.169 22.9578 166.375 22.013 166.375 20.9506C166.375 19.8771 166.169 18.9266 165.757 18.0991C165.344 17.2716 164.759 16.6342 164.001 16.1869C163.243 15.7285 162.374 15.4992 161.393 15.4992C160.423 15.4992 159.56 15.7285 158.802 16.1869C158.055 16.6342 157.475 17.2716 157.063 18.0991C156.651 18.9266 156.45 19.8771 156.461 20.9506C156.461 22.013 156.667 22.9578 157.08 23.7853C157.503 24.6016 158.083 25.2391 158.819 25.6975C159.565 26.1449 160.423 26.3685 161.393 26.3685Z" fill="#B8BFCB"/>
<path d="M176.055 11.6953H170.973L176.473 30.1798H180.92L184.538 18.3738L188.444 30.1798H192.824L198.341 11.6953H193.744L190.615 23.2007L187.157 11.6953H182.709L179.267 23.4542L176.055 11.6953Z" fill="#B8BFCB"/>
</g>
<defs>
<clipPath id="clip0_131_17749">
<rect width="198.343" height="33.3497" fill="white" transform="translate(0 0.542969)"/>
</clipPath>
</defs>
</svg>
