<svg width="14" height="14" viewBox="0 0 14 14" fill="none" xmlns="http://www.w3.org/2000/svg">
<path d="M8.47614 8.61611C8.47614 8.61611 8.58775 8.5045 8.81097 8.28128C9.03418 8.05807 9.14579 7.63099 9.14579 7.00003C9.14579 6.36908 8.92257 5.83039 8.47614 5.38396C8.02972 4.93753 7.49103 4.71432 6.86007 4.71432C6.22912 4.71432 5.69043 4.93753 5.244 5.38396C4.79757 5.83039 4.57436 6.36908 4.57436 7.00003C4.57436 7.63099 4.79757 8.16968 5.244 8.61611C5.69043 9.06253 6.22912 9.28575 6.86007 9.28575C7.49103 9.28575 8.02972 9.06253 8.47614 8.61611ZM9.35114 4.50896C9.35114 4.50896 9.52227 4.68009 9.86454 5.02236C10.2068 5.36462 10.3779 6.02384 10.3779 7.00003C10.3779 7.97622 10.0357 8.80658 9.35114 9.49111C8.66662 10.1756 7.83626 10.5179 6.86007 10.5179C5.88388 10.5179 5.05352 10.1756 4.369 9.49111C3.68448 8.80658 3.34222 7.97622 3.34222 7.00003C3.34222 6.02384 3.68448 5.19349 4.369 4.50896C5.05352 3.82444 5.88388 3.48218 6.86007 3.48218C7.83626 3.48218 8.66662 3.82444 9.35114 4.50896ZM11.1011 2.75896C11.1011 2.75896 11.1413 2.79914 11.2217 2.8795C11.302 2.95986 11.3422 3.11313 11.3422 3.33932C11.3422 3.56551 11.2619 3.75896 11.1011 3.91968C10.9404 4.08039 10.747 4.16075 10.5208 4.16075C10.2946 4.16075 10.1011 4.08039 9.94043 3.91968C9.77972 3.75896 9.69936 3.56551 9.69936 3.33932C9.69936 3.11313 9.77972 2.91968 9.94043 2.75896C10.1011 2.59825 10.2946 2.51789 10.5208 2.51789C10.747 2.51789 10.9404 2.59825 11.1011 2.75896ZM7.54311 1.37057C7.54311 1.37057 7.43969 1.37131 7.23284 1.3728C7.026 1.37429 6.90174 1.37503 6.86007 1.37503C6.81841 1.37503 6.59073 1.37355 6.17704 1.37057C5.76335 1.36759 5.44936 1.36759 5.23507 1.37057C5.02079 1.37355 4.73358 1.38247 4.37347 1.39736C4.01335 1.41224 3.7068 1.442 3.45382 1.48664C3.20085 1.53128 2.98805 1.58634 2.81543 1.65182C2.51781 1.77087 2.25591 1.94349 2.02972 2.16968C1.80352 2.39587 1.63091 2.65777 1.51186 2.95539C1.44638 3.12801 1.39132 3.34081 1.34668 3.59378C1.30204 3.84676 1.27227 4.15331 1.25739 4.51343C1.24251 4.87355 1.23358 5.16075 1.23061 5.37503C1.22763 5.58932 1.22763 5.90331 1.23061 6.317C1.23358 6.73069 1.23507 6.95837 1.23507 7.00003C1.23507 7.0417 1.23358 7.26938 1.23061 7.68307C1.22763 8.09676 1.22763 8.41075 1.23061 8.62503C1.23358 8.83932 1.24251 9.12652 1.25739 9.48664C1.27227 9.84676 1.30204 10.1533 1.34668 10.4063C1.39132 10.6593 1.44638 10.8721 1.51186 11.0447C1.63091 11.3423 1.80352 11.6042 2.02972 11.8304C2.25591 12.0566 2.51781 12.2292 2.81543 12.3482C2.98805 12.4137 3.20085 12.4688 3.45382 12.5134C3.7068 12.5581 4.01335 12.5878 4.37347 12.6027C4.73358 12.6176 5.02079 12.6265 5.23507 12.6295C5.44936 12.6325 5.76335 12.6325 6.17704 12.6295C6.59073 12.6265 6.81841 12.625 6.86007 12.625C6.90174 12.625 7.12942 12.6265 7.54311 12.6295C7.9568 12.6325 8.27079 12.6325 8.48507 12.6295C8.69936 12.6265 8.98656 12.6176 9.34668 12.6027C9.7068 12.5878 10.0133 12.5581 10.2663 12.5134C10.5193 12.4688 10.7321 12.4137 10.9047 12.3482C11.2023 12.2292 11.4642 12.0566 11.6904 11.8304C11.9166 11.6042 12.0892 11.3423 12.2083 11.0447C12.2738 10.8721 12.3288 10.6593 12.3735 10.4063C12.4181 10.1533 12.4479 9.84676 12.4628 9.48664C12.4776 9.12652 12.4866 8.83932 12.4895 8.62503C12.4925 8.41075 12.4925 8.09676 12.4895 7.68307C12.4866 7.26938 12.4851 7.0417 12.4851 7.00003C12.4851 6.95837 12.4866 6.73069 12.4895 6.317C12.4925 5.90331 12.4925 5.58932 12.4895 5.37503C12.4866 5.16075 12.4776 4.87355 12.4628 4.51343C12.4479 4.15331 12.4181 3.84676 12.3735 3.59378C12.3288 3.34081 12.2738 3.12801 12.2083 2.95539C12.0892 2.65777 11.9166 2.39587 11.6904 2.16968C11.4642 1.94349 11.2023 1.77087 10.9047 1.65182C10.7321 1.58634 10.5193 1.53128 10.2663 1.48664C10.0133 1.442 9.7068 1.41224 9.34668 1.39736C8.98656 1.38247 8.69936 1.37355 8.48507 1.37057C8.27079 1.36759 7.9568 1.36759 7.54311 1.37057ZM13.6726 4.16968C13.7023 4.69349 13.7172 5.63694 13.7172 7.00003C13.7172 8.36313 13.7023 9.30658 13.6726 9.83039C13.613 11.0685 13.244 12.0268 12.5654 12.7054C11.8869 13.384 10.9285 13.753 9.69043 13.8125C9.16662 13.8423 8.22317 13.8572 6.86007 13.8572C5.49698 13.8572 4.55352 13.8423 4.02972 13.8125C2.79162 13.753 1.83329 13.384 1.15472 12.7054C0.476144 12.0268 0.107096 11.0685 0.0475725 9.83039C0.0178106 9.30658 0.00292969 8.36313 0.00292969 7.00003C0.00292969 5.63694 0.0178106 4.69349 0.0475725 4.16968C0.107096 2.93158 0.476144 1.97325 1.15472 1.29468C1.83329 0.616106 2.79162 0.247058 4.02972 0.187534C4.55352 0.157772 5.49698 0.142891 6.86007 0.142891C8.22317 0.142891 9.16662 0.157772 9.69043 0.187534C10.9285 0.247058 11.8869 0.616106 12.5654 1.29468C13.244 1.97325 13.613 2.93158 13.6726 4.16968Z" fill="white"/>
</svg>
