<svg width="15" height="14" viewBox="0 0 15 14" fill="none" xmlns="http://www.w3.org/2000/svg">
<path d="M3.83897 4.58037V13.4286H0.892543V4.58037H3.83897ZM4.02647 1.84823C4.03242 2.28275 3.88213 2.64585 3.57558 2.93752C3.26903 3.22918 2.86576 3.37502 2.36576 3.37502H2.3479C1.85981 3.37502 1.46695 3.22918 1.16933 2.93752C0.87171 2.64585 0.7229 2.28275 0.7229 1.84823C0.7229 1.40775 0.876174 1.04317 1.18272 0.754481C1.48927 0.465791 1.88957 0.321445 2.38361 0.321445C2.87766 0.321445 3.2735 0.465791 3.57111 0.754481C3.86873 1.04317 4.02052 1.40775 4.02647 1.84823ZM14.4372 8.35716V13.4286H11.4997V8.69645C11.4997 8.07145 11.3792 7.58186 11.1381 7.2277C10.897 6.87353 10.5205 6.69645 10.0086 6.69645C9.63362 6.69645 9.31963 6.79912 9.06665 7.00448C8.81367 7.20984 8.62469 7.4643 8.49969 7.76787C8.43421 7.94645 8.40147 8.18752 8.40147 8.49109V13.4286H5.46397C5.47588 11.0536 5.48183 9.12799 5.48183 7.6518C5.48183 6.17561 5.47885 5.29466 5.4729 5.00895L5.46397 4.58037H8.40147V5.86609H8.38362C8.50266 5.67561 8.62469 5.50895 8.74969 5.36609C8.87469 5.22323 9.04284 5.06847 9.25415 4.9018C9.46546 4.73514 9.72439 4.60567 10.0309 4.51341C10.3375 4.42115 10.6783 4.37502 11.0533 4.37502C12.0711 4.37502 12.8896 4.71281 13.5086 5.38841C14.1277 6.06401 14.4372 7.05359 14.4372 8.35716Z" fill="white"/>
</svg>
